<svg width="36" height="36" viewBox="0 0 36 36" fill="none" xmlns="http://www.w3.org/2000/svg">
<path d="M18 3.48027C22.7321 3.48027 23.2875 3.50137 25.1579 3.58574C26.8875 3.66309 27.8227 3.95137 28.4485 4.19746C29.2782 4.5209 29.8688 4.90059 30.4875 5.51934C31.1063 6.13809 31.493 6.72871 31.8094 7.5584C32.0485 8.18418 32.3438 9.11934 32.4211 10.849C32.5055 12.7193 32.5266 13.2748 32.5266 18.0068C32.5266 22.7389 32.5055 23.2943 32.4211 25.1646C32.3438 26.8943 32.0555 27.8295 31.8094 28.4553C31.486 29.285 31.1063 29.8756 30.4875 30.4943C29.8688 31.1131 29.2782 31.4998 28.4485 31.8162C27.8227 32.0553 26.8875 32.3506 25.1579 32.4279C23.2875 32.5123 22.7321 32.5334 18 32.5334C13.268 32.5334 12.7125 32.5123 10.8422 32.4279C9.11255 32.3506 8.17739 32.0623 7.55161 31.8162C6.72192 31.4928 6.1313 31.1131 5.51255 30.4943C4.8938 29.8756 4.50708 29.285 4.19067 28.4553C3.95161 27.8295 3.6563 26.8943 3.57896 25.1646C3.49458 23.2943 3.47349 22.7389 3.47349 18.0068C3.47349 13.2748 3.49458 12.7193 3.57896 10.849C3.6563 9.11934 3.94458 8.18418 4.19067 7.5584C4.51411 6.72871 4.8938 6.13809 5.51255 5.51934C6.1313 4.90059 6.72192 4.51387 7.55161 4.19746C8.17739 3.9584 9.11255 3.66309 10.8422 3.58574C12.7125 3.49434 13.268 3.48027 18 3.48027ZM18 0.288086C13.1907 0.288086 12.586 0.30918 10.6946 0.393555C8.81021 0.47793 7.52349 0.780273 6.39849 1.21621C5.2313 1.66621 4.24692 2.27793 3.26255 3.2623C2.27817 4.24668 1.67349 5.23809 1.21645 6.39824C0.780518 7.52324 0.478174 8.80996 0.393799 10.7014C0.309424 12.5857 0.28833 13.1904 0.28833 17.9998C0.28833 22.8092 0.309424 23.4139 0.393799 25.3053C0.478174 27.1896 0.780518 28.4764 1.21645 29.6084C1.66646 30.7756 2.27817 31.76 3.26255 32.7443C4.24692 33.7287 5.23833 34.3334 6.39849 34.7904C7.52349 35.2264 8.8102 35.5287 10.7016 35.6131C12.593 35.6975 13.1907 35.7186 18.0071 35.7186C22.8235 35.7186 23.4211 35.6975 25.3125 35.6131C27.1969 35.5287 28.4836 35.2264 29.6157 34.7904C30.7829 34.3404 31.7672 33.7287 32.7516 32.7443C33.736 31.76 34.3407 30.7686 34.7977 29.6084C35.2336 28.4834 35.536 27.1967 35.6204 25.3053C35.7047 23.4139 35.7258 22.8162 35.7258 17.9998C35.7258 13.1834 35.7047 12.5857 35.6204 10.6943C35.536 8.80996 35.2336 7.52324 34.7977 6.39121C34.3477 5.22402 33.736 4.23965 32.7516 3.25527C31.7672 2.2709 30.7758 1.66621 29.6157 1.20918C28.4907 0.773242 27.204 0.470898 25.3125 0.386523C23.4141 0.30918 22.8094 0.288086 18 0.288086Z" fill="#BB7043"/>
<path d="M18 8.90137C12.9797 8.90137 8.90161 12.9725 8.90161 17.9998C8.90161 23.0271 12.9797 27.0982 18 27.0982C23.0204 27.0982 27.0985 23.0201 27.0985 17.9998C27.0985 12.9795 23.0204 8.90137 18 8.90137ZM18 23.9061C14.7375 23.9061 12.0938 21.2623 12.0938 17.9998C12.0938 14.7373 14.7375 12.0936 18 12.0936C21.2625 12.0936 23.9063 14.7373 23.9063 17.9998C23.9063 21.2623 21.2625 23.9061 18 23.9061Z" fill="#BB7043"/>
<path d="M27.4569 10.6658C28.6297 10.6658 29.5804 9.71512 29.5804 8.54238C29.5804 7.36964 28.6297 6.41895 27.4569 6.41895C26.2842 6.41895 25.3335 7.36964 25.3335 8.54238C25.3335 9.71512 26.2842 10.6658 27.4569 10.6658Z" fill="#BB7043"/>
</svg>
