<svg width="148" height="148" viewBox="0 0 148 148" fill="none" xmlns="http://www.w3.org/2000/svg">
<path d="M10.9266 43.4171C11.2156 43.5327 11.7359 43.8796 11.9094 43.8218C12.1406 43.7062 12.2562 43.1858 12.1984 43.0124C12.1984 42.5499 11.5047 42.0874 10.9266 42.0874C10.6375 42.0874 10.2328 42.3765 10.1172 42.7812C10.1172 43.0702 10.5797 43.2436 10.9266 43.4171Z" fill="#BB7043"/>
<path d="M5.55 57.9858C5.83906 58.0436 6.07031 58.1015 6.18594 58.1593C7.05313 58.3905 7.97813 58.6218 8.7875 58.853C9.07656 58.9108 9.88594 59.1999 10.0594 59.0843C10.175 59.0265 10.2328 58.7374 10.2328 58.5061C10.4641 57.003 9.82812 56.078 8.325 55.6155C6.99531 55.2108 5.95469 55.5577 5.37656 56.4249C5.20313 56.714 4.97188 57.1765 4.91406 57.5811C4.91406 57.8702 5.20313 57.8702 5.55 57.9858Z" fill="#BB7043"/>
<path d="M7.28438 79.4342C7.16875 79.3764 6.76406 79.492 6.59062 79.5498C6.18594 79.6655 5.66563 79.8389 5.26094 79.9545C5.02969 80.0123 4.68281 80.0702 4.625 80.1858C4.79844 80.3014 5.0875 80.3014 5.31875 80.3014C5.78125 80.3014 6.18594 80.3592 6.70625 80.417C6.87969 80.417 7.28438 80.4748 7.4 80.417C7.51563 80.3014 7.45781 80.128 7.45781 79.9545C7.4 79.7233 7.4 79.492 7.28438 79.4342Z" fill="#BB7043"/>
<path d="M13.5861 44.7466C13.7018 44.8045 13.933 44.9201 14.1064 44.9779C14.3377 45.0935 14.9158 45.4404 15.0893 45.3826C15.2627 45.3248 15.3783 44.9779 15.4939 44.7466C15.6096 44.5154 15.6674 44.2841 15.6096 44.0529C15.5518 43.4748 14.7424 42.8966 14.1643 43.1279C13.8752 43.2435 13.4127 43.6482 13.2393 44.2263C13.1236 44.5732 13.3549 44.631 13.5861 44.7466Z" fill="#BB7043"/>
<path d="M113.313 22.0266C114.584 22.836 115.683 22.6047 116.723 21.3906C117.648 20.35 117.764 19.2516 117.186 18.3844C117.013 18.0953 116.666 17.6906 116.319 17.5172C116.03 17.3438 115.914 17.6328 115.683 17.9219C115.509 18.1531 115.394 18.3266 115.278 18.4422C114.758 19.136 114.18 19.8875 113.602 20.5813C113.428 20.8125 112.85 21.4485 112.908 21.6219C112.908 21.7375 113.139 21.911 113.313 22.0266Z" fill="#BB7043"/>
<path d="M12.5456 96.9517C12.2565 96.258 11.7362 95.8533 11.1002 95.6798C10.5221 95.5064 9.77056 95.5064 9.019 95.8533C8.32525 96.1423 7.80493 96.6627 7.51587 97.183C7.22681 97.7033 7.11118 98.4548 7.45806 99.1486C7.6315 99.4955 7.86275 99.7845 8.094 99.958C8.78775 100.536 9.82837 100.71 10.9268 100.247C12.3721 99.6111 13.1815 98.4548 12.5456 96.9517Z" fill="#BB7043"/>
<path d="M99.7266 12.7186C99.9 12.7764 100.131 12.892 100.189 12.8342C100.305 12.7764 100.363 12.3717 100.42 12.1404C100.478 11.7357 100.594 11.2154 100.709 10.8107C100.767 10.5795 100.883 10.2326 100.767 10.1748C100.594 10.2904 100.478 10.5217 100.363 10.6951C100.131 11.0998 99.9 11.4467 99.6688 11.8514C99.5532 12.0248 99.3219 12.3139 99.3797 12.4295C99.3219 12.6029 99.5532 12.6029 99.7266 12.7186Z" fill="#BB7043"/>
<path d="M74.1158 5.20298C74.4049 5.20298 74.6939 4.97173 74.8674 4.79829C75.3299 4.10454 75.0408 2.83267 74.058 2.94829C73.9424 2.94829 73.8267 3.00611 73.7111 3.06392C73.4799 3.23736 73.2486 3.52642 73.1908 3.93111C73.133 4.50923 73.4799 5.20298 74.1158 5.20298Z" fill="#BB7043"/>
<path d="M73.5952 8.90318C73.8843 9.07662 74.2312 9.01881 74.5202 8.90318C75.4452 8.32506 75.214 6.41724 73.9421 6.53287C73.7687 6.53287 73.7108 6.59068 73.5952 6.64849C73.2483 6.82193 73.0749 7.11099 73.0171 7.57349C72.9593 8.15162 73.1905 8.67193 73.5952 8.90318Z" fill="#BB7043"/>
<path d="M131.697 37.9829C132.159 38.2141 132.795 38.1563 133.315 37.7516C133.894 37.2891 134.183 36.5376 133.72 35.9016C133.547 35.6704 133.315 35.4969 133.084 35.4391C132.679 35.3235 132.159 35.3813 131.754 35.6704C131.234 36.0173 131.003 36.5376 131.003 37.0001C131.061 37.4048 131.292 37.8094 131.697 37.9829Z" fill="#BB7043"/>
<path d="M143.953 77.5267C143.78 77.5267 143.549 77.5267 143.317 77.4689C143.028 77.4689 142.335 77.3532 142.161 77.4689C142.046 77.5845 142.103 77.9314 142.103 78.1048C142.161 78.3361 142.161 78.5095 142.277 78.6829C142.566 79.1454 143.664 79.3189 144.127 78.9142C144.358 78.7407 144.589 78.2204 144.531 77.8157C144.531 77.4689 144.242 77.5267 143.953 77.5267Z" fill="#BB7043"/>
<path d="M75.7346 88.5107C75.7346 88.3373 75.6189 88.2217 75.4455 88.2217H71.9189C71.7455 88.2217 71.6299 88.3373 71.6299 88.5107V108.803C71.6299 108.976 71.7455 109.092 71.9189 109.092H75.4455C75.6189 109.092 75.7346 108.976 75.7346 108.803V88.5107Z" fill="#BB7043"/>
<path d="M90.7658 104.814V108.687C90.7658 108.861 90.8814 109.034 91.0548 109.034H93.1361C93.3095 109.034 93.6564 108.803 93.6564 108.687V88.6264C93.6564 88.4529 93.2517 88.2217 93.1361 88.2217H91.0548C90.8814 88.2217 90.7658 88.4529 90.7658 88.6264V96.4311C90.7658 96.7201 90.4189 96.7779 90.3033 96.5467L85.8517 88.3951C85.7939 88.3373 85.7361 88.2217 85.6205 88.2217H81.5736C81.4002 88.2217 81.5158 88.4529 81.5158 88.6264V108.687C81.5158 108.861 81.4002 109.034 81.5736 109.034H84.6955C84.8689 109.034 84.9845 108.803 84.9845 108.687V95.3904C84.9845 95.1014 85.3314 95.0436 85.447 95.2748L90.708 104.698C90.7658 104.756 90.7658 104.756 90.7658 104.814Z" fill="#BB7043"/>
<path d="M66.3686 106.144C66.3686 106.086 66.4842 106.086 66.4842 106.028V100.478C66.4842 100.362 66.4842 100.247 66.5998 100.189C67.0045 100.131 67.1779 100.016 67.5826 100.016C67.6982 100.016 67.6404 99.8999 67.6404 99.7265V97.0671C67.6404 96.8936 67.6404 96.778 67.5248 96.778C65.7904 96.8936 63.9404 97.8187 62.2061 97.8765C62.0904 97.8765 61.917 97.9921 61.917 98.1655V100.825C61.917 100.998 62.1482 101.114 62.3217 101.114C62.6686 101.114 63.0154 101.056 63.3045 100.998C63.4779 100.941 63.6514 101.114 63.6514 101.23V104.756C63.6514 104.814 63.7092 104.814 63.6514 104.872C63.1889 105.855 62.4373 106.433 61.5123 106.433C59.3732 106.433 58.7951 102.906 58.7951 98.5702C58.7951 94.1765 59.3732 90.6499 61.5123 90.6499C62.6107 90.6499 63.2467 91.6327 63.6514 93.1358C63.7092 93.3093 63.8826 93.3671 63.9982 93.3093L66.3107 92.3843C66.4264 92.3265 66.542 92.153 66.4842 92.0374C65.5014 89.6093 63.8826 88.0483 61.5701 88.0483C56.6561 88.0483 54.4014 92.7312 54.4014 98.5702C54.4014 104.409 57.0029 109.092 61.6279 109.092C64.4607 109.208 66.1373 106.722 66.3686 106.144Z" fill="#BB7043"/>
<path d="M18.9049 83.0766H24.7439C27.9814 83.0766 30.583 80.4172 30.583 77.1219C30.583 74.5203 28.9064 72.3813 26.5939 71.5719V71.3407C28.3283 70.4735 28.9643 69.1438 28.9643 67.4672C28.9643 64.8657 26.883 62.8422 24.2236 62.8422H18.8471C18.6736 62.8422 18.4424 62.6688 18.4424 62.8422V82.9032C18.5002 83.0188 18.7314 83.0766 18.9049 83.0766ZM23.1252 65.1547H23.5877C25.0908 65.1547 26.3049 66.3688 26.3049 68.0453C26.3049 69.6641 25.0908 70.936 23.5877 70.936H23.1252V65.1547ZM23.1252 73.5953C23.1252 73.4219 23.0674 73.1907 23.183 73.1907H23.7611C25.7846 73.1907 27.4033 74.9828 27.4033 76.9485C27.4033 78.9141 25.7846 80.7063 23.7611 80.7063H23.183C23.0096 80.7063 23.1252 80.3594 23.1252 80.2438V73.5953Z" fill="#BB7043"/>
<path d="M75.7343 72.6125V82.9032C75.7343 83.0766 75.85 83.0766 75.9656 83.0766H78.1047C78.2781 83.0766 78.625 83.0188 78.625 82.9032V62.8422C78.625 62.6688 78.2203 62.8422 78.1047 62.8422H75.9656C75.7922 62.8422 75.7343 62.6688 75.7343 62.8422V69.8375C75.7343 70.011 75.5609 70.3578 75.4453 70.3578H71.4562C71.2828 70.3578 71.1093 69.9532 71.1093 69.8375V62.8422C71.1093 62.6688 71.0515 62.8422 70.9359 62.8422H67.1781C67.0046 62.8422 67.1203 62.6688 67.1203 62.8422V82.9032C67.1203 83.0766 67.0625 83.0766 67.1781 83.0766H70.9359C71.1093 83.0766 71.1093 83.0188 71.1093 82.9032V72.6125C71.1093 72.4391 71.2828 72.0922 71.4562 72.0922H75.4453C75.5609 72.0922 75.7343 72.4391 75.7343 72.6125Z" fill="#BB7043"/>
<path d="M87.4125 83.0766H91.1703C91.3437 83.0766 91.3438 83.0188 91.3438 82.9032V65.4438C91.3438 65.2703 91.5172 65.1547 91.6906 65.1547H95.6219C95.7953 65.1547 95.9688 65.0391 95.9688 64.9235V62.8422C95.9688 62.6688 95.7953 62.8422 95.6219 62.8422H82.9609C82.7875 62.8422 82.6719 62.6688 82.6719 62.8422V64.9235C82.6719 65.0969 82.7875 65.1547 82.9609 65.1547H86.8922C87.0656 65.1547 87.3547 65.3282 87.3547 65.4438V82.9032C87.2969 83.0188 87.2391 83.0766 87.4125 83.0766Z" fill="#BB7043"/>
<path d="M53.9969 83.0766H57.7547C57.9281 83.0766 57.8125 83.0188 57.8125 82.9032V65.4438C57.8125 65.2703 58.1594 65.1547 58.3328 65.1547H62.2641C62.4375 65.1547 62.4375 65.0391 62.4375 64.9235V62.8422C62.4375 62.6688 62.3797 62.8422 62.2641 62.8422H49.5453C49.3719 62.8422 49.1406 62.6688 49.1406 62.8422V64.9235C49.1406 65.0969 49.4297 65.1547 49.5453 65.1547H53.4766C53.65 65.1547 53.7656 65.3282 53.7656 65.4438V82.9032C53.7656 83.0188 53.8813 83.0766 53.9969 83.0766Z" fill="#BB7043"/>
<path d="M100.016 62.7841V77.5263C100.016 81.3419 102.328 83.3075 106.606 83.3075C109.612 83.3075 112.156 80.7638 112.156 77.5263V62.7841C112.156 62.6107 112.156 62.7841 111.983 62.7841H109.902C109.728 62.7841 109.786 62.6107 109.786 62.7841V77.4685C109.786 79.145 108.919 80.5904 107.184 80.5904C105.45 80.5904 104.583 79.145 104.583 77.4685V62.7841C104.583 62.6107 104.294 62.7841 104.178 62.7841H100.42C100.305 62.8419 100.016 62.6685 100.016 62.7841Z" fill="#BB7043"/>
<path d="M33.4734 83.0765H37.1734C37.289 83.0765 37.4047 83.0186 37.4625 82.903L38.1562 79.6655C38.1562 79.5499 38.2718 79.6077 38.4453 79.6077H43.1859C43.3015 79.6077 43.4171 79.5499 43.475 79.6655L44.1687 82.9608C44.1687 83.0765 44.2843 83.0765 44.4578 83.0765H46.5968C46.7703 83.0765 46.8859 82.9608 46.8859 82.7874L42.6656 62.8999C42.6656 62.7843 42.55 62.8421 42.3765 62.8421H37.8093C37.6937 62.8421 37.5781 62.7843 37.5203 62.8999L33.3 82.8452C33.1843 83.0187 33.3 83.0765 33.4734 83.0765ZM39.0234 75.0983L40.6422 66.8312H40.8734L42.4921 75.0983L42.839 76.8327C42.8968 77.0061 42.7234 77.2952 42.55 77.2952H38.9656C38.7922 77.2952 38.6765 77.0061 38.6765 76.8327L39.0234 75.0983Z" fill="#BB7043"/>
<path d="M117.359 83.0766H123.141C126.378 83.0766 129.153 80.4172 129.153 77.1219C129.153 74.5203 127.13 72.3813 125.395 71.5719V71.3407C126.551 70.4735 127.592 69.1438 127.592 67.4672C127.592 64.8657 125.337 62.8422 122.678 62.8422H117.359C117.186 62.8422 117.359 62.6688 117.359 62.8422V82.9032C117.359 83.0188 117.186 83.0766 117.359 83.0766ZM121.406 65.1547H122.042C123.545 65.1547 124.759 66.3688 124.759 68.0453C124.759 69.6641 123.545 70.936 122.042 70.936H121.406V65.1547ZM121.406 73.5953C121.406 73.4219 121.522 73.1907 121.637 73.1907H122.216C124.239 73.1907 125.858 74.9828 125.858 76.9485C125.858 78.9141 124.239 80.7063 122.216 80.7063H121.637C121.464 80.7063 121.406 80.3594 121.406 80.2438V73.5953Z" fill="#BB7043"/>
<path d="M65.7906 32.1438C65.675 32.0281 65.3281 32.0281 65.0968 32.0281C64.3453 32.0281 63.3046 31.9703 62.7843 32.0281C62.3796 32.0859 62.4953 32.4328 62.4953 32.8953C62.4953 33.1844 62.4375 33.5891 62.5531 33.6469C62.7265 33.8781 63.4781 33.5891 63.6515 33.8781C63.7671 34.0516 63.6515 34.5719 63.6515 34.8609C63.6515 37.0578 63.6515 39.0813 63.6515 41.2203C63.6515 41.5094 63.7093 42.0297 63.825 42.2031C63.9984 42.3188 64.4609 42.2609 64.8078 42.2609C65.1546 42.2609 65.675 42.261 65.7906 42.2031C65.964 42.0875 65.964 41.3359 65.964 40.9891C65.964 38.3297 65.964 35.9016 65.964 33.2422C65.9062 33.0688 65.9062 32.3172 65.7906 32.1438Z" fill="#BB7043"/>
<path d="M71.1673 41.7405C71.6877 42.2608 72.497 42.6655 73.5377 42.6655C74.2892 42.6655 74.9252 42.4343 75.3877 42.203C76.3705 41.6249 77.0642 40.6421 76.9486 39.0811C76.8908 38.214 76.5439 37.578 76.0814 37.1155C76.0236 37.0577 75.8502 36.9421 75.8502 36.8265C75.8502 36.7108 75.9658 36.5952 76.0814 36.4796C76.6595 35.728 76.833 34.3983 76.3705 33.3577C75.908 32.3749 74.9252 31.6811 73.422 31.7968C73.0173 31.7968 72.5548 31.9124 72.208 32.0858C71.3986 32.4905 70.8783 33.1265 70.5892 34.0515C70.5314 34.2249 70.4736 34.514 70.5892 34.6874C70.7048 34.8608 71.0517 34.803 71.3986 34.803C71.7455 34.803 72.0923 34.803 72.2658 34.7452C72.4392 34.6874 72.497 34.2827 72.5548 34.1093C72.6705 33.878 72.8439 33.7046 73.0752 33.589C73.3642 33.4155 73.8267 33.4733 74.1158 33.6468C74.347 33.8202 74.6361 34.1671 74.6361 34.5718C74.6939 35.3811 74.347 35.9015 73.7689 36.0749C73.5955 36.1327 73.3064 36.0749 73.1908 36.2483C73.0752 36.364 73.133 36.653 73.133 36.8843C73.133 37.1733 73.0752 37.4046 73.2486 37.5202C73.3642 37.6358 73.6533 37.578 73.8267 37.578C74.1736 37.6358 74.5205 37.8671 74.6939 38.1561C75.272 39.0233 74.9252 40.353 74.1158 40.6999C73.3064 41.1046 72.5548 40.4686 72.3236 40.0061C72.208 39.7749 72.208 39.4858 72.0345 39.3702C71.8611 39.2546 71.3986 39.3124 71.1095 39.3124C70.8205 39.3124 70.358 39.2546 70.2423 39.428C70.1267 39.6015 70.2423 39.8905 70.3002 40.1218C70.4158 40.8733 70.7627 41.278 71.1673 41.7405Z" fill="#BB7043"/>
<path d="M82.6142 31.7968C80.9376 31.9125 79.897 33.0109 79.5502 34.514C79.4923 34.7453 79.4345 35.0343 79.5502 35.2078C79.6658 35.3812 80.1861 35.3234 80.4751 35.3234C80.822 35.3234 81.2845 35.3812 81.458 35.2656C81.5736 35.2078 81.5736 35.0343 81.6314 34.8609C81.747 34.2828 82.0361 33.6468 82.7298 33.589C83.597 33.4734 84.1173 34.3406 84.1751 35.0343C84.233 35.6125 84.0017 36.0172 83.8283 36.4218C83.3658 37.4047 82.672 38.1562 82.0361 38.9656C81.2845 39.9484 80.533 40.8156 79.7814 41.7984C79.6658 41.914 79.5502 42.2031 79.5502 42.3765C79.7236 42.55 80.0126 42.6078 80.3017 42.6078C82.0361 42.6078 83.6548 42.6078 85.447 42.6078C85.7361 42.6078 86.083 42.55 86.1986 42.4343C86.3142 42.3187 86.3142 41.8562 86.3142 41.625C86.3142 41.3359 86.372 41.0468 86.2564 40.9312C86.1408 40.8156 85.7939 40.9312 85.5048 40.9312C84.9267 40.9312 84.4642 40.9312 83.8861 40.9312C83.597 40.9312 83.2501 40.8156 83.1923 40.7C83.1923 40.5265 83.4814 40.1797 83.597 40.064C84.0595 39.5437 84.522 38.9656 84.9267 38.5031C85.5048 37.8093 86.0251 37 86.1986 35.9593C86.4298 34.6875 86.0251 33.7047 85.447 33.0109C84.7533 32.2015 83.8861 31.739 82.6142 31.7968Z" fill="#BB7043"/>
<path d="M24.8594 55.6154C24.8594 56.0201 24.9172 56.6561 25.0906 56.8295C25.2641 56.9451 25.7844 56.8873 26.0734 56.8873C26.3625 56.8873 26.8828 56.9451 26.9984 56.8295C27.1719 56.7139 27.1719 56.367 27.1719 56.0779C27.1719 54.3436 27.1719 52.7826 27.1719 50.9904C27.1719 50.7592 27.1141 50.2967 27.2875 50.2389C27.4031 50.1811 27.5766 50.4701 27.6922 50.5857C29.1375 52.4936 30.525 54.3436 31.9703 56.2514C32.1438 56.4826 32.375 56.9451 32.6641 57.0607C32.9531 57.1764 33.8203 57.1764 33.9938 57.0029C34.1094 56.8295 34.1094 56.1936 34.1094 55.7889C34.1094 53.1295 34.1094 50.5857 34.1094 47.9842C34.1094 47.6373 34.1672 46.9436 33.9938 46.7701C33.8781 46.5967 33.3578 46.6545 33.0109 46.6545C32.7219 46.6545 32.1438 46.5967 31.9703 46.7701C31.9125 46.8279 31.7969 47.2326 31.7969 47.5217C31.7969 48.967 31.7969 50.2389 31.7969 51.6842C31.7969 52.0311 31.9125 52.5514 31.9125 52.8982C31.8547 53.4764 31.6234 53.1295 31.45 52.8982C30.0047 50.9904 28.6172 49.1404 27.2297 47.2326C27.0562 47.0014 26.7672 46.5389 26.4781 46.4232C26.2469 46.3654 25.6109 46.3654 25.4375 46.4232C25.2641 46.4232 25.0906 46.4811 25.0328 46.5389C24.9172 46.7701 24.8594 47.3482 24.8594 47.7529C24.8594 50.4123 24.8594 52.956 24.8594 55.6154Z" fill="#BB7043"/>
<path d="M38.7343 47.9265C38.7343 47.5796 38.8499 46.8858 38.7343 46.7124C38.6187 46.5968 38.2718 46.6546 37.9827 46.6546C37.6359 46.6546 37.3468 46.6546 37.2312 46.6546C36.8843 46.7124 36.9999 46.8858 36.9999 47.2905C36.9999 47.9265 36.9999 48.678 36.9999 49.1983C36.9999 51.3374 36.9999 53.4765 36.9999 55.6155C36.9999 55.9624 36.8265 56.6562 36.9999 56.8296C37.1156 56.9452 37.5781 56.9452 37.8671 56.9452C38.214 56.9452 38.5609 57.003 38.7343 56.8296C38.8499 56.6562 38.7343 56.0202 38.7343 55.6155C38.7343 54.2858 38.7343 53.014 38.7343 51.7999C38.7343 50.5858 38.7343 49.1983 38.7343 47.9265Z" fill="#BB7043"/>
<path d="M47.9264 46.7123C47.7529 46.5388 47.2904 46.5967 47.0014 46.5967C46.7123 46.5967 46.3654 46.5388 46.192 46.7123C46.0186 46.9435 46.2498 47.6373 46.2498 47.9842C46.2498 49.1404 46.2498 50.2388 46.2498 51.3373C46.2498 51.5685 46.1342 51.7998 46.0186 51.9154C45.7873 51.7998 45.6717 51.5685 45.5561 51.3373C44.9779 50.0076 44.3998 48.6779 43.8795 47.2904C43.7639 47.0592 43.7061 46.7701 43.5326 46.6545C43.3592 46.5967 43.0123 46.5967 42.7811 46.5967C42.4342 46.5967 41.8561 46.5388 41.6826 46.7123C41.567 46.9435 41.6248 47.5795 41.6248 47.9842C41.6248 50.5857 41.6248 53.0717 41.6248 55.6154C41.6248 56.0201 41.567 56.656 41.7404 56.8295C41.9139 56.9451 42.3186 56.8873 42.6654 56.8873C43.0123 56.8873 43.5326 56.9451 43.7061 56.8295C43.8217 56.7138 43.9373 56.4248 43.9373 56.1935C43.9373 54.7482 43.9373 53.4185 43.9373 52.0888C43.9373 51.8576 43.7639 51.6263 43.8795 51.4529C44.1107 51.5685 44.1107 51.8576 44.1686 52.0888C44.7467 53.4763 45.267 54.8638 45.8451 56.2513C45.9607 56.4826 46.0186 56.7717 46.192 56.8295C46.4232 56.9451 46.7701 56.8873 47.0592 56.8873C47.3482 56.8873 47.7529 56.9451 47.8686 56.8295C48.042 56.656 47.9264 56.0201 47.9264 55.6154C47.9264 52.956 47.9264 50.4701 47.9264 47.9263C47.9842 47.5795 48.0998 46.8857 47.9264 46.7123Z" fill="#BB7043"/>
<path d="M56.1359 46.7126C55.9624 46.5392 55.153 46.597 54.8062 46.597C53.8234 46.597 52.8405 46.597 51.9155 46.597C51.453 46.597 50.8171 46.5392 50.4702 46.597C50.2968 46.597 50.239 46.6548 50.1812 46.7126C50.0655 46.9439 50.0655 48.1001 50.239 48.2157C50.4124 48.3892 50.8171 48.3314 51.164 48.3314C51.5109 48.3314 51.8577 48.2735 52.0312 48.3892C52.1468 48.5626 52.0312 49.1407 52.0312 49.4876C52.0312 51.6845 52.0312 53.6501 52.0312 55.847C52.0312 56.1939 52.0312 56.6564 52.2046 56.8298C52.378 57.0032 52.8405 56.9454 53.1296 56.9454C53.5343 56.9454 53.9968 57.0032 54.1124 56.8298C54.228 56.7142 54.2859 56.1939 54.2859 55.847C54.2859 53.6501 54.2859 51.6267 54.2859 49.4298C54.2859 49.0829 54.1702 48.6204 54.2859 48.447C54.4593 48.2735 54.864 48.3314 55.2109 48.3314C55.4999 48.3314 55.9624 48.3892 56.1359 48.2157C56.2515 48.1001 56.1937 47.6954 56.1937 47.4642C56.2515 47.2329 56.3093 46.886 56.1359 46.7126Z" fill="#BB7043"/>
<path d="M65.9061 46.7123C65.7326 46.5388 65.3279 46.5967 65.0389 46.5967C64.692 46.5967 64.3451 46.5388 64.1717 46.7123C64.0561 46.8857 64.1717 47.3482 64.1717 47.6373C64.1717 48.3888 64.1717 48.8513 64.1717 49.6607C64.1717 49.9498 64.1717 50.4701 64.0561 50.5857C63.9404 50.7013 63.5357 50.7013 63.1311 50.7013C62.5529 50.7013 61.917 50.7013 61.3389 50.7013C61.0498 50.7013 60.5295 50.7592 60.3561 50.6435C60.1826 50.5279 60.1248 50.0076 60.1248 49.7185C60.1248 48.967 60.1248 48.4467 60.1248 47.6951C60.1248 47.4638 60.2982 46.9435 60.1826 46.7701C60.067 46.6545 59.7779 46.6545 59.4889 46.6545C59.142 46.6545 58.9107 46.6545 58.6795 46.6545C58.3326 46.7123 58.3904 46.8857 58.3904 47.3482C58.3904 50.181 58.3904 52.8982 58.3904 55.6732C58.3904 56.0201 58.3326 56.7138 58.4482 56.8873C58.6217 57.0607 59.0264 57.0029 59.3732 57.0029C59.7201 57.0029 60.0092 57.0607 60.1826 56.8873C60.3561 56.7138 60.1248 56.1357 60.1248 55.8467C60.1248 55.0373 60.1248 54.3435 60.1248 53.5342C60.1248 53.1873 60.1826 52.667 60.3561 52.5513C60.5295 52.4357 61.1076 52.4935 61.3389 52.4935C61.9748 52.4935 62.5529 52.4935 63.1889 52.4935C63.4779 52.4935 63.9404 52.4357 64.0561 52.5513C64.2295 52.7248 64.1717 53.1873 64.1717 53.5342C64.1717 54.2857 64.1717 55.0373 64.1717 55.8467C64.1717 56.1935 64.0561 56.7717 64.2295 56.8873C64.3451 57.0607 64.7498 57.0029 65.0967 57.0029C65.4436 57.0029 65.7326 57.0607 65.9061 56.9451C66.1373 56.8295 65.9061 56.1357 65.9061 55.731C65.9061 53.0717 65.9061 50.6435 65.9061 47.9842C65.9061 47.6373 66.0795 46.8857 65.9061 46.7123Z" fill="#BB7043"/>
<path d="M82.5563 56.0783C81.9781 54.5174 81.4578 53.0721 80.8797 51.5111C80.2438 49.8346 79.7813 48.6205 79.2031 46.9439C79.0875 46.7127 79.0297 46.4814 78.9141 46.3658C78.6828 46.2502 77.9313 46.2502 77.7 46.308C77.3531 46.3658 77.2953 46.5971 77.1797 46.9439C76.0235 49.9502 74.8672 53.0142 73.711 56.0205C73.6531 56.2517 73.4797 56.5408 73.5375 56.7142C73.5953 56.9455 74.0578 56.8299 74.4047 56.8299C74.8094 56.8299 75.1563 56.8877 75.3875 56.7721C75.5609 56.7142 75.6766 56.483 75.7344 56.2517C75.9078 55.8471 76.0235 55.5002 76.1969 55.1533C76.2547 54.9799 76.3125 54.7486 76.486 54.6908C76.7172 54.633 77.0063 54.633 77.2953 54.633C77.8735 54.633 78.3938 54.633 78.9719 54.633C79.261 54.633 79.6078 54.633 79.7813 54.6908C79.9547 54.7486 80.0125 54.9799 80.0703 55.1533C80.1281 55.3267 80.1859 55.558 80.3016 55.7314C80.4172 56.0205 80.5906 56.6564 80.7641 56.7721C80.9375 56.8877 81.4 56.8299 81.8047 56.8299C82.1516 56.8299 82.6141 56.8877 82.7297 56.7142C82.7875 56.5986 82.6141 56.3096 82.5563 56.0783ZM79.2031 53.0142C79.0875 53.1877 78.3938 53.1299 78.1047 53.1299C77.7578 53.1299 77.1219 53.1877 77.0641 52.9564C77.0063 52.7252 77.1797 52.3205 77.2375 52.0892C77.411 51.5111 77.5844 51.0486 77.7 50.5283C77.7578 50.3549 77.8156 49.7767 78.0469 49.7767C78.2781 49.7189 78.3938 50.3549 78.4516 50.5283C78.6828 51.1064 78.7985 51.6267 79.0297 52.2049C79.0875 52.3783 79.3188 52.783 79.2031 53.0142Z" fill="#BB7043"/>
<path d="M87.0076 56.8298C87.1811 56.8876 87.5279 56.8876 87.7592 56.8876C87.9904 56.8876 88.3373 56.8876 88.5107 56.8298C88.6264 56.772 88.6842 56.4829 88.742 56.2517C89.5514 53.3032 90.3607 50.3548 91.1701 47.4642C91.2279 47.2907 91.3436 46.9438 91.2857 46.7704C91.2279 46.5392 90.7076 46.597 90.3607 46.597C89.9561 46.597 89.4936 46.5392 89.3201 46.6548C89.1467 46.7704 89.0889 47.0595 89.0311 47.3485C88.9732 47.6376 88.9154 47.9267 88.8576 48.1001C88.5686 49.372 88.1639 50.586 87.8748 51.9157C87.817 52.147 87.817 52.436 87.6436 52.6095C87.4701 52.436 87.4701 52.147 87.4123 51.9157C87.0076 50.4126 86.6607 48.9095 86.2561 47.3485C86.1982 47.1173 86.1404 46.7704 85.967 46.6548C85.7936 46.5392 85.4467 46.597 85.1576 46.597C84.8686 46.597 84.5795 46.597 84.2326 46.597C83.7701 46.6548 84.0014 47.0595 84.0592 47.4063C84.8686 50.2392 85.6201 52.8407 86.4295 55.6157C86.6029 55.9626 86.7186 56.7142 87.0076 56.8298Z" fill="#BB7043"/>
<path d="M97.6455 55.0954C97.4142 54.8064 96.0845 55.1532 95.7377 54.922C95.5642 54.8063 95.622 54.1126 95.622 53.8235C95.622 53.5345 95.5642 52.8985 95.7377 52.7829C96.0267 52.5517 97.1252 52.8407 97.3564 52.6095C97.472 52.4938 97.472 52.0313 97.472 51.7423C97.472 51.511 97.5298 51.0485 97.4142 50.8751C97.183 50.6438 96.0267 50.9329 95.7955 50.7017C95.622 50.5282 95.6798 50.0079 95.6798 49.7188C95.6798 49.3142 95.622 48.9095 95.7377 48.6782C95.8533 48.5048 96.3736 48.5626 96.7205 48.5626C97.0673 48.5626 97.472 48.6204 97.6455 48.5048C97.7611 48.3314 97.7033 47.9267 97.7033 47.6376C97.7033 47.3485 97.7611 46.886 97.6455 46.7704C97.5298 46.6548 97.1252 46.6548 96.7783 46.6548C96.4892 46.6548 96.1423 46.6548 95.8533 46.6548C95.2173 46.6548 94.408 46.6548 93.9455 46.7126C93.8298 46.7126 93.772 46.7126 93.7142 46.8282C93.5986 47.0017 93.6564 47.6954 93.6564 48.0423C93.6564 49.4298 93.6564 50.4704 93.6564 51.8579C93.6564 53.2454 93.6564 54.3439 93.6564 55.7313C93.6564 56.136 93.5408 56.8298 93.7142 56.9454C93.8298 57.061 94.3502 57.061 94.6392 57.061C95.3908 57.061 95.9111 57.061 96.6627 57.061C96.9517 57.061 97.472 57.061 97.5877 56.8876C97.7033 56.772 97.6455 56.3095 97.6455 56.0204C97.6455 55.7313 97.7611 55.2689 97.6455 55.0954Z" fill="#BB7043"/>
<path d="M104.178 51.3375C103.6 50.0078 103.08 48.6781 102.502 47.2906C102.386 47.0594 102.328 46.7703 102.155 46.6547C101.981 46.5968 101.692 46.5968 101.403 46.5968C101.056 46.5968 100.652 46.539 100.478 46.7125C100.305 46.8859 100.536 47.5797 100.536 47.9265C100.536 50.5281 100.536 53.014 100.536 55.5578C100.536 55.9625 100.305 56.5984 100.478 56.7718C100.652 56.8875 100.998 56.8297 101.345 56.8297C101.692 56.8297 102.039 56.8875 102.212 56.7718C102.328 56.6562 102.27 56.3672 102.27 56.1359C102.27 54.6906 102.27 53.3609 102.27 52.0312C102.27 51.8 102.212 51.5687 102.386 51.3953C102.617 51.5109 102.675 51.8 102.733 52.0312C103.311 53.4187 103.889 54.8062 104.467 56.1937C104.583 56.425 104.641 56.714 104.814 56.7718C105.045 56.8875 105.392 56.8297 105.681 56.8297C105.97 56.8297 106.491 56.8875 106.664 56.7718C106.837 56.5984 106.895 55.9625 106.895 55.5578C106.895 52.8984 106.895 50.4125 106.895 47.8687C106.895 47.5219 106.837 46.8281 106.664 46.6547C106.491 46.4812 105.97 46.539 105.681 46.539C105.392 46.539 104.872 46.4812 104.698 46.6547C104.525 46.8281 104.583 47.5219 104.583 47.8687C104.583 49.025 104.583 50.1234 104.583 51.2218C104.583 51.4531 104.583 51.6843 104.525 51.8C104.352 51.8 104.294 51.5687 104.178 51.3375Z" fill="#BB7043"/>
<path d="M114.469 46.6545C114.179 46.6545 113.601 46.5967 113.486 46.7701C113.312 46.9436 113.312 47.4061 113.312 47.6951C113.312 49.4873 113.312 51.1061 113.312 52.8404C113.312 53.4764 113.486 54.3436 113.254 54.7482C113.081 55.0951 112.734 55.3264 112.156 55.1529C111.404 54.9217 111.578 53.7654 111.578 52.8404C111.578 51.1061 111.578 49.4295 111.578 47.6951C111.578 47.4061 111.578 46.9436 111.462 46.7123C111.347 46.5967 110.942 46.5967 110.653 46.5967C110.364 46.5967 109.901 46.5967 109.728 46.5967C109.323 46.6545 109.323 47.0592 109.323 47.4639C109.323 49.3717 109.323 51.5686 109.323 53.3607C109.323 53.9967 109.381 54.517 109.497 54.9217C109.728 56.3092 110.826 57.0029 112.503 57.0029C113.601 57.0029 114.526 56.7139 115.047 56.1357C115.625 55.442 115.683 54.5748 115.683 53.3029C115.683 51.3373 115.683 49.4295 115.683 47.4061C115.683 47.1748 115.683 46.7701 115.509 46.6545C115.336 46.5967 114.815 46.6545 114.469 46.6545Z" fill="#BB7043"/>
<path d="M118.516 51.7998C118.516 53.1873 118.516 54.2857 118.516 55.6732C118.516 56.0779 118.342 56.7717 118.516 56.8873C118.631 57.0029 119.036 57.0029 119.325 57.0029C120.076 57.0029 120.597 57.0029 121.348 57.0029C121.637 57.0029 122.158 57.0029 122.273 56.8295C122.389 56.7139 122.331 56.2514 122.331 55.9623C122.331 55.6732 122.389 55.2107 122.273 55.0373C122.042 54.7482 120.712 55.0951 120.366 54.8639C120.192 54.7482 120.25 54.0545 120.25 53.7654C120.25 53.4764 120.192 52.8404 120.366 52.7248C120.655 52.4936 121.753 52.7826 121.984 52.5514C122.1 52.4357 122.1 51.9732 122.1 51.6842C122.1 51.4529 122.158 50.9904 122.042 50.817C121.811 50.5857 120.655 50.8748 120.423 50.6436C120.25 50.4701 120.308 49.9498 120.308 49.6607C120.308 49.2561 120.25 48.8514 120.366 48.6201C120.481 48.4467 121.001 48.5045 121.348 48.5045C121.695 48.5045 122.1 48.5623 122.273 48.4467C122.389 48.2732 122.331 47.8686 122.331 47.5795C122.331 47.2904 122.389 46.8279 122.273 46.7123C122.158 46.5967 121.753 46.5967 121.406 46.5967C121.059 46.5967 120.77 46.5967 120.481 46.5967C119.845 46.5967 119.036 46.5967 118.573 46.6545C118.458 46.6545 118.516 46.6545 118.458 46.7701C118.342 46.9436 118.516 47.6373 118.516 47.9842C118.516 49.3717 118.516 50.4123 118.516 51.7998Z" fill="#BB7043"/>
<path d="M101.023 98.6714L103.64 101.288L106.256 98.6714L103.64 96.0552L101.023 98.6714Z" fill="#BB7043"/>
<path d="M46.7237 98.6621L44.1074 96.0459L41.4911 98.6621L44.1074 101.278L46.7237 98.6621Z" fill="#BB7043"/>
<path d="M39.8327 38.9656C40.064 39.3125 40.4687 39.8328 40.6421 39.8328C40.8733 39.8328 41.1624 39.5437 41.3937 39.3703C41.6249 39.1969 42.0296 38.9656 42.0296 38.7344C42.0874 38.5609 41.8562 38.3297 41.6249 38.0406C40.5265 36.6531 39.6015 35.439 38.503 34.0515C38.3296 33.8203 38.0405 33.5312 38.1562 33.4156C38.214 33.3 38.503 33.3578 38.6765 33.4156C40.989 33.9937 43.2437 34.6297 45.5562 35.2078C45.8452 35.2656 46.3077 35.4969 46.5968 35.3812C46.8858 35.2656 47.5218 34.7453 47.5796 34.514C47.5796 34.2828 47.1171 33.8203 46.8858 33.5312C45.2671 31.45 43.6483 29.4265 42.0874 27.4031C41.8562 27.114 41.5093 26.5359 41.278 26.4781C41.0468 26.4203 40.6999 26.7672 40.4687 26.9406C40.2374 27.114 39.8327 27.3453 39.8327 27.5765C39.8327 27.75 40.064 28.039 40.2374 28.2703C41.1046 29.3687 41.914 30.4094 42.7812 31.5078C43.0124 31.7969 43.3015 32.1437 43.5327 32.4906C43.8218 32.9531 43.4171 32.8953 43.0702 32.7797C40.7577 32.2015 38.503 31.5656 36.2483 30.9297C35.9593 30.8719 35.439 30.6406 35.2077 30.7562C34.9765 30.814 34.514 31.2765 34.3983 31.3922C34.2827 31.5078 34.2827 31.5656 34.2827 31.6812C34.2827 31.9125 34.7452 32.375 34.9765 32.7219C36.5952 34.8609 38.1562 36.8844 39.8327 38.9656Z" fill="#BB7043"/>
<path d="M49.1982 32.2016C49.3716 32.6063 49.6029 33.1844 49.8341 33.2422C50.0654 33.3 50.7013 32.8954 50.9904 32.7797C51.7998 32.375 52.5513 31.9704 53.3607 31.5657C53.7076 31.3922 54.2857 31.161 54.4591 30.9297C54.5169 30.7563 54.3435 30.4672 54.1701 30.1782C54.0544 29.9469 53.9388 29.6 53.7076 29.5422C53.5341 29.4844 53.3029 29.6579 53.0138 29.7735C52.4935 30.0625 52.0888 30.236 51.5107 30.525C51.2794 30.6407 50.9904 30.8141 50.8169 30.7563C50.5857 30.6985 50.2966 29.9469 50.1232 29.6579C49.9498 29.311 49.5451 28.7329 49.6607 28.5016C49.7185 28.3282 50.0076 28.2125 50.2966 28.0969C50.7591 27.8657 51.2794 27.5766 51.6841 27.4032C51.9154 27.2875 52.2044 27.1719 52.2623 26.9985C52.3201 26.7672 51.7419 25.6688 51.5685 25.611C51.3951 25.5532 51.1638 25.7266 50.9326 25.8422C50.4123 26.0735 50.0654 26.3047 49.4873 26.536C49.256 26.6516 48.9669 26.825 48.7935 26.7672C48.5623 26.7094 48.3888 26.1313 48.2154 25.9C48.0419 25.5532 47.7529 25.1485 47.8685 24.975C47.9263 24.8016 48.2154 24.686 48.4466 24.5704C48.9669 24.2813 49.4294 24.1079 49.8919 23.8188C50.1232 23.7032 50.4701 23.5875 50.5279 23.4141C50.5857 23.2407 50.4123 22.8938 50.2966 22.6625C50.181 22.4313 50.0654 22.0844 49.8919 22.0266C49.7763 21.9688 49.5451 22.0844 49.3716 22.2C48.4466 22.6625 47.5216 23.125 46.5966 23.5875C46.1919 23.761 45.7294 23.9922 45.4982 24.1657C45.0935 24.3969 45.6138 25.0329 45.7873 25.4375C46.9435 27.6344 48.0419 29.8313 49.1982 32.2016Z" fill="#BB7043"/>
<path d="M58.5063 28.906C58.6219 29.1373 58.7375 29.3685 58.911 29.3685C59.1422 29.4263 60.0672 29.1951 60.1829 29.0216C60.2985 28.906 60.2985 28.5013 60.2985 28.2701C60.3563 26.5357 60.4141 24.9748 60.5297 23.2404C60.5297 23.0091 60.4719 22.5466 60.7032 22.4888C60.8766 22.4888 61.1079 22.9513 61.1657 23.1248C62.0907 24.6279 62.8422 25.9576 63.7672 27.4607C63.9407 27.692 64.0563 28.0388 64.2297 28.0966C64.461 28.1545 65.3282 27.9232 65.5016 27.8076C65.6172 27.692 65.6172 27.4029 65.675 27.1716C65.9641 23.992 66.1954 20.8123 66.4266 17.6904C66.4266 17.4591 66.4844 17.1123 66.4266 16.9966C66.311 16.8232 65.9641 16.9388 65.5016 17.0545C65.1547 17.1123 64.75 17.1701 64.5188 17.3435C64.4032 17.4591 64.4032 17.8638 64.4032 18.1529C64.3454 19.9451 64.2875 21.6216 64.1719 23.4138C64.1719 23.5873 64.1719 24.1654 63.9985 24.1654C63.825 24.1654 63.5938 23.7029 63.4782 23.5295C62.5532 21.9685 61.686 20.4654 60.761 18.9045C60.5875 18.6154 60.4719 18.2685 60.2407 18.2107C60.0672 18.1529 59.6047 18.2685 59.4313 18.3841C59.0266 18.5576 59.1422 19.0201 59.0844 19.367C59.0266 21.1591 58.9688 22.8357 58.8532 24.6857C58.8532 24.917 58.8532 25.4373 58.6797 25.4951C58.5063 25.5529 58.275 25.0326 58.1594 24.8591C57.2344 23.2982 56.425 21.8529 55.5 20.3498C55.3844 20.1185 55.211 19.7716 54.9797 19.7138C54.8063 19.656 54.3438 19.7716 53.9969 19.8873C53.65 20.0029 53.1875 20.0029 53.1297 20.2341C53.0719 20.4076 53.3032 20.6966 53.4188 20.8701C55.211 23.4716 56.8297 26.1888 58.5063 28.906Z" fill="#BB7043"/>
<path d="M78.2201 21.7954C78.3357 22.0845 78.5091 22.3735 78.5091 22.7204C78.5091 23.4142 78.3357 24.1657 78.2779 24.9173C78.2201 25.2642 78.2201 25.6688 78.1623 26.0157C78.1044 26.3626 78.0466 26.8829 78.1044 27.0563C78.2201 27.2298 78.6826 27.2298 79.0294 27.2876C79.3763 27.3454 79.781 27.4032 79.9544 27.2876C80.1279 27.172 80.1279 26.536 80.1857 26.247C80.3013 25.3798 80.3591 24.7438 80.4169 23.8767C80.4748 23.472 80.4747 23.0095 80.5904 22.7204C80.6482 22.4892 80.8794 22.2579 81.0529 22.0845C81.9779 20.8126 82.9029 19.5985 83.8279 18.3267C83.9435 18.1532 84.2904 17.8642 84.2326 17.6329C84.1747 17.4017 83.5388 17.4017 83.2497 17.4017C82.9029 17.3438 82.4404 17.2282 82.1513 17.3438C81.9201 17.4017 81.6888 17.8063 81.5154 18.0954C81.0529 18.7892 80.6482 19.4251 80.1279 20.061C80.0701 20.1767 79.9544 20.4079 79.781 20.3501C79.5498 20.2923 79.4341 19.772 79.3763 19.5407C79.1451 18.9048 78.9138 18.3845 78.6826 17.7485C78.5669 17.5173 78.4513 17.0548 78.2779 16.8813C78.1044 16.7657 77.6997 16.7657 77.4107 16.7079C77.0638 16.6501 76.7169 16.5923 76.4857 16.5923C76.0232 16.6501 76.3701 17.2282 76.4857 17.4595C76.9482 18.9626 77.5841 20.3501 78.2201 21.7954Z" fill="#BB7043"/>
<path d="M89.2624 29.889C90.8234 30.3515 92.1531 30.0046 93.1359 29.3687C94.1765 28.7327 95.1015 27.6343 95.564 25.9577C95.9687 24.3968 95.8531 23.0093 95.2749 21.9687C94.7546 20.8702 93.714 19.8874 92.0374 19.4249C91.6906 19.3093 91.2281 19.2515 90.8812 19.2515C89.8406 19.1937 88.8577 19.4827 88.1062 19.9452C87.1234 20.5812 86.1406 21.7374 85.6781 23.3562C85.2734 24.9171 85.389 26.2468 85.9671 27.3452C86.6031 28.3858 87.6437 29.4265 89.2624 29.889ZM87.8171 23.8187C88.2218 22.3155 89.2624 21.5062 90.3031 21.2749C90.7077 21.2171 91.1703 21.2171 91.6328 21.3327C92.5578 21.564 93.1937 22.2577 93.4828 22.9515C93.7718 23.5874 93.8296 24.5124 93.5984 25.4374C93.3093 26.4202 92.7312 27.114 92.1531 27.5765C91.5171 28.039 90.7078 28.2124 89.7828 27.9812C87.8171 27.3452 87.3546 25.6687 87.8171 23.8187Z" fill="#BB7043"/>
<path d="M96.4312 32.6641C96.7203 32.8375 97.0671 33.1266 97.2406 33.0688C97.414 33.011 97.5874 32.6641 97.7609 32.375C98.1078 31.7391 98.3968 31.3344 98.7437 30.6984C98.8593 30.4672 99.0906 30.0047 99.264 30.0047C99.3796 30.0625 99.3796 30.4094 99.3796 30.525C99.3796 31.5078 99.3796 32.375 99.3796 33.3C99.3796 33.5891 99.3218 34.1672 99.4953 34.3984C99.6109 34.5719 100.073 34.8031 100.42 35.0344C100.709 35.2078 101.23 35.6125 101.403 35.4391C101.519 35.3234 101.461 35.0344 101.461 34.8609C101.403 33.5891 101.287 32.4906 101.23 31.2766C101.23 31.1031 101.172 30.8141 101.287 30.6406C101.403 30.525 101.75 30.5828 101.923 30.5828C102.906 30.6406 104.005 30.0047 104.583 28.7906C105.276 27.3453 104.987 26.1313 103.889 25.2063C103.542 24.9172 103.022 24.6281 102.502 24.2813C101.981 23.9922 101.461 23.5875 100.998 23.4141C100.709 23.2985 100.594 23.4141 100.362 23.8188C99.5531 25.2063 98.9171 26.2469 98.1078 27.6922C97.414 28.9063 96.8359 29.8313 96.1421 30.9875C95.9687 31.2766 95.564 31.8547 95.6218 32.0281C95.7953 32.3172 96.1421 32.4906 96.4312 32.6641ZM100.941 27.1141C101.056 26.8828 101.23 26.6516 101.345 26.4781C101.577 26.1313 101.692 25.7844 102.039 25.9578C102.502 26.1891 102.964 26.7094 103.08 27.0563C103.253 27.8078 102.444 28.9063 101.75 28.9641C101.519 28.9641 101.287 28.9063 101.056 28.8485C100.825 28.7328 100.42 28.675 100.362 28.4438C100.189 28.0969 100.709 27.4031 100.941 27.1141Z" fill="#BB7043"/>
<path d="M103.08 36.7109C103.08 36.9422 103.484 37.1734 103.716 37.4047C104.005 37.6359 104.236 37.925 104.467 37.925C104.698 37.925 104.987 37.4625 105.219 37.2312C105.739 36.6531 106.144 36.1906 106.664 35.5547C106.837 35.3234 107.242 34.8031 107.416 34.9187C107.531 34.9766 107.473 35.3812 107.473 35.5547C107.358 36.8844 107.184 38.2141 107.069 39.5437C107.069 39.775 107.011 40.0062 107.126 40.2375C107.242 40.5266 107.647 40.8156 107.994 41.1047C108.283 41.3359 108.687 41.8562 108.919 41.6828C109.034 41.625 109.034 41.4516 109.034 41.2781C109.208 39.4859 109.323 37.7516 109.497 35.9594C109.497 35.7281 109.497 35.3234 109.67 35.15C109.786 35.0344 110.133 34.9766 110.364 34.9766C111.809 34.7453 113.139 34.5141 114.642 34.2828C114.758 34.2828 115.278 34.2828 115.336 34.0516C115.451 33.8781 114.931 33.4734 114.642 33.3C114.353 33.0687 114.006 32.7219 113.775 32.6063C113.601 32.5484 113.37 32.6062 113.139 32.6641C111.867 32.9531 110.711 33.2422 109.439 33.4734C109.266 33.5312 108.919 33.5891 108.803 33.4734C108.687 33.3 109.092 32.9531 109.323 32.7219C109.786 32.2016 110.248 31.6813 110.653 31.1609C110.884 30.8719 111.173 30.5828 111.231 30.4094C111.231 30.2359 110.942 30.0047 110.711 29.8312C110.48 29.6 110.191 29.3688 110.075 29.3109C110.017 29.2531 109.901 29.1953 109.786 29.1953C109.555 29.2531 109.15 29.7734 108.919 30.0625C107.184 32.0281 105.508 33.8781 103.831 35.8437C103.542 36.075 103.08 36.5375 103.08 36.7109Z" fill="#BB7043"/>
<path d="M41.7405 130.425C41.4514 130.309 41.3358 130.598 41.2202 130.829C41.1045 131.003 41.0467 131.176 40.9311 131.35C40.8155 131.581 40.353 132.217 40.4686 132.39C40.5264 132.564 40.8155 132.622 41.0467 132.737C41.2202 132.795 41.4514 132.853 41.6248 132.795C42.203 132.737 42.7811 131.87 42.6655 131.234C42.492 131.003 42.0873 130.598 41.7405 130.425Z" fill="#BB7043"/>
<path d="M74 0C33.1266 0 0 33.1266 0 74C0 114.873 33.1266 148 74 148C114.873 148 148 114.873 148 74C148 33.1266 114.873 0 74 0ZM145.63 67.5828C145.688 67.6406 145.745 67.6984 145.745 67.8141C145.803 68.1031 145.803 68.6234 145.803 68.9703C145.861 69.7219 145.861 70.4734 145.919 71.2828C145.919 71.5719 146.034 72.2078 145.919 72.3812C145.803 72.4969 145.514 72.4969 145.283 72.4969C145.052 72.4969 144.762 72.5547 144.647 72.4391C144.531 72.3234 144.531 71.9187 144.531 71.6875C144.531 71.4563 144.531 71.0516 144.416 70.9359C144.3 70.8203 143.895 70.8781 143.606 70.8781C141.872 70.9938 140.253 71.0516 138.519 71.1672C138.23 71.1672 137.883 71.225 137.767 71.1094C137.652 70.9938 137.652 70.7047 137.652 70.3578C137.652 70.0687 137.594 69.7219 137.709 69.6063C137.825 69.4906 138.23 69.4906 138.461 69.4906C140.195 69.375 141.814 69.3172 143.548 69.2016C143.838 69.2016 144.242 69.2016 144.358 69.0859C144.473 68.9125 144.416 68.6234 144.358 68.3344C144.358 68.0453 144.3 67.6984 144.416 67.5828C144.531 67.5828 145.456 67.525 145.63 67.5828ZM141.872 60.0094C142.681 59.7203 143.433 59.8937 143.953 60.125C144.184 60.2406 144.416 60.4141 144.647 60.7031C144.878 60.9344 144.994 61.2812 145.109 61.6859C145.283 62.3797 145.109 63.1312 144.936 63.6516C144.878 63.825 144.762 64.0563 144.589 64.1141C144.416 64.1719 144.184 63.9984 144.011 63.9406C143.895 63.8828 143.548 63.825 143.491 63.6516C143.433 63.4781 143.664 63.3047 143.722 63.0734C143.78 62.9 143.838 62.4953 143.722 62.2062C143.606 61.8594 143.375 61.6281 143.086 61.5703C142.913 61.5125 142.681 61.5125 142.45 61.6281C141.988 61.8594 141.93 62.4375 141.814 62.9C141.583 63.9406 141.294 64.8656 140.137 65.2125C138.923 65.6172 137.767 65.2703 137.131 64.5766C136.784 64.2297 136.553 63.7094 136.438 63.0734C136.264 62.1484 136.611 61.4547 137.016 60.8766C137.131 60.7609 137.363 60.4141 137.536 60.4141C137.767 60.4141 137.941 60.5875 138.114 60.7031C138.172 60.7609 138.288 60.8188 138.345 60.8766C138.403 60.9344 138.577 60.9922 138.577 61.1078C138.577 61.2234 138.403 61.3391 138.345 61.4547C138.056 61.7438 137.825 62.1484 137.825 62.5531C137.825 63.3047 138.403 63.7094 139.039 63.6516C139.906 63.5938 140.08 62.8422 140.195 62.2062C140.6 61.3969 140.831 60.4141 141.872 60.0094ZM139.559 46.8281C139.617 46.9437 139.675 47.1172 139.733 47.2906C139.791 47.4062 139.906 47.6375 139.848 47.6953C139.791 47.8109 139.502 47.8688 139.328 47.9266C138.923 48.1 138.577 48.2156 138.172 48.3312C137.998 48.3891 137.709 48.5047 137.652 48.6203C137.594 48.7359 137.709 48.9672 137.767 49.0828C137.883 49.4297 137.998 49.7766 138.172 50.0656C138.23 50.2969 138.287 50.4703 138.403 50.5281C138.519 50.5859 138.75 50.4703 138.923 50.3547C139.386 50.1812 139.617 50.0656 140.08 49.95C140.253 49.8922 140.484 49.7766 140.6 49.8344C140.716 49.8922 140.773 50.1234 140.831 50.3547C140.889 50.5281 141.005 50.7594 140.947 50.875C140.889 51.0484 140.484 51.1063 140.311 51.1641C138.808 51.7422 137.478 52.2625 135.975 52.8406C135.744 52.8984 135.397 53.1297 135.281 53.0141C135.166 52.9562 135.108 52.725 135.05 52.5516C134.992 52.3203 134.877 52.1469 134.934 52.0312C134.992 51.9156 135.339 51.8 135.512 51.7422C135.917 51.5687 136.38 51.3953 136.784 51.2797C136.958 51.2219 137.305 51.1062 137.363 50.9906C137.42 50.875 137.305 50.6437 137.247 50.5281C137.131 50.1813 137.016 49.8922 136.842 49.4875C136.784 49.3719 136.727 49.0828 136.611 49.025C136.495 48.9672 136.206 49.0828 135.975 49.1984C135.512 49.3719 135.108 49.5453 134.703 49.7188C134.53 49.7766 134.241 49.95 134.067 49.8922C133.952 49.8344 133.894 49.6031 133.836 49.3719C133.778 49.1984 133.663 48.9672 133.72 48.8516C133.778 48.7359 134.183 48.6203 134.356 48.5625C135.917 47.9844 137.42 47.4062 139.039 46.7703C139.386 46.7125 139.502 46.6547 139.559 46.8281ZM136.148 41.9719C136.033 41.7984 135.917 41.5672 135.975 41.4516C136.033 41.3359 136.611 40.9891 136.784 41.0469C136.842 41.0469 136.9 41.1047 136.958 41.1625C137.073 41.3359 137.247 41.6828 137.363 41.9719C137.594 42.4922 137.883 43.0125 138.114 43.5328C138.23 43.7641 138.461 44.1688 138.403 44.2844C138.345 44.4 138.172 44.4578 137.998 44.5734C137.825 44.6312 137.652 44.7469 137.536 44.7469C137.42 44.6891 137.305 44.4 137.247 44.2844C137.189 44.1109 137.073 43.8219 136.958 43.8219C136.842 43.7641 136.611 43.9375 136.38 44.0531C135.223 44.6312 134.125 45.1516 132.911 45.7297C132.738 45.8453 132.448 45.9609 132.391 45.9609C132.275 45.9031 132.217 45.7297 132.102 45.4984C131.986 45.325 131.87 45.0938 131.928 44.9781C131.986 44.8625 132.217 44.7469 132.448 44.6891C133.605 44.1109 134.703 43.5906 135.859 43.0125C136.033 42.8969 136.322 42.7812 136.38 42.6656C136.38 42.3766 136.264 42.2031 136.148 41.9719ZM130.83 34.3406C131.639 33.8203 132.333 33.7625 132.969 33.8203C133.258 33.8781 133.605 33.9937 133.894 34.1672C134.183 34.3406 134.53 34.6297 134.761 34.9766C135.455 35.9016 135.512 36.9422 135.166 37.8094C134.992 38.2141 134.703 38.6188 134.241 38.9656C133.836 39.3125 133.258 39.4859 132.738 39.6016C131.812 39.775 130.945 39.7172 130.02 39.7172C129.384 39.7172 128.691 39.6594 127.997 39.6594C127.823 39.6594 127.419 39.6594 127.361 39.5438C127.303 39.4281 127.303 39.3125 127.303 39.1969C127.303 39.0813 127.303 38.9656 127.303 38.85C127.303 38.6766 127.245 38.3297 127.419 38.2141C127.534 38.0984 127.939 38.1562 128.055 38.1562C128.633 38.1562 129.095 38.2141 129.673 38.2719C129.789 38.2719 129.962 38.2719 130.02 38.2141C130.078 38.1562 129.962 37.9828 129.905 37.925C129.384 37.2313 129.384 36.5953 129.5 36.0172C129.673 35.4969 130.078 34.8609 130.83 34.3406ZM123.198 32.2016C124.528 31.1031 125.8 30.0625 127.13 28.9062C127.303 28.7328 127.65 28.5016 127.708 28.3281C127.766 28.0969 127.188 27.6922 127.245 27.4609C127.245 27.3453 127.477 27.1719 127.708 26.9984C127.997 26.7672 128.17 26.5359 128.402 26.7094C128.748 26.9984 129.211 27.6922 129.616 28.0969C129.731 28.2703 129.905 28.4438 129.905 28.5594C129.905 28.7328 129.384 29.0797 129.211 29.2531C127.592 30.5828 126.089 31.8547 124.47 33.1844C124.239 33.3578 123.834 33.7625 123.719 33.7625C123.603 33.7625 123.372 33.4734 123.198 33.2422C123.025 33.0687 122.794 32.7797 122.794 32.6641C122.678 32.6063 123.025 32.375 123.198 32.2016ZM115.856 15.3781C116.203 15.5516 116.55 15.8984 116.897 16.1875C117.244 16.4766 117.591 16.7078 117.88 16.9969C118.458 17.5172 118.747 18.1531 118.92 18.6734C119.209 19.7719 119.094 21.1594 118.053 22.4312C117.012 23.6453 115.798 24.1078 114.584 23.9922C114.006 23.9344 113.312 23.7609 112.677 23.2984C112.156 22.9516 111.694 22.5469 111.173 22.1422C111 22.0266 110.827 21.8531 110.769 21.7375C110.769 21.5641 111.116 21.1594 111.289 20.9281C112.677 19.1359 113.948 17.4594 115.336 15.6672C115.509 15.4359 115.625 15.2047 115.856 15.3781ZM104.178 16.5344C105.219 14.7422 106.202 13.0078 107.242 11.2156C107.416 10.9844 107.589 10.4641 107.762 10.4062C107.936 10.3484 108.283 10.5797 108.572 10.7531C108.745 10.8688 108.977 10.9844 109.092 11.1C109.15 11.2156 109.092 11.4469 109.092 11.6781C108.919 12.8344 108.745 13.9906 108.63 15.1469C108.63 15.3203 108.572 15.5516 108.688 15.725C108.803 15.6672 108.919 15.4938 108.977 15.3781C109.439 14.6266 109.844 13.875 110.306 13.0656C110.422 12.8344 110.653 12.3141 110.884 12.2563C111.058 12.1984 111.347 12.4297 111.578 12.5453C111.809 12.6609 112.156 12.8344 112.214 13.0078C112.272 13.1812 111.925 13.6438 111.809 13.875C110.769 15.6672 109.786 17.4016 108.688 19.1938C108.514 19.425 108.341 19.9453 108.167 20.0031C107.994 20.0609 107.762 19.8297 107.531 19.7141C107.3 19.5984 107.011 19.4828 106.953 19.3094C106.838 19.1938 106.895 18.9625 106.953 18.7313C107.127 17.5172 107.3 16.3609 107.473 15.1469C107.531 14.9734 107.589 14.7422 107.473 14.5688C107.3 14.6266 107.242 14.8 107.184 14.9734C106.606 15.8984 106.086 16.8234 105.508 17.8062C105.392 17.9797 105.334 18.2109 105.219 18.2109C105.045 18.2109 104.814 18.0375 104.525 17.8641C104.294 17.7484 103.947 17.575 103.889 17.4594C103.716 17.2281 104.005 16.8234 104.178 16.5344ZM96.4891 13.5859C97.9344 11.6781 99.3797 9.65469 100.767 7.74687C100.941 7.51562 100.998 7.28438 101.287 7.4C101.461 7.45781 101.75 7.57344 101.981 7.68906C102.212 7.80469 102.502 7.8625 102.559 7.97813C102.675 8.15156 102.559 8.67188 102.502 9.01875C102.097 11.2734 101.75 13.4703 101.403 15.725C101.403 15.8984 101.345 16.1297 101.23 16.1875C101.056 16.3031 100.767 16.0719 100.536 15.9563C100.247 15.8406 99.9 15.725 99.7844 15.6094C99.7266 15.4937 99.7844 15.2047 99.8422 14.9734C99.9 14.7422 99.9578 14.4531 99.9 14.2797C99.7844 14.1063 99.4953 14.0484 99.2641 13.9328C98.975 13.8172 98.7438 13.6438 98.5703 13.7016C98.3969 13.7016 98.2234 13.9906 98.1078 14.1641C97.9344 14.3953 97.8187 14.6266 97.6453 14.6844C97.4719 14.6844 97.1828 14.5688 96.9516 14.4531C96.7203 14.3375 96.3734 14.2219 96.3156 14.1062C96.2578 13.9328 96.4312 13.7594 96.4891 13.5859ZM85.1578 9.25C85.5047 7.63125 85.8516 6.0125 86.1984 4.39375C86.2563 4.1625 86.2563 4.04688 86.4875 4.04688C86.6609 4.04688 86.7766 4.10469 87.0078 4.1625C87.1234 4.22031 87.3547 4.22031 87.4125 4.33594C87.4703 4.45156 87.4125 4.74062 87.3547 4.85625C87.2391 5.31875 87.1813 5.60781 87.1234 6.0125C87.0656 6.18594 87.0078 6.475 87.0656 6.59062C87.1234 6.70625 87.3547 6.70625 87.5281 6.76406C87.875 6.82188 88.2219 6.9375 88.5687 6.99531C88.8 7.05313 88.9734 7.11094 89.0891 7.05312C89.2047 6.99531 89.2047 6.70625 89.2625 6.53281C89.3781 6.07031 89.4359 5.78125 89.4938 5.37656C89.5516 5.20312 89.5516 4.91406 89.6672 4.85625C89.7828 4.79844 90.0141 4.85625 90.1875 4.91406C90.3609 4.97188 90.65 4.97188 90.7078 5.0875C90.8234 5.20312 90.65 5.60781 90.5922 5.78125C90.2453 7.34219 89.9563 8.7875 89.6672 10.2906C89.6094 10.5219 89.5516 10.9266 89.4359 10.9844C89.3203 11.0422 89.0891 10.9844 88.9156 10.9266C88.6844 10.8687 88.4531 10.8688 88.3953 10.7531C88.3375 10.6375 88.4531 10.2906 88.4531 10.1172C88.5687 9.65469 88.6266 9.19219 88.7422 8.7875C88.8 8.61406 88.9156 8.26719 88.8 8.15156C88.7422 8.03594 88.5109 8.03594 88.3375 7.97813C87.9906 7.92031 87.6437 7.8625 87.2391 7.74687C87.1234 7.74687 86.8344 7.63125 86.7188 7.68906C86.6031 7.74688 86.5453 8.09375 86.5453 8.26719C86.4297 8.72969 86.3719 9.19219 86.2562 9.65469C86.1984 9.82812 86.1984 10.175 86.0828 10.2328C85.9672 10.2906 85.7359 10.2328 85.5047 10.175C85.3312 10.1172 85.0422 10.1172 84.9844 10.0016C84.9844 9.82812 85.1 9.42344 85.1578 9.25ZM80.0703 3.29531C80.1281 3.2375 80.1859 3.2375 80.2438 3.2375C80.475 3.2375 80.8219 3.29531 81.1109 3.35313C81.6891 3.41094 82.2672 3.46875 82.8453 3.52656C83.0766 3.52656 83.5391 3.58438 83.6547 3.7C83.7125 3.81562 83.6547 3.98906 83.6547 4.1625C83.6547 4.33594 83.6547 4.56719 83.5391 4.625C83.4234 4.68281 83.1344 4.625 82.9609 4.625C82.7875 4.625 82.4984 4.50938 82.3828 4.625C82.2672 4.68281 82.2672 4.97188 82.2672 5.20312C82.0938 6.53281 81.9781 7.68906 81.8625 9.01875C81.8625 9.25 81.8047 9.53906 81.7469 9.59688C81.6312 9.65469 81.4578 9.59688 81.1687 9.59688C80.9375 9.59688 80.7063 9.59688 80.6484 9.48125C80.5906 9.36562 80.6484 9.07656 80.6484 8.90312C80.8219 7.57344 80.9375 6.41719 81.0531 5.0875C81.0531 4.91406 81.1109 4.56719 81.0531 4.45156C80.9375 4.33594 80.7062 4.33594 80.475 4.33594C80.2438 4.33594 80.0125 4.33594 79.9547 4.22031C79.8969 4.10469 79.9547 3.41094 80.0703 3.29531ZM71.3984 7.45781C71.5141 6.76406 71.8609 6.30156 72.3234 6.0125C72.3812 5.95469 72.4969 5.89687 72.4969 5.78125C72.4969 5.66563 72.15 5.37656 72.0922 5.31875C71.6875 4.79844 71.5141 3.98906 71.8031 3.17969C71.9766 2.775 72.2078 2.37031 72.5547 2.13906C72.9016 1.90781 73.3641 1.73438 73.9422 1.67656C74.6937 1.61875 75.3875 1.90781 75.7922 2.3125C76.1969 2.71719 76.4859 3.29531 76.4859 4.04688C76.4859 4.68281 76.1969 5.14531 75.9078 5.49219C75.7922 5.60781 75.5609 5.72344 75.5609 5.83906C75.5609 5.95469 75.7344 6.0125 75.7922 6.07031C76.0813 6.30156 76.2547 6.53281 76.4281 6.87969C76.6016 7.34219 76.7172 7.97813 76.5437 8.55625C76.2547 9.53906 75.4453 10.175 74.2891 10.2906C73.075 10.4062 72.0344 9.82812 71.6297 9.01875C71.4563 8.67188 71.3406 8.09375 71.3984 7.45781ZM63.4781 2.65937C63.9406 2.54375 64.75 2.48594 65.3281 2.42812C65.5594 2.42812 65.7906 2.37031 65.8484 2.42812C66.0219 2.54375 66.0219 3.12188 66.0219 3.41094C66.3109 5.49219 66.5422 7.45781 66.7734 9.53906C66.8313 9.82812 66.9469 10.3484 66.8312 10.4641C66.7156 10.5797 66.3688 10.5797 66.1375 10.6375C65.9062 10.6953 65.5594 10.7531 65.3859 10.6375C65.2703 10.5219 65.2703 10.1172 65.2125 9.88594C64.9813 8.15156 64.8078 6.53281 64.5766 4.79844C64.5187 4.56719 64.5188 4.10469 64.4031 3.98906C64.2297 3.81562 63.5938 4.10469 63.4203 3.93125C63.3047 3.87344 63.3047 3.52656 63.3047 3.29531C63.3047 3.00625 63.1891 2.71719 63.4781 2.65937ZM45.9031 7.16875C46.0187 7.11094 46.4812 6.9375 46.6547 6.87969C46.8859 6.87969 47.2328 7.11094 47.4062 7.28438C49.025 8.325 50.5281 9.36563 52.1469 10.4062C52.3781 10.5219 52.6672 10.6953 52.5516 10.2906C52.4359 10.0016 52.3203 9.65469 52.2047 9.36563C51.8 8.325 51.4531 7.34219 51.0484 6.24375C50.9906 6.0125 50.875 5.78125 50.9328 5.60781C50.9906 5.43437 51.3953 5.37656 51.5687 5.26094C51.8 5.14531 52.1469 4.97188 52.3203 5.0875C52.4938 5.20312 52.6094 5.72344 52.725 6.0125C53.4187 7.97812 54.1703 9.88594 54.8641 11.9094C54.9797 12.1984 55.2109 12.6609 55.1531 12.8344C55.0953 13.0078 54.4594 13.2391 54.2281 13.2391C53.9969 13.2391 53.65 12.95 53.4766 12.8344C51.8578 11.7938 50.3547 10.8109 48.7359 9.77031C48.6203 9.7125 48.4469 9.53906 48.3312 9.65469C48.2156 9.7125 48.3891 10.0594 48.4469 10.2328C48.9094 11.5625 49.3719 12.7188 49.8344 14.0484C49.8922 14.2797 50.0078 14.5109 49.95 14.6844C49.8922 14.8 49.4875 14.9156 49.3141 14.9734C49.0828 15.0312 48.7938 15.2047 48.6203 15.1469C48.4469 15.0891 48.3312 14.5688 48.2156 14.2797C47.4641 12.2563 46.7703 10.3484 46.0766 8.325C45.9609 8.03594 45.7297 7.57344 45.7875 7.4C45.7297 7.28438 45.7297 7.28437 45.9031 7.16875ZM38.4453 11.1C38.6766 10.9266 39.0234 10.7531 39.3703 10.6375C40.1219 10.2328 40.8156 9.88594 41.5672 9.48125C41.7406 9.42344 41.9141 9.30781 42.0297 9.36563C42.1453 9.42344 42.2609 9.7125 42.3766 9.88594C42.4922 10.0594 42.6656 10.3484 42.6078 10.4641C42.55 10.5797 42.3188 10.6953 42.0875 10.8109C41.6828 11.0422 41.3359 11.2156 40.9313 11.4469C40.7 11.5625 40.4688 11.6781 40.4688 11.7937C40.4109 11.9672 40.6422 12.2563 40.7578 12.5453C40.8734 12.7766 41.0469 13.1812 41.2203 13.2391C41.3359 13.2969 41.5672 13.1234 41.7406 13.0656C42.1453 12.8344 42.4922 12.6609 42.8969 12.4875C43.1281 12.3719 43.3016 12.2562 43.4172 12.3141C43.5906 12.3719 44.0531 13.2391 43.9953 13.4125C43.9375 13.5281 43.7063 13.6437 43.5328 13.7594C43.1859 13.9328 42.7812 14.1641 42.4344 14.3375C42.2031 14.4531 41.9719 14.5687 41.9719 14.6844C41.9141 14.8578 42.2031 15.3203 42.3766 15.6094C42.4922 15.8406 42.7234 16.4188 42.9547 16.4766C43.0703 16.5344 43.3016 16.3609 43.5328 16.2453C43.9375 16.0141 44.2844 15.8406 44.6891 15.6094C44.9203 15.4937 45.0938 15.3781 45.2094 15.3781C45.3828 15.4359 45.4406 15.6672 45.5563 15.8984C45.6719 16.1297 45.8453 16.3609 45.7875 16.5344C45.6719 16.7078 45.2094 16.9391 44.9203 17.0547C44.2844 17.4016 43.6484 17.6906 43.0703 18.0375C42.8391 18.1531 42.3188 18.5 42.1453 18.4422C41.9719 18.3844 41.7984 17.9219 41.625 17.6328C40.6422 15.7828 39.7172 14.0484 38.7344 12.1984C38.5609 11.7937 38.1562 11.2734 38.4453 11.1ZM31.5078 15.5516C31.6812 15.3781 32.0859 15.1469 32.375 14.9734C33.0687 14.5109 33.7047 14.0484 34.3984 13.5859C34.5719 13.4703 34.6875 13.3547 34.8031 13.4125C34.9188 13.4703 35.0922 13.7016 35.2078 13.875C35.3234 14.0484 35.5547 14.2797 35.4969 14.4531C35.4391 14.5688 35.2078 14.7422 35.0344 14.8578C34.6875 15.0891 34.3406 15.3203 33.9359 15.6094C33.7047 15.725 33.5312 15.8406 33.4734 16.0141C33.4156 16.1875 33.7047 16.4766 33.8781 16.7078C33.9937 16.9391 34.225 17.3438 34.3984 17.3438C34.5141 17.3438 34.7453 17.1703 34.9188 17.1125C35.3234 16.8234 35.6125 16.65 35.9594 16.4187C36.1906 16.3031 36.3062 16.1297 36.4797 16.1875C36.6531 16.1875 37.2313 17.0547 37.1734 17.2281C37.1734 17.3438 36.9422 17.4594 36.7687 17.6328C36.4797 17.8641 36.075 18.0953 35.7281 18.3266C35.5547 18.4422 35.3234 18.5578 35.2656 18.7313C35.2078 18.9047 35.6125 19.3672 35.7859 19.5984C35.9594 19.8297 36.2484 20.4078 36.4219 20.4078C36.5953 20.4078 36.7687 20.2922 36.9422 20.1187C37.3469 19.8297 37.6359 19.6562 38.0406 19.3672C38.2141 19.2516 38.4453 19.0781 38.5609 19.0781C38.7344 19.1359 38.85 19.3672 38.9656 19.5406C39.0812 19.7719 39.3125 20.0031 39.2547 20.1187C39.1969 20.35 38.7344 20.5813 38.4453 20.7547C37.8672 21.1594 37.2891 21.5641 36.7109 21.9688C36.4797 22.1422 36.0172 22.4891 35.8438 22.4891C35.6703 22.4313 35.4391 22.0266 35.2656 21.7375C34.0516 20.0031 32.9531 18.3844 31.7969 16.65C31.6812 16.2453 31.2188 15.7828 31.5078 15.5516ZM22.2578 23.4141C22.3734 23.2406 22.6047 23.125 22.7781 22.9516C22.9516 22.8359 23.125 22.6047 23.2406 22.6047C23.3563 22.6047 23.5875 22.7781 23.7031 22.8937C24.6859 23.6453 25.6688 24.3391 26.5938 25.1484C26.7672 25.2641 26.8828 25.4375 27.0562 25.4375C27.0562 25.2641 26.9406 25.0906 26.825 24.9172C26.1891 23.8766 25.5531 22.8359 24.975 21.7375C24.8594 21.5641 24.6859 21.3328 24.7437 21.2172C24.8016 21.1016 24.975 20.9281 25.1484 20.8125C25.3219 20.6391 25.4375 20.5234 25.6109 20.4656C25.7844 20.4656 25.9578 20.6391 26.1313 20.7547C27.1719 21.5641 28.1547 22.3156 29.1953 23.0672C29.3687 23.1828 29.4844 23.3563 29.7156 23.3563C29.7156 23.1828 29.5422 23.0094 29.4266 22.8359C28.675 21.7953 28.0391 20.6969 27.3453 19.6562C27.2297 19.425 27.0562 19.2516 27.0562 19.0781C27.1141 18.9047 27.4031 18.6734 27.5766 18.5C27.75 18.3266 28.0391 18.0375 28.2125 18.0375C28.3281 18.0375 28.4438 18.2687 28.5594 18.4422C29.7156 20.4078 30.8719 22.2578 32.0281 24.2812C32.2016 24.5125 32.5484 24.975 32.4328 25.2062C32.375 25.3797 31.6812 26.0156 31.5078 26.0156C31.3344 26.0734 31.1609 25.9 30.9297 25.7266C29.8312 24.9172 28.7328 24.1656 27.6344 23.2984C27.4609 23.1828 27.2875 23.0094 27.0562 22.9516C27.0562 23.1828 27.2297 23.3563 27.3453 23.5297C28.0391 24.6859 28.7328 25.8422 29.4266 27.0562C29.5422 27.2297 29.7156 27.5187 29.6578 27.6344C29.6 27.8078 29.4266 27.9234 29.2531 28.0969C29.0797 28.2703 28.9062 28.4438 28.7328 28.5016C28.5016 28.5594 28.0969 28.2125 27.9234 28.0391C26.0734 26.7094 24.3391 25.3797 22.4891 24.05C22.3156 23.8187 22.0266 23.6453 22.2578 23.4141ZM16.9969 29.4844C17.1703 29.1953 17.5172 28.8484 17.7484 28.5594C18.2109 27.9813 18.7312 27.4031 19.2516 26.7672C19.425 26.5359 19.8297 26.0156 20.0031 26.0156C20.1766 26.0156 20.35 26.1891 20.5234 26.3625C20.6969 26.4781 20.9281 26.6516 20.9281 26.825C20.9281 26.9984 20.6391 27.2875 20.5234 27.4609C20.35 27.6344 20.0609 27.9234 20.1187 28.0969C20.1187 28.2703 20.4656 28.5016 20.6969 28.675C22.0266 29.7734 23.2406 30.8141 24.6281 31.9703C24.8594 32.1437 25.1484 32.375 25.1484 32.5484C25.1484 32.7219 24.9172 32.8953 24.7437 33.1844C24.5703 33.4156 24.3969 33.7047 24.2234 33.7047C24.05 33.7047 23.8188 33.4156 23.5875 33.2422C22.2578 32.0859 20.9859 31.1031 19.6562 29.9469C19.4828 29.7734 19.1359 29.4844 18.9625 29.4844C18.7891 29.5422 18.6156 29.7734 18.4422 30.0047C18.2687 30.2359 18.0953 30.525 17.9219 30.525C17.7484 30.525 17.0547 29.9469 16.9969 29.7734C16.8813 29.6578 16.9391 29.6 16.9969 29.4844ZM12.6031 35.7281C12.7188 35.4969 12.95 35.15 13.1812 34.8609C13.6437 34.1672 14.1063 33.5312 14.5688 32.7797C14.6844 32.6063 14.7422 32.4906 14.9156 32.4328C15.0891 32.4328 15.2625 32.6063 15.4937 32.7219C15.6672 32.8375 15.9563 33.0109 15.9563 33.1266C15.9563 33.2422 15.7828 33.4734 15.6672 33.6469C15.4359 33.9938 15.2047 34.3406 14.9156 34.7453C14.8 34.9766 14.6266 35.15 14.6844 35.2656C14.7422 35.4391 15.0891 35.6125 15.3203 35.7859C15.5516 35.9016 15.8984 36.2484 16.0719 36.1906C16.1875 36.1906 16.3609 35.9016 16.4766 35.7859C16.7656 35.3813 16.9391 35.0922 17.1703 34.7453C17.2859 34.5141 17.4016 34.3406 17.5172 34.3406C17.6906 34.2828 18.5 34.8609 18.5578 35.0344C18.5578 35.15 18.4422 35.3812 18.3266 35.5547C18.0953 35.8438 17.8641 36.2484 17.6328 36.5953C17.5172 36.7687 17.3438 37 17.3438 37.1156C17.4016 37.2891 17.8641 37.5781 18.1531 37.7516C18.3844 37.925 18.8469 38.3297 19.0781 38.2719C19.1938 38.2141 19.3672 38.0406 19.4828 37.8094C19.7719 37.4047 19.9453 37.1156 20.2344 36.7109C20.35 36.5375 20.5234 36.3063 20.6391 36.2484C20.8125 36.1906 20.9859 36.4219 21.2172 36.5375C21.4484 36.6531 21.6797 36.8266 21.6797 36.9422C21.6797 37.1734 21.3328 37.5781 21.1594 37.8094C20.7547 38.4453 20.4078 38.9656 20.0031 39.5438C19.8297 39.775 19.5984 40.2953 19.3672 40.3531C19.1938 40.4109 18.7891 40.0641 18.5 39.8906C16.7656 38.7344 15.1469 37.6359 13.3547 36.4797C13.0078 36.3062 12.4297 36.075 12.6031 35.7281ZM8.325 43.5906C8.44063 43.3594 8.61406 43.0125 8.72969 42.7234C8.90312 42.4344 9.01875 42.1453 9.13438 41.8563C9.77031 40.7578 10.5219 40.2953 11.5625 40.6422C12.1984 40.8156 12.8344 41.2781 13.0656 41.7984C13.1234 41.8563 13.1234 41.9719 13.2391 42.0297C13.3547 42.0875 13.5859 41.9141 13.7016 41.7984C14.3375 41.4516 15.4359 41.5672 16.2453 42.2609C17.1125 42.9547 17.1703 43.9375 16.65 45.1516C16.4187 45.6719 16.0719 46.3656 15.725 46.9437C15.6094 47.1172 15.4938 47.4062 15.3781 47.4641C15.2047 47.5219 14.7422 47.2328 14.5109 47.1172C13.0078 46.3656 11.4469 45.5563 9.94375 44.8047C9.65469 44.6312 9.01875 44.3422 8.55625 44.1109C8.38281 43.9375 8.20937 43.8219 8.325 43.5906ZM3.46875 57.4656C3.58437 57.0609 3.7 56.5984 3.81562 56.2516C4.10469 55.5 4.50938 54.9797 4.97188 54.6328C5.83906 53.9391 7.16875 53.4766 8.7875 53.9391C10.2906 54.4016 11.2156 55.3266 11.5625 56.4828C11.7359 57.0609 11.8516 57.6969 11.6781 58.5062C11.5625 59.0844 11.3891 59.7203 11.2156 60.3563C11.1578 60.5875 11.1 60.8188 10.9844 60.8766C10.8109 60.9344 10.3484 60.8187 10.0594 60.7031C7.8625 60.125 5.83906 59.6047 3.64219 59.0844C3.35313 59.0266 3.12188 58.9688 3.17969 58.6797C3.2375 58.3906 3.41094 57.8703 3.46875 57.4656ZM2.08125 65.9062C2.08125 65.5594 2.19688 64.9234 2.25469 64.4031C2.3125 64.1719 2.3125 63.8828 2.37031 63.6516C2.42812 63.4203 2.42813 63.0734 2.54375 63.0156C2.65937 62.9 3.00625 63.0156 3.2375 63.0156C3.46875 63.0156 3.81563 63.0734 3.93125 63.1891C4.04688 63.3047 3.93125 63.6516 3.87344 63.9406C3.81562 64.1719 3.75781 64.5766 3.87344 64.6922C4.04688 64.8078 4.33594 64.8078 4.68281 64.8656C4.91406 64.9234 5.37656 64.9813 5.49219 64.9234C5.72344 64.75 5.60781 63.825 5.83906 63.6516C5.95469 63.5359 6.35938 63.6516 6.53281 63.6516C6.76406 63.6516 7.11094 63.7094 7.16875 63.825C7.34219 64.0563 6.99531 64.8656 7.11094 65.0969C7.22656 65.2703 7.68906 65.2703 7.92031 65.2703C8.15156 65.3281 8.67188 65.4437 8.7875 65.2703C8.96094 65.0391 8.84531 63.9984 9.13438 63.7672C9.25 63.6516 9.59688 63.7672 9.82812 63.825C10.0594 63.8828 10.4062 63.8828 10.4641 63.9984C10.5797 64.1141 10.4641 64.5188 10.4641 64.75C10.4062 65.3859 10.3484 65.7906 10.2328 66.3688C10.175 66.6 10.175 67.0047 10.0594 67.1203C9.94375 67.2359 9.42344 67.1203 9.13438 67.0625C8.03594 66.8891 7.16875 66.8313 6.07031 66.6578C4.97188 66.4844 4.10469 66.4266 3.00625 66.2531C2.775 66.1953 2.19688 66.1953 2.02344 66.0797C2.08125 66.0797 2.08125 65.9641 2.08125 65.9062ZM1.56094 74.2891C1.50313 74 1.56094 73.4797 1.56094 73.1328C1.56094 72.3812 1.61875 71.6297 1.61875 70.8203C1.61875 70.5312 1.56094 69.8953 1.73438 69.7219C1.85 69.6062 2.13906 69.6641 2.37031 69.6641C2.60156 69.6641 2.89062 69.6641 3.00625 69.7797C3.12187 69.8953 3.06406 70.3 3.06406 70.5312C3.06406 70.7625 3.00625 71.1672 3.12188 71.2828C3.2375 71.3984 3.64219 71.3984 3.93125 71.3984C5.66563 71.4563 7.28438 71.5141 9.01875 71.5141C9.30781 71.5141 9.7125 71.5141 9.77031 71.6297C9.88594 71.7453 9.82812 72.0344 9.82812 72.3812C9.82812 72.6703 9.82812 73.0172 9.7125 73.1328C9.59687 73.2484 9.19219 73.1906 8.96094 73.1906C7.22656 73.1328 5.60781 73.075 3.87344 73.075C3.58437 73.075 3.17969 73.0172 3.06406 73.1328C2.94844 73.2484 3.00625 73.5953 3.00625 73.8844C3.00625 74.1734 3.00625 74.5203 2.89062 74.6359C2.775 74.7516 1.85 74.7516 1.67656 74.6359C1.61875 74.4625 1.56094 74.4047 1.56094 74.2891ZM1.96563 80.9953C1.90781 80.8219 1.90781 80.5328 1.90781 80.2438C1.90781 80.0125 1.79219 79.7234 1.90781 79.55C2.02344 79.3766 2.54375 79.2609 2.83281 79.1453C4.97188 78.4516 7.11094 77.7 9.30781 77.0062C9.48125 76.9484 9.7125 76.8906 9.82812 76.9484C10.0016 77.0063 9.94375 77.4109 10.0016 77.7C10.0016 78.0469 10.1172 78.3938 10.0016 78.5094C9.88594 78.625 9.59688 78.6828 9.36563 78.7984C9.13438 78.8563 8.84531 78.9141 8.72969 79.0875C8.67188 79.2609 8.72969 79.55 8.72969 79.7812C8.72969 80.0703 8.72969 80.3594 8.84531 80.5328C8.96094 80.7063 9.30781 80.7063 9.48125 80.7063C9.77031 80.7641 10.0594 80.7641 10.175 80.8797C10.2906 81.0531 10.2906 81.3422 10.2906 81.6312C10.2906 81.8625 10.3484 82.2672 10.2906 82.325C10.175 82.3828 9.94375 82.325 9.77031 82.325C7.4 81.9781 4.97187 81.6313 2.60156 81.2844C2.19688 81.2266 2.02344 81.2844 1.96563 80.9953ZM3.2375 89.6094C3.06406 89.3203 2.94844 89.0312 2.83281 88.6844C2.71719 88.3375 2.65937 87.9328 2.71719 87.5281C2.71719 87.2391 2.71719 86.7766 2.94844 86.6031C3.12188 86.4875 3.52656 86.4297 3.75781 86.3719C3.93125 86.3141 4.45156 86.1406 4.56719 86.3141C4.625 86.4297 4.50938 86.5453 4.45156 86.6609C4.33594 87.0078 4.22031 87.2969 4.22031 87.7016C4.22031 88.3375 4.50938 88.8 4.79844 89.1469C5.37656 89.7828 6.30156 90.1297 7.51562 89.8984C8.15156 89.7828 8.55625 89.5516 8.90312 89.2047C9.25 88.9156 9.53906 88.5109 9.65469 88.1062C9.77031 87.7016 9.82812 87.0656 9.59688 86.5453C9.42344 86.1984 9.19219 85.9094 8.96094 85.6781C8.90312 85.6203 8.72969 85.5047 8.72969 85.3891C8.72969 85.2156 9.30781 85.1578 9.48125 85.1C9.82812 85.0422 10.1172 84.9266 10.2906 84.9844C10.5219 85.0422 10.6953 85.4469 10.8687 85.6781C11.0422 85.9672 11.1578 86.3141 11.2156 86.6609C11.3891 87.4125 11.2734 88.0484 11.1578 88.5687C10.8687 89.6672 10.0594 90.5344 8.96094 91.1125C7.63125 91.7484 6.12812 91.6906 5.14531 91.2281C4.39375 90.9391 3.7 90.4187 3.2375 89.6094ZM8.38281 101.981C7.68906 101.75 7.05312 101.345 6.53281 100.652C6.35938 100.42 6.18594 100.131 6.07031 99.8422C5.49219 98.5703 5.60781 97.4141 6.0125 96.5469C6.41719 95.6797 7.16875 94.8703 8.38281 94.35C9.65469 93.8297 10.8109 93.8297 11.7359 94.1188C12.6609 94.4656 13.5281 95.1016 13.9906 96.2578C14.5109 97.5297 14.4531 98.6281 14.0484 99.5531C13.6437 100.478 12.8922 101.23 11.6781 101.75C10.4641 102.328 9.25 102.27 8.38281 101.981ZM17.1703 106.144C15.2047 107.184 13.2969 108.225 11.2734 109.266C10.9844 109.439 10.8687 109.497 10.6953 109.266C10.6375 109.15 10.5219 108.919 10.3484 108.688C10.2328 108.514 10.1172 108.283 10.1172 108.109C10.175 107.936 10.5219 107.82 10.7531 107.647C12.2563 106.838 13.7016 106.086 15.2625 105.219C15.4937 105.103 15.8406 104.93 15.8984 104.814C15.9563 104.583 15.6094 104.12 15.4937 103.831C15.3781 103.658 15.3203 103.484 15.2047 103.311C15.0891 103.137 15.0312 102.964 15.0312 102.848C15.0891 102.733 15.3781 102.559 15.5516 102.502C15.7828 102.386 15.9563 102.212 16.1297 102.27C16.3031 102.328 16.4766 102.791 16.65 103.022C16.9969 103.658 17.2281 104.12 17.575 104.756C17.6906 104.987 17.9797 105.392 17.9219 105.566C17.9219 105.797 17.4594 106.028 17.1703 106.144ZM30.8719 123.025C30.7563 122.852 30.525 122.505 30.2359 122.389C30.0625 122.331 29.8313 122.331 29.7156 122.389C29.1953 122.678 29.1375 123.256 29.1953 123.661C29.3109 124.528 29.7156 125.395 29.2531 126.378C29.0797 126.725 28.7328 127.13 28.3859 127.419C27.6922 127.939 26.9406 128.113 26.2469 127.881C25.9 127.766 25.4953 127.534 25.1484 127.13C24.9172 126.898 24.5703 126.378 24.6859 126.089C24.7437 125.916 24.975 125.742 25.1484 125.569C25.2641 125.395 25.4953 125.106 25.6688 125.164C25.7844 125.222 25.9 125.511 25.9578 125.627C26.0156 125.742 26.1313 125.973 26.3047 126.089C26.6516 126.378 26.9984 126.436 27.2875 126.32C27.5188 126.205 27.75 125.973 27.8078 125.742C27.8656 125.453 27.8078 125.106 27.75 124.817C27.5187 123.95 27.2875 123.025 27.8656 122.1C28.2703 121.406 28.9641 120.944 29.5422 120.828C30.1203 120.713 30.7563 120.77 31.3922 121.291C31.5656 121.406 31.7969 121.695 31.9125 121.927C32.0281 122.158 32.2016 122.389 32.1437 122.562C32.0859 122.736 31.9125 122.909 31.6812 123.141C31.5656 123.256 31.3344 123.603 31.1609 123.545C30.9875 123.487 30.9297 123.141 30.8719 123.025ZM35.8438 127.881C34.8031 129.327 33.8781 130.598 32.8953 132.044C32.7219 132.275 32.5484 132.622 32.375 132.622C32.2016 132.622 31.9703 132.448 31.7391 132.275C31.5078 132.102 31.2188 131.928 31.1609 131.812C31.1609 131.639 31.3922 131.35 31.5656 131.119C32.6063 129.673 33.5312 128.402 34.5141 126.956C34.6875 126.725 34.9766 126.378 34.9188 126.262C34.8609 126.089 34.5719 125.916 34.3406 125.8C34.1094 125.627 33.8203 125.453 33.7625 125.28C33.7625 125.106 34.225 124.355 34.4562 124.297C34.5141 124.239 34.6297 124.297 34.6875 124.355C34.9766 124.528 35.3234 124.817 35.6703 125.048C36.3063 125.511 36.9422 125.916 37.5781 126.378C37.8094 126.552 38.3875 126.841 38.3875 127.072C38.3875 127.245 38.2141 127.419 38.0984 127.65C37.9828 127.823 37.8094 128.113 37.6937 128.113C37.5203 128.17 37.2313 127.881 37.0578 127.766C36.8844 127.65 36.5953 127.361 36.4219 127.419C36.1906 127.303 36.0172 127.65 35.8438 127.881ZM43.9375 132.738C43.475 133.72 42.6656 134.241 41.8563 134.241C41.6828 134.241 41.4516 134.183 41.3359 134.298C41.2203 134.414 41.2781 134.645 41.3359 134.819C41.3937 135.802 41.5094 136.669 41.5672 137.709C41.5672 137.825 41.625 138.114 41.5094 138.172C41.3938 138.288 40.9891 137.998 40.7578 137.883C40.4688 137.709 40.1219 137.536 40.0062 137.42C39.8906 137.247 39.8906 136.784 39.8906 136.553C39.8906 135.802 39.8328 135.108 39.775 134.298C39.775 134.183 39.775 133.894 39.6594 133.894C39.5438 133.836 39.3703 134.241 39.2547 134.414C38.9656 134.934 38.7922 135.281 38.5031 135.744C38.3875 135.975 38.2719 136.264 38.0984 136.322C37.925 136.38 37.6359 136.148 37.4047 136.033C37.1734 135.917 36.8266 135.744 36.8266 135.628C36.7687 135.455 37.1156 134.992 37.2313 134.761C37.7516 133.778 38.1562 133.027 38.7344 132.044C39.3703 130.887 39.8328 130.02 40.4688 128.922C40.6422 128.633 40.7 128.459 40.9891 128.575C41.3937 128.748 41.7984 129.038 42.2031 129.211C42.6078 129.442 43.0125 129.673 43.3016 129.905C44.1688 130.598 44.4578 131.523 43.9375 132.738ZM51.4531 137.883C50.9906 139.039 50.4703 139.848 49.7766 140.369C49.0828 140.889 48.2156 141.178 47.2328 140.831C46.25 140.484 45.7297 139.617 45.6141 138.808C45.3828 137.594 45.9031 135.744 46.7703 134.414C47.2906 133.605 47.9844 133.027 48.8516 132.795C49.2562 132.68 49.7766 132.68 50.2969 132.911C51.3375 133.316 51.8 134.125 51.9156 134.934C52.0312 135.744 51.8578 136.842 51.4531 137.883ZM60.2984 137.189C59.7781 139.213 59.3156 141.12 58.7953 143.144C58.7375 143.433 58.6219 143.953 58.5062 144.069C58.3328 144.184 58.1016 144.011 57.8125 143.953C57.5812 143.895 57.2922 143.838 57.1188 143.722C57.0031 143.606 57.0031 143.375 56.9453 143.202C56.7719 141.988 56.6562 140.831 56.425 139.617C56.425 139.444 56.425 139.213 56.2516 139.097C56.1359 139.213 56.1359 139.386 56.0781 139.559C55.7891 140.6 55.5578 141.641 55.2687 142.739C55.2109 142.912 55.2109 143.144 55.0953 143.202C54.9219 143.259 54.6328 143.144 54.3438 143.086C54.1125 143.028 53.7078 142.97 53.65 142.855C53.5922 142.681 53.7656 142.219 53.8234 141.93C54.3438 139.964 54.8062 137.998 55.3266 135.975C55.3844 135.686 55.4422 135.166 55.6156 135.05C55.7891 134.934 56.1937 135.108 56.4828 135.166C56.6562 135.223 56.9453 135.281 57.0609 135.339C57.1766 135.455 57.1766 135.686 57.2344 135.859C57.4078 137.016 57.5812 138.172 57.7547 139.328C57.8125 139.502 57.8125 139.733 57.9281 139.848C58.0437 139.733 58.0438 139.559 58.1016 139.386C58.3328 138.519 58.5062 137.652 58.7375 136.784C58.7953 136.495 58.8531 135.975 59.0266 135.859C59.1422 135.744 59.5469 135.917 59.7781 135.975C60.0094 136.033 60.4141 136.091 60.4719 136.206C60.5297 136.38 60.3563 136.9 60.2984 137.189ZM70.2422 142.103C69.8953 143.722 69.0859 144.82 67.9297 145.283C67.4094 145.514 66.7156 145.572 65.9641 145.456C64.75 145.283 63.9984 144.705 63.4781 143.953C63.0156 143.375 62.7844 142.623 62.6688 141.814C62.5531 140.889 62.7844 139.848 63.1312 139.155C63.7094 137.941 64.75 137.016 66.1953 136.842C66.4266 136.784 66.6578 136.842 66.8891 136.842C68.3922 136.9 69.375 137.652 69.8953 138.577C69.9531 138.692 70.0687 138.866 70.0687 139.039C70.0109 139.27 69.6641 139.328 69.4328 139.386C69.3172 139.444 69.2016 139.502 69.0859 139.502C68.9703 139.559 68.8547 139.617 68.7391 139.617C68.6234 139.617 68.5078 139.444 68.5078 139.328C68.2188 138.808 67.6984 138.23 66.8891 138.23C65.9062 138.172 65.2703 138.692 64.8656 139.386C64.5766 139.848 64.3453 140.427 64.3453 141.12C64.2875 141.814 64.4031 142.334 64.6344 142.797C64.9234 143.433 65.5594 144.127 66.6578 144.011C67.2359 143.953 67.6406 143.664 67.9875 143.259C68.1031 143.144 68.3922 142.681 68.2766 142.45C68.1609 142.277 67.7562 142.277 67.4672 142.277C67.1781 142.219 66.7734 142.277 66.6578 142.103C66.6 141.988 66.6 141.756 66.6578 141.525C66.6578 141.352 66.6578 141.062 66.7734 140.947C66.8891 140.831 67.3516 140.947 67.5828 140.947C68.2188 141.005 68.7391 141.062 69.3172 141.12C69.6063 141.178 70.0687 141.178 70.1266 141.294C70.3578 141.525 70.3 141.872 70.2422 142.103ZM83.25 143.202C83.1922 144.069 82.7875 144.705 82.1516 145.109C81.8047 145.283 81.4 145.398 80.8797 145.398C80.5328 145.398 79.9547 145.341 79.7812 145.052C79.7234 144.878 79.7234 144.647 79.6656 144.358C79.6656 144.127 79.55 143.78 79.7234 143.722C79.8391 143.664 80.1281 143.78 80.2438 143.838C80.4172 143.895 80.5906 143.895 80.8219 143.895C81.2844 143.837 81.5156 143.606 81.6891 143.317C81.7469 143.086 81.7469 142.739 81.5734 142.508C81.4 142.277 81.1109 142.103 80.8797 141.93C80.0703 141.525 79.2609 141.062 78.9719 140.022C78.7406 139.27 78.8562 138.461 79.1453 137.941C79.4344 137.42 79.9547 137.016 80.7063 136.9C80.9375 136.9 81.2844 136.9 81.5156 136.9C81.7469 136.958 82.0359 137.016 82.1516 137.189C82.2672 137.305 82.2672 137.594 82.2672 137.883C82.2672 138.056 82.3828 138.461 82.2672 138.519C82.1516 138.577 81.8625 138.403 81.6891 138.345C81.4578 138.288 81.0531 138.287 80.7641 138.403C80.5906 138.461 80.475 138.692 80.4172 138.808C80.3016 139.386 80.7063 139.848 80.9953 140.022C81.6891 140.542 82.6141 140.831 83.0766 141.756C83.1922 142.277 83.25 142.739 83.25 143.202ZM90.7078 139.848C90.3609 140.369 89.8406 140.658 89.0312 140.889C88.8 140.947 88.3953 140.947 88.2797 141.12C88.2219 141.236 88.2797 141.583 88.3375 141.814C88.4531 142.334 88.5687 142.739 88.6844 143.317C88.7422 143.548 88.8578 143.895 88.7422 144.011C88.6266 144.184 88.3375 144.184 88.0484 144.242C87.8172 144.3 87.4703 144.416 87.2969 144.3C87.1813 144.184 87.0656 143.664 87.0078 143.375C86.7766 142.334 86.6031 141.525 86.3141 140.369C86.025 139.155 85.7937 138.114 85.5047 136.842C85.4469 136.495 85.3891 136.38 85.6781 136.264C85.9094 136.206 86.2563 136.148 86.4875 136.091C87.2969 135.917 88.1641 135.686 88.8 135.744C89.725 135.802 90.3609 136.264 90.7078 137.131C91.2281 138.23 91.1125 139.212 90.7078 139.848ZM97.125 141.698C97.0672 141.872 96.7203 141.93 96.4313 141.988C96.2 142.045 95.8531 142.219 95.6797 142.161C95.5062 142.103 95.3906 141.525 95.3328 141.294C94.8125 139.675 94.2344 138.056 93.7141 136.438C93.5984 136.033 93.3672 135.455 93.2516 134.992C93.1359 134.703 93.0781 134.53 93.3094 134.414C93.425 134.356 93.7141 134.298 93.9453 134.183C94.1766 134.125 94.4078 134.009 94.5234 134.067C94.6969 134.125 94.8125 134.703 94.8703 134.934C95.2172 135.917 95.5641 136.958 95.8531 137.883C96.1422 138.808 96.4891 139.791 96.8359 140.773C96.9516 141.062 97.1828 141.525 97.125 141.698ZM105.161 138.461C104.814 138.634 104.467 138.808 104.294 138.808C104.062 138.808 103.716 138.519 103.542 138.403C102.906 137.941 102.328 137.594 101.692 137.131C101.577 137.073 101.403 136.9 101.287 136.958C101.172 137.073 101.403 137.42 101.461 137.594C101.692 138.114 101.866 138.519 102.097 138.981C102.213 139.212 102.328 139.502 102.328 139.617C102.27 139.791 101.923 139.906 101.692 139.964C101.461 140.08 101.114 140.253 100.998 140.195C100.825 140.137 100.652 139.617 100.536 139.386C100.073 138.403 99.7266 137.594 99.2641 136.553C98.7438 135.339 98.3391 134.472 97.8187 133.258C97.6453 132.911 97.5875 132.795 97.8766 132.68C98.2234 132.448 98.7438 132.275 99.1484 132.102C99.5531 131.928 100.016 131.697 100.363 131.639C101.519 131.35 102.444 131.697 103.022 132.853C103.542 133.836 103.427 134.761 102.964 135.397C102.848 135.512 102.675 135.686 102.675 135.802C102.733 135.975 102.964 136.033 103.08 136.148C103.889 136.669 104.641 137.131 105.508 137.652C105.623 137.709 105.855 137.825 105.855 137.941C105.913 138.23 105.392 138.345 105.161 138.461ZM109.728 136.033C109.497 136.148 109.208 136.38 109.034 136.322C108.861 136.264 108.63 135.802 108.514 135.512C107.647 134.009 106.78 132.564 105.97 131.061C105.739 130.714 105.45 130.136 105.219 129.731C105.045 129.442 104.987 129.327 105.161 129.153C105.219 129.095 105.508 128.922 105.739 128.806C105.912 128.691 106.144 128.517 106.317 128.575C106.491 128.633 106.722 129.095 106.838 129.384C107.358 130.252 107.878 131.234 108.398 132.044C108.861 132.911 109.381 133.778 109.959 134.703C110.133 134.934 110.422 135.397 110.364 135.57C110.306 135.802 110.017 135.859 109.728 136.033ZM115.336 132.448C115.105 132.622 114.873 132.853 114.7 132.795C114.527 132.795 114.353 132.448 114.18 132.217C113.139 130.772 112.214 129.5 111.231 128.055C111.058 127.823 110.827 127.477 110.711 127.419C110.537 127.419 110.306 127.65 110.075 127.823C109.844 127.997 109.613 128.228 109.439 128.17C109.266 128.17 108.745 127.419 108.688 127.188C108.688 127.072 108.745 127.072 108.803 126.956C109.034 126.725 109.439 126.494 109.786 126.262C110.422 125.8 111.058 125.395 111.694 124.933C111.925 124.759 112.445 124.355 112.619 124.355C112.792 124.355 112.908 124.644 113.023 124.817C113.139 124.991 113.37 125.222 113.312 125.395C113.255 125.569 112.966 125.742 112.734 125.916C112.561 126.031 112.214 126.205 112.156 126.436C112.156 126.609 112.387 126.898 112.561 127.13C113.544 128.575 114.527 129.847 115.509 131.292C115.683 131.523 115.914 131.812 115.914 131.986C115.856 132.102 115.625 132.217 115.336 132.448ZM121.927 127.072C121.753 127.419 121.522 127.766 121.059 128.055C120.77 128.228 120.25 128.575 119.961 128.402C119.787 128.344 119.672 128.113 119.498 127.881C119.383 127.708 119.094 127.477 119.152 127.361C119.209 127.245 119.498 127.188 119.614 127.13C119.787 127.072 119.961 127.014 120.134 126.841C120.481 126.552 120.539 126.205 120.481 125.916C120.423 125.684 120.192 125.395 119.961 125.338C119.672 125.222 119.383 125.222 119.036 125.28C118.111 125.395 117.244 125.511 116.377 124.817C115.741 124.297 115.394 123.603 115.336 123.025C115.278 122.389 115.452 121.811 116.03 121.291C116.203 121.175 116.492 120.944 116.723 120.828C116.955 120.713 117.244 120.597 117.417 120.713C117.591 120.77 117.706 121.002 117.938 121.233C118.053 121.348 118.342 121.638 118.284 121.753C118.227 121.927 117.88 121.869 117.706 121.927C117.475 121.984 117.128 122.216 117.012 122.505C116.955 122.678 116.897 122.909 116.955 123.025C117.186 123.545 117.764 123.719 118.111 123.719C118.978 123.719 119.903 123.43 120.828 123.95C121.175 124.181 121.522 124.528 121.753 124.933C122.158 125.627 122.216 126.436 121.927 127.072ZM74 135.917C39.775 135.917 12.0828 108.167 12.0828 74C12.0828 39.775 39.8328 12.0828 74 12.0828C108.167 12.0828 135.917 39.8328 135.917 74C135.917 108.225 108.225 135.917 74 135.917ZM136.669 110.017C136.38 110.653 135.744 111.173 135.281 111.405C135.108 111.52 134.877 111.636 134.703 111.578C134.53 111.52 134.472 111.231 134.356 111.058C134.298 110.942 134.067 110.653 134.183 110.537C134.241 110.364 134.53 110.364 134.703 110.248C134.877 110.133 135.166 109.902 135.281 109.555C135.397 109.208 135.339 108.861 135.223 108.63C135.108 108.514 134.934 108.341 134.703 108.283C134.241 108.167 133.778 108.572 133.373 108.861C132.564 109.497 131.755 110.017 130.598 109.613C129.384 109.15 128.748 108.167 128.691 107.242C128.633 106.722 128.748 106.202 129.095 105.681C129.558 104.872 130.252 104.525 130.945 104.352C131.119 104.294 131.523 104.236 131.697 104.352C131.87 104.467 131.87 104.756 131.928 104.93C131.928 105.045 131.986 105.103 131.986 105.219C131.986 105.277 132.102 105.45 131.986 105.566C131.928 105.681 131.697 105.681 131.581 105.681C131.177 105.681 130.714 105.855 130.425 106.202C129.905 106.78 130.136 107.473 130.656 107.82C131.408 108.341 131.986 107.878 132.448 107.473C133.2 106.895 134.009 106.317 135.108 106.664C135.917 106.953 136.38 107.531 136.611 108.109C136.727 108.398 136.784 108.688 136.784 109.034C136.9 109.323 136.842 109.67 136.669 110.017ZM141.005 100.594C140.947 100.883 140.716 101.345 140.542 101.692C140.253 102.386 139.964 103.08 139.617 103.831C139.502 104.12 139.328 104.698 139.097 104.814C138.981 104.872 138.692 104.756 138.461 104.641C138.288 104.583 137.998 104.467 137.941 104.352C137.883 104.178 138.056 103.831 138.172 103.658C138.288 103.484 138.461 103.08 138.403 102.964C138.345 102.791 137.941 102.675 137.709 102.559C136.091 101.866 134.645 101.23 133.027 100.536C132.795 100.42 132.391 100.305 132.333 100.131C132.275 100.016 132.448 99.7266 132.564 99.4375C132.68 99.2063 132.738 98.8594 132.911 98.8016C133.027 98.7437 133.431 98.9172 133.662 99.0328C135.281 99.7266 136.727 100.363 138.345 101.056C138.577 101.172 138.981 101.345 139.097 101.287C139.27 101.172 139.328 100.883 139.444 100.594C139.559 100.363 139.675 100.016 139.791 99.9578C139.906 99.9 140.773 100.247 140.889 100.42C141.062 100.362 141.062 100.478 141.005 100.594ZM143.433 93.3094C143.375 93.5984 143.259 93.9453 143.144 94.2922C142.913 95.1016 142.681 95.8531 142.45 96.6625C142.392 96.8359 142.334 97.0094 142.219 97.0672C142.103 97.125 141.814 97.0094 141.583 96.9516C141.409 96.8937 141.062 96.8359 141.005 96.6625C140.947 96.5469 141.062 96.3156 141.12 96.0844C141.236 95.6797 141.352 95.275 141.525 94.8125C141.583 94.5813 141.698 94.35 141.641 94.2344C141.525 94.0609 141.178 94.0031 140.889 93.9453C140.658 93.8875 140.253 93.7141 140.08 93.7719C139.964 93.8297 139.906 94.1188 139.848 94.2922C139.733 94.7547 139.617 95.1016 139.502 95.5062C139.444 95.7375 139.386 95.9688 139.27 96.0266C139.097 96.1422 138.172 95.8531 138.056 95.6797C137.998 95.5641 138.056 95.3328 138.172 95.1016C138.288 94.7547 138.403 94.2922 138.519 93.8875C138.577 93.6562 138.692 93.425 138.634 93.3094C138.519 93.1359 137.998 93.0203 137.709 92.9625C137.42 92.9047 136.842 92.6156 136.669 92.7312C136.553 92.7891 136.495 93.0781 136.438 93.2516C136.322 93.7141 136.206 94.0609 136.033 94.5234C135.975 94.7547 135.917 94.9859 135.802 95.0437C135.628 95.1016 135.397 94.9859 135.166 94.9281C134.934 94.8703 134.645 94.8125 134.588 94.6391C134.53 94.4078 134.703 93.9453 134.819 93.6562C135.05 92.9625 135.223 92.3266 135.455 91.6328C135.512 91.4016 135.628 90.7656 135.802 90.7078C135.975 90.65 136.438 90.8234 136.727 90.9391C138.75 91.575 140.6 92.0953 142.623 92.7312C142.855 92.8469 143.548 92.9625 143.433 93.3094ZM145.167 85.2734C145.167 85.5047 145.052 85.9094 144.994 86.2562C144.82 87.0656 144.705 87.875 144.531 88.6844C144.473 88.8578 144.473 89.0312 144.358 89.0891C144.242 89.1469 143.953 89.0891 143.722 89.0312C143.491 88.9734 143.202 88.9734 143.086 88.8578C143.028 88.7422 143.086 88.4531 143.144 88.2797C143.202 87.8172 143.317 87.4703 143.375 87.0078C143.433 86.7766 143.491 86.5453 143.375 86.4297C143.259 86.2562 142.913 86.2563 142.566 86.1984C142.334 86.1406 141.872 86.025 141.698 86.1406C141.583 86.1984 141.583 86.4875 141.525 86.6609C141.467 87.1234 141.352 87.4703 141.294 87.9328C141.236 88.1641 141.236 88.3953 141.12 88.4531C141.005 88.5687 139.964 88.3953 139.906 88.2219C139.848 88.1063 139.906 87.875 139.906 87.6438C139.964 87.2969 140.08 86.8344 140.137 86.4297C140.195 86.1984 140.253 85.9672 140.195 85.8516C140.08 85.6781 139.559 85.6781 139.213 85.6203C138.923 85.5625 138.345 85.3891 138.172 85.5047C138.056 85.6203 138.056 85.8516 137.998 86.0828C137.941 86.5453 137.825 86.95 137.767 87.4125C137.709 87.6437 137.709 87.875 137.594 87.9906C137.478 88.1062 137.189 87.9906 136.958 87.9328C136.727 87.875 136.38 87.875 136.322 87.7594C136.206 87.5859 136.38 87.0656 136.438 86.7766C136.553 86.0828 136.669 85.3891 136.842 84.6953C136.9 84.4641 136.958 83.8281 137.073 83.7125C137.247 83.5969 137.709 83.7703 138.056 83.8281C140.137 84.175 142.045 84.5797 144.127 84.9266C144.531 84.8687 145.225 84.8688 145.167 85.2734C145.167 85.2156 145.167 85.2156 145.167 85.2734ZM145.919 77.6422C145.919 78.1047 145.861 78.5672 145.803 78.9719C145.514 80.1281 144.762 80.7641 143.491 80.7641C142.392 80.7641 141.583 80.2438 141.236 79.4922C141.178 79.3766 141.12 79.0875 141.005 79.0875C140.831 79.0297 140.658 79.2031 140.542 79.2609C139.675 79.7234 138.923 80.1859 138.056 80.7063C137.941 80.7641 137.709 80.9375 137.594 80.8797C137.42 80.8219 137.478 80.3016 137.536 80.0703C137.536 79.7234 137.536 79.3187 137.652 79.1453C137.767 78.9719 138.172 78.7984 138.403 78.6828C139.097 78.3359 139.675 77.9891 140.369 77.6422C140.484 77.5844 140.716 77.4688 140.716 77.3531C140.716 77.2375 140.253 77.2375 140.022 77.2375C139.444 77.1797 139.039 77.1797 138.461 77.1219C138.23 77.1219 137.883 77.1219 137.767 77.0062C137.652 76.8906 137.709 76.5437 137.709 76.2547C137.709 75.9656 137.709 75.6188 137.825 75.5031C137.941 75.3875 138.519 75.4453 138.75 75.5031C139.848 75.5609 140.716 75.6187 141.814 75.6766C143.144 75.7344 144.069 75.7922 145.398 75.9078C145.745 75.9078 145.919 75.9656 145.919 76.1969C146.034 76.7172 145.919 77.2375 145.919 77.6422Z" fill="#BB7043"/>
<path d="M49.6607 134.298C49.3138 134.183 49.0826 134.356 48.8513 134.529C47.9842 135.223 47.0592 137.593 47.2904 138.692C47.2904 138.808 47.3482 138.981 47.406 139.097C47.5217 139.328 47.8685 139.443 48.0998 139.443C48.6201 139.386 49.0248 138.865 49.3717 138.287C49.9498 137.247 50.4701 135.686 50.2388 134.876C50.1232 134.645 49.9498 134.356 49.6607 134.298Z" fill="#BB7043"/>
<path d="M101.056 133.142C100.767 133.027 100.247 133.084 99.8999 133.316C99.6108 133.489 99.7843 133.72 99.8999 134.009C99.9577 134.183 100.073 134.356 100.131 134.588C100.247 134.877 100.478 135.513 100.651 135.57C100.825 135.628 101.056 135.455 101.23 135.339C101.403 135.224 101.576 135.05 101.634 134.934C101.981 134.356 101.634 133.374 101.056 133.142Z" fill="#BB7043"/>
<path d="M87.6437 137.305C87.5281 137.363 87.4703 137.363 87.4703 137.42C87.4125 137.536 87.5281 137.825 87.5281 137.941C87.5859 138.114 87.5859 138.345 87.6437 138.519C87.7015 138.808 87.8172 139.502 87.9906 139.617C88.1062 139.675 88.3953 139.617 88.6265 139.502C88.8 139.444 89.0312 139.328 89.1468 139.213C89.5515 138.866 89.4937 137.941 89.089 137.42C88.8 137.189 88.2219 137.074 87.6437 137.305Z" fill="#BB7043"/>
<path d="M31.5079 110.884C31.4501 110.827 31.4501 110.769 31.5079 110.711L36.6532 105.97C36.711 105.913 36.711 105.855 36.6532 105.797L35.3813 104.467C35.3235 104.409 35.2657 104.409 35.2079 104.467L29.7157 109.555C29.6579 109.613 28.8485 110.364 28.8485 110.364C28.7907 110.422 28.7907 110.48 28.8485 110.538L31.2767 113.197C31.3345 113.255 31.3923 113.255 31.4501 113.197L32.4907 112.214C32.5485 112.156 32.5485 112.098 32.4907 112.041L31.5079 110.884Z" fill="#BB7043"/>
<path d="M48.5047 117.07C48.5625 116.897 48.3891 116.608 48.2156 116.434C48.0422 116.203 47.7531 115.972 47.5797 115.856C46.8859 115.336 46.1922 115.336 45.6141 115.509C45.0359 115.683 44.3422 116.261 43.9953 117.013C43.475 118.053 43.8219 118.978 44.1109 119.845C44.2266 120.134 44.3422 120.481 44.2844 120.77C44.2266 121.059 43.9953 121.349 43.7641 121.464C43.475 121.638 43.0703 121.58 42.7234 121.291C42.55 121.175 42.3766 120.944 42.3188 120.828C42.2609 120.713 42.1453 120.424 41.9719 120.366C41.7984 120.308 41.625 120.655 41.5094 120.828C41.3359 121.059 41.1625 121.291 41.1047 121.464C41.0469 121.811 41.4516 122.274 41.7406 122.505C42.1453 122.909 42.6078 123.083 42.9547 123.199C43.7063 123.372 44.5156 123.141 45.1516 122.505C45.4984 122.158 45.8453 121.695 45.9609 121.291C46.3078 120.25 45.7875 119.383 45.6141 118.458C45.5563 118.053 45.5563 117.417 46.0766 117.07C46.1922 117.013 46.4813 116.955 46.6547 117.013C46.9438 117.07 47.2906 117.417 47.4063 117.591C47.4641 117.706 47.5797 118.111 47.7531 118.111C47.9266 118.169 48.1 117.764 48.2156 117.591C48.2734 117.475 48.4469 117.244 48.5047 117.07Z" fill="#BB7043"/>
<path d="M53.7076 119.325C52.956 118.921 52.2623 118.978 51.6841 119.267C51.1638 119.556 50.5279 120.135 50.2388 120.944C49.8341 122.042 50.2966 122.91 50.7591 123.777C50.9326 124.066 51.0482 124.355 51.0482 124.702C51.0482 124.991 50.8169 125.28 50.6435 125.453C50.3544 125.627 49.9498 125.685 49.5451 125.453C49.3138 125.338 49.1982 125.164 49.0826 125.049C48.9669 124.933 48.8513 124.644 48.6779 124.644C48.5044 124.644 48.3888 124.991 48.2732 125.164C48.1576 125.396 47.9841 125.627 47.9263 125.858C47.8685 126.205 48.3888 126.61 48.6779 126.841C49.1404 127.188 49.6029 127.303 50.0076 127.361C50.7591 127.419 51.5685 127.072 52.0888 126.378C52.3779 125.974 52.6669 125.511 52.7248 125.106C52.956 124.008 52.3201 123.199 51.9732 122.331C51.8576 121.927 51.7419 121.291 52.2044 120.886C52.3201 120.771 52.5513 120.713 52.7248 120.713C53.0138 120.713 53.4185 121.002 53.5341 121.175C53.6498 121.291 53.7654 121.638 53.9388 121.638C54.1123 121.638 54.2279 121.233 54.3435 121.06C54.4591 120.771 54.6326 120.539 54.6904 120.366C54.6904 120.192 54.5169 119.961 54.2857 119.73C54.2279 119.614 53.881 119.383 53.7076 119.325Z" fill="#BB7043"/>
<path d="M41.9721 111.52C41.9143 111.347 41.6252 111.173 41.4518 111.058C41.2205 110.884 40.9893 110.653 40.8158 110.595C40.5268 110.422 40.4111 110.595 40.1799 110.827C38.2143 112.388 36.1908 114.006 34.1674 115.567C33.9939 115.683 33.7627 115.856 33.7627 115.972C33.7627 116.145 34.1096 116.319 34.283 116.492C34.5143 116.666 34.7455 116.897 34.9189 116.955C35.0924 116.955 35.3236 116.723 35.5549 116.55C35.7283 116.434 35.9596 116.145 36.1908 116.203C36.4221 116.261 36.5955 116.434 36.8268 116.666C37.0002 116.839 37.2893 117.013 37.3471 117.186C37.4049 117.359 37.2314 117.648 37.1158 117.88C37.0002 118.111 36.8268 118.4 36.8846 118.516C36.9424 118.689 37.2893 118.92 37.5205 119.094C37.7518 119.267 38.0408 119.556 38.2143 119.498C38.3299 119.441 38.4455 119.267 38.5033 119.036C39.5439 116.839 40.5268 114.7 41.5674 112.503C41.7408 112.214 42.0299 111.752 41.9721 111.52ZM39.2549 113.833C39.0236 114.238 38.7924 114.758 38.5611 115.105C38.4455 115.278 38.2721 115.683 38.1564 115.741C38.0408 115.798 37.8674 115.625 37.6939 115.509C37.5205 115.394 37.3471 115.278 37.3471 115.105C37.3471 114.931 37.6939 114.7 37.8096 114.584C38.1564 114.238 38.5033 113.948 38.8502 113.602C39.0236 113.428 39.2549 113.197 39.4283 113.197C39.6018 113.255 39.3705 113.602 39.2549 113.833Z" fill="#BB7043"/>
<path d="M59.7781 121.984C59.489 121.926 59.2 121.811 59.0843 121.811C59.0265 121.811 58.9109 121.753 58.8531 121.811C58.6796 121.926 58.564 122.505 58.5062 122.736C57.8703 124.875 57.2343 126.841 56.5406 128.922C56.425 129.211 56.2515 129.731 56.3093 129.905C56.3671 130.078 56.7718 130.136 57.0031 130.194C57.2921 130.309 57.5812 130.425 57.7546 130.367C57.9281 130.309 57.9859 129.847 58.1015 129.616C58.275 128.98 58.4484 128.459 58.6796 127.823L59.6625 124.701C59.8359 124.123 60.0093 123.603 60.1828 123.025C60.2984 122.736 60.414 122.389 60.3562 122.216C60.2984 122.1 60.0093 122.042 59.7781 121.984Z" fill="#BB7043"/>
<path d="M27.7502 105.334C27.4033 105.219 27.1143 105.103 26.7674 104.872C26.3049 104.525 26.0736 103.947 25.958 103.484C25.9002 103.022 25.958 102.617 26.1314 102.155C26.3049 101.692 26.5939 101.287 27.0564 100.883C28.0393 100.131 28.9643 100.015 29.7736 100.305C30.1783 100.478 30.6408 100.825 30.9299 101.345C31.1033 101.692 31.2189 102.039 31.2189 102.386C31.2189 102.501 31.2189 102.675 31.2768 102.733C31.3924 102.848 31.7971 102.444 31.9705 102.328C32.2018 102.155 32.4908 101.923 32.6064 101.75C32.7221 101.519 32.5486 101.114 32.3752 100.825C32.2018 100.478 31.9705 100.131 31.7393 99.842C31.508 99.553 31.2189 99.3217 30.9877 99.1483C30.1783 98.628 29.3689 98.5124 28.5596 98.5702C27.4611 98.628 26.0736 99.2061 25.2064 100.42C24.4549 101.403 24.1658 102.617 24.3971 103.658C24.5127 104.236 24.7439 104.814 25.2064 105.392C25.4377 105.681 25.7268 105.912 25.958 106.086C26.1893 106.259 26.5361 106.49 26.7674 106.433C26.9408 106.375 27.1721 106.144 27.4611 105.97C27.6346 105.855 28.0971 105.565 28.0393 105.392C28.0393 105.334 27.8658 105.334 27.7502 105.334Z" fill="#BB7043"/>
<path d="M67.9298 123.95C67.5829 123.834 67.1204 123.719 66.7736 123.719C66.4267 123.719 66.0798 123.719 65.7329 123.777C64.8079 124.008 64.1142 124.47 63.5939 125.048C62.9001 125.858 62.322 127.245 62.4954 128.691C62.6689 129.905 63.3048 130.945 64.2298 131.581C64.6923 131.928 65.2704 132.159 66.022 132.275C66.3689 132.333 66.7157 132.275 67.0626 132.217C67.2939 132.159 67.7564 132.102 67.872 131.928C67.9876 131.755 67.9876 131.408 68.0454 131.119C68.0454 130.888 68.161 130.367 68.0454 130.309C67.9298 130.252 67.8142 130.367 67.6985 130.425C67.4095 130.598 67.0626 130.714 66.7157 130.772C66.1376 130.83 65.5595 130.598 65.2126 130.367C64.8657 130.078 64.5767 129.731 64.4032 129.269C64.2298 128.806 64.1142 128.344 64.172 127.708C64.3454 126.494 64.9236 125.742 65.7329 125.395C66.1376 125.222 66.7157 125.106 67.2939 125.28C67.6407 125.395 67.9876 125.569 68.2189 125.8C68.2767 125.858 68.3923 126.031 68.5079 125.973C68.6814 125.973 68.6814 125.395 68.6814 125.222C68.7392 124.933 68.797 124.586 68.7392 124.355C68.6236 124.181 68.1611 124.008 67.9298 123.95Z" fill="#BB7043"/>
<path d="M130.714 91.4015C130.656 91.2859 130.194 91.2281 129.962 91.1125C128.17 90.7078 126.494 90.3031 124.701 89.8406C124.412 89.7828 124.008 89.725 123.892 89.5515C123.776 89.3781 123.95 89.0312 124.008 88.7421C124.066 88.5109 124.239 88.1062 124.123 87.9328C124.066 87.8172 123.719 87.7593 123.487 87.7015C123.256 87.6437 122.967 87.5281 122.794 87.6437C122.62 87.7593 122.505 88.3953 122.447 88.7421C122.273 89.5515 122.042 90.3609 121.869 91.1125C121.753 91.5171 121.637 91.9796 121.58 92.3265C121.58 92.4421 121.58 92.5 121.637 92.6156C121.811 92.789 122.736 92.9625 122.909 92.9046C123.083 92.789 123.083 92.4421 123.141 92.1531C123.198 91.864 123.256 91.5171 123.372 91.4015C123.487 91.2859 123.95 91.4593 124.239 91.5171C126.031 91.9218 127.708 92.3265 129.5 92.789C129.789 92.8468 130.194 92.9625 130.309 92.9046C130.483 92.789 130.483 92.4421 130.541 92.1531C130.656 91.8062 130.772 91.5171 130.714 91.4015Z" fill="#BB7043"/>
<path d="M108.109 112.214C107.994 112.041 107.82 111.81 107.647 111.752C107.473 111.694 107.126 111.925 106.953 112.099C106.722 112.272 106.433 112.503 106.433 112.677C106.433 112.85 106.664 113.139 106.837 113.37C107.762 114.585 108.572 115.683 109.439 116.897C109.786 117.36 110.248 117.88 110.306 118.285C110.364 118.631 110.19 118.978 109.728 119.152C109.208 119.325 108.687 118.747 108.456 118.458C108.456 118.458 108.398 118.458 108.34 118.458C108.283 118.516 108.109 118.631 108.051 118.689C107.936 118.805 107.531 119.094 107.415 119.152C107.3 119.21 107.184 119.325 107.069 119.383C107.011 119.441 107.011 119.499 107.069 119.499C107.358 119.845 107.531 120.135 107.82 120.366C108.687 121.175 109.728 121.117 110.884 120.25C111.636 119.672 112.098 119.036 112.098 118.4C112.156 117.649 111.694 117.07 111.058 116.203C110.075 114.874 109.092 113.544 108.109 112.214Z" fill="#BB7043"/>
<path d="M117.475 107.358C116.377 106.548 115.278 106.201 114.238 106.259C113.197 106.317 112.099 106.837 111.231 107.993C111.058 108.225 110.827 108.572 110.711 108.861C110.306 109.67 110.249 110.479 110.364 111.231C110.538 112.214 111.116 113.37 112.272 114.237C113.37 115.047 114.469 115.393 115.509 115.278C116.492 115.162 117.649 114.7 118.516 113.543C119.325 112.503 119.556 111.347 119.383 110.306C119.209 109.323 118.631 108.225 117.475 107.358ZM117.186 112.561C116.088 113.948 114.642 113.775 113.37 112.792C112.33 112.04 111.983 110.942 112.156 110.017C112.214 109.67 112.388 109.323 112.619 109.034C113.139 108.34 113.833 108.109 114.469 108.051C115.047 108.051 115.799 108.283 116.434 108.745C117.128 109.265 117.475 109.959 117.649 110.595C117.764 111.231 117.706 111.925 117.186 112.561Z" fill="#BB7043"/>
<path d="M127.534 97.6453C125.511 96.7203 123.603 95.8532 121.695 94.9282C121.406 94.8125 120.944 94.5235 120.77 94.5813C120.597 94.6391 120.481 95.0438 120.366 95.275C120.25 95.5063 120.077 95.8532 120.134 96.0266C120.25 96.2 120.77 96.3735 121.059 96.5469C121.927 96.9516 122.736 97.3563 123.603 97.7032C123.777 97.761 123.95 97.8188 124.008 97.9922C123.834 98.1079 123.661 98.1078 123.43 98.1078C122.216 98.05 121.002 97.9922 119.788 97.9344C119.556 97.9344 119.325 97.8766 119.209 97.9922C119.094 98.1079 118.978 98.3391 118.92 98.5704C118.805 98.8594 118.516 99.2641 118.631 99.4375C118.747 99.611 119.267 99.7844 119.556 99.9C121.522 100.825 123.43 101.692 125.395 102.559C125.684 102.675 126.147 102.964 126.32 102.906C126.494 102.848 126.609 102.502 126.725 102.213C126.841 101.981 127.014 101.634 127.014 101.461C126.956 101.345 126.725 101.23 126.552 101.172C125.453 100.652 124.47 100.189 123.43 99.7266C123.256 99.6688 123.083 99.611 122.967 99.4375C123.141 99.3219 123.372 99.3797 123.545 99.3797C124.817 99.4375 126.031 99.4953 127.303 99.5532C127.534 99.5532 127.766 99.611 127.881 99.4954C127.997 99.3797 128.113 99.0907 128.228 98.8594C128.344 98.6282 128.517 98.3391 128.459 98.1657C128.344 97.9344 127.823 97.761 127.534 97.6453Z" fill="#BB7043"/>
<path d="M122.851 106.317C122.331 105.912 121.869 105.623 121.348 105.219L118.689 103.253C118.226 102.906 117.764 102.559 117.301 102.212C117.012 102.039 116.781 101.808 116.608 101.808C116.434 101.808 116.261 102.097 116.145 102.27C115.972 102.501 115.798 102.733 115.74 102.848C115.74 102.906 115.625 103.022 115.683 103.079C115.741 103.253 116.203 103.542 116.492 103.715C118.284 104.987 120.019 106.259 121.753 107.531C122.042 107.704 122.447 108.109 122.62 108.051C122.794 108.051 122.967 107.704 123.14 107.473C123.314 107.242 123.545 107.011 123.545 106.779C123.43 106.664 123.083 106.49 122.851 106.317Z" fill="#BB7043"/>
<path d="M90.65 127.708L89.8985 124.47C89.7828 123.892 89.6094 123.372 89.4938 122.794C89.436 122.505 89.3781 122.158 89.2625 122.042C89.1469 121.927 88.8578 122.042 88.6266 122.1C88.3375 122.158 88.0485 122.216 87.9328 122.273C87.875 122.273 87.7594 122.331 87.7016 122.389C87.6438 122.562 87.8172 123.083 87.875 123.372C88.3953 125.511 88.8578 127.592 89.3781 129.731C89.436 130.02 89.5516 130.598 89.6672 130.714C89.8406 130.83 90.1875 130.656 90.4188 130.598C90.7078 130.541 91.0547 130.541 91.1703 130.367C91.286 130.194 91.1125 129.789 91.0547 129.558C90.9391 128.864 90.8235 128.344 90.65 127.708Z" fill="#BB7043"/>
<path d="M84.5798 126.956C84.4641 126.84 84.0016 127.014 83.7126 127.072C83.0766 127.245 82.5563 127.361 81.9204 127.534C81.6313 127.592 81.2266 127.65 81.111 127.823C81.0532 127.939 81.111 128.228 81.1688 128.401C81.2266 128.633 81.2844 128.922 81.4001 128.98C81.5157 129.095 81.9204 128.922 82.2094 128.864C82.4985 128.806 82.9032 128.633 83.0188 128.748C83.1923 128.922 83.0766 129.442 83.0188 129.615C82.8454 130.136 82.5563 130.598 81.9782 130.83C80.9376 131.292 80.0704 130.83 79.5501 130.367C79.1454 129.962 78.8563 129.5 78.6251 128.806C78.3938 128.112 78.3938 127.476 78.5094 126.956C78.6829 126.147 79.1454 125.395 80.0704 125.106C80.8798 124.875 81.6313 125.222 82.036 125.626C82.1516 125.742 82.2673 125.858 82.3829 125.8C82.4985 125.8 82.6141 125.626 82.6719 125.569C82.7876 125.511 82.8454 125.395 82.961 125.337C83.1344 125.164 83.4813 124.99 83.4235 124.759C83.4235 124.586 83.1923 124.47 83.0766 124.355C82.2094 123.603 80.9954 123.256 79.4923 123.719C79.261 123.776 79.0298 123.892 78.7985 124.008C77.411 124.701 76.7751 125.973 76.6016 127.361C76.5438 128.17 76.6594 129.269 77.1219 130.136C77.5266 130.887 78.0469 131.523 78.6829 131.986C79.4923 132.506 80.4173 132.795 81.6313 132.564C82.3829 132.39 83.0188 132.101 83.4813 131.697C84.4641 130.83 84.8688 129.384 84.6376 127.708C84.7532 127.419 84.6954 127.072 84.5798 126.956Z" fill="#BB7043"/>
<path d="M99.3796 118.978C99.264 118.689 99.0327 118.227 98.8593 118.111C98.6858 118.053 98.3968 118.227 98.1077 118.4C97.8765 118.516 97.5296 118.631 97.4718 118.805C97.414 118.92 97.5874 119.209 97.703 119.383C98.2233 120.423 98.7437 121.348 99.264 122.389C99.3796 122.678 99.6108 122.967 99.7265 123.314C99.8999 123.719 99.553 123.603 99.3218 123.488C97.5296 122.678 95.853 121.811 94.1187 120.944C93.8874 120.828 93.4827 120.597 93.3093 120.655C93.1358 120.655 92.6733 120.944 92.5577 121.002C92.4421 121.059 92.4421 121.117 92.3843 121.175C92.3843 121.348 92.6155 121.811 92.789 122.1C93.7718 124.008 94.7546 125.858 95.7374 127.823C95.9108 128.113 96.0843 128.633 96.2577 128.691C96.4312 128.748 96.7202 128.517 96.9515 128.402C97.1249 128.286 97.5296 128.17 97.5874 127.997C97.6452 127.881 97.4718 127.592 97.3561 127.419C96.7202 126.147 96.1421 125.048 95.4483 123.777C95.3327 123.603 95.1593 123.314 95.2749 123.198C95.3327 123.141 95.564 123.256 95.6796 123.314C97.4718 124.123 99.1483 124.991 100.883 125.8C101.114 125.916 101.461 126.147 101.692 126.089C101.923 126.031 102.559 125.742 102.617 125.569C102.675 125.395 102.386 124.933 102.212 124.644C101.345 122.736 100.362 120.886 99.3796 118.978Z" fill="#BB7043"/>
<path d="M27.2299 89.7829C27.2877 89.6095 26.9987 89.0313 26.8831 88.8579C26.7096 88.6267 26.5362 88.6266 26.2471 88.6845C23.6456 88.8001 21.044 88.9157 18.4424 89.0313C18.269 89.0313 17.9799 89.0313 17.8643 89.147C17.7487 89.2626 17.9221 89.6095 18.0377 89.8407C18.1534 90.1298 18.269 90.4188 18.3846 90.5345C18.5002 90.6501 18.6737 90.6501 18.8471 90.6501C19.194 90.6501 19.4831 90.6501 19.8299 90.5923C20.0034 90.5923 20.1768 90.5923 20.2924 90.6501C20.4081 90.7657 20.5237 91.0548 20.5815 91.2282C20.7549 91.6907 20.9284 92.0376 21.1018 92.5001C21.2174 92.7313 21.3331 92.9626 21.3331 93.136C21.3331 93.2517 21.1596 93.3673 21.1018 93.4829C20.9862 93.5985 20.8706 93.7142 20.7549 93.8298C20.5815 94.0032 20.1768 94.3501 20.119 94.5235C20.119 94.697 20.2924 95.0438 20.4081 95.2751C20.5237 95.5642 20.5815 95.911 20.8127 95.911C20.9862 95.911 21.1596 95.7376 21.2752 95.5642C22.2581 94.6392 23.1252 93.8298 24.1081 92.9048C25.1487 91.922 25.9002 91.1704 26.9409 90.2454C27.0565 90.072 27.2299 89.9563 27.2299 89.7829ZM24.1081 90.7657C23.7612 91.1126 23.4143 91.4017 23.0674 91.6907C22.9518 91.8063 22.6627 92.1532 22.4893 92.0954C22.3159 92.0954 22.1424 91.5173 22.0846 91.286C21.969 91.0548 21.7377 90.5923 21.8534 90.4767C21.969 90.361 22.3159 90.361 22.5471 90.361C23.0096 90.3032 23.4143 90.2454 23.8768 90.2454C24.0502 90.2454 24.4549 90.1298 24.5706 90.2454C24.6284 90.361 24.1659 90.6501 24.1081 90.7657Z" fill="#BB7043"/>
</svg>
