<svg width="148" height="148" viewBox="0 0 148 148" fill="none" xmlns="http://www.w3.org/2000/svg">
<path d="M74 0C33.1266 0 0 33.1266 0 74C0 114.873 33.1266 148 74 148C114.873 148 148 114.873 148 74C148 33.1266 114.873 0 74 0ZM145.63 67.5828C145.688 67.6406 145.745 67.6984 145.745 67.8141C145.803 68.1031 145.803 68.6234 145.803 68.9703C145.861 69.7219 145.861 70.4734 145.919 71.2828C145.919 71.5719 146.034 72.2078 145.919 72.3812C145.803 72.4969 145.514 72.4969 145.283 72.4969C145.052 72.4969 144.762 72.5547 144.647 72.4391C144.531 72.3234 144.531 71.9187 144.531 71.6875C144.531 71.4563 144.531 71.0516 144.416 70.9359C144.3 70.8203 143.895 70.8781 143.606 70.8781C141.872 70.9938 140.253 71.0516 138.519 71.1672C138.23 71.1672 137.883 71.225 137.767 71.1094C137.652 70.9938 137.652 70.7047 137.652 70.3578C137.652 70.0687 137.594 69.7219 137.709 69.6063C137.825 69.4906 138.23 69.4906 138.461 69.4906C140.195 69.375 141.814 69.3172 143.548 69.2016C143.838 69.2016 144.242 69.2016 144.358 69.0859C144.473 68.9125 144.416 68.6234 144.358 68.3344C144.358 68.0453 144.3 67.6984 144.416 67.5828C144.531 67.5828 145.456 67.525 145.63 67.5828ZM141.872 60.0094C142.681 59.7203 143.433 59.8937 143.953 60.125C144.184 60.2406 144.416 60.4141 144.647 60.7031C144.878 60.9344 144.994 61.2812 145.109 61.6859C145.283 62.3797 145.109 63.1312 144.936 63.6516C144.878 63.825 144.762 64.0563 144.589 64.1141C144.416 64.1719 144.184 63.9984 144.011 63.9406C143.895 63.8828 143.548 63.825 143.491 63.6516C143.433 63.4781 143.664 63.3047 143.722 63.0734C143.78 62.9 143.838 62.4953 143.722 62.2062C143.606 61.8594 143.375 61.6281 143.086 61.5703C142.913 61.5125 142.681 61.5125 142.45 61.6281C141.988 61.8594 141.93 62.4375 141.814 62.9C141.583 63.9406 141.294 64.8656 140.137 65.2125C138.923 65.6172 137.767 65.2703 137.131 64.5766C136.784 64.2297 136.553 63.7094 136.438 63.0734C136.264 62.1484 136.611 61.4547 137.016 60.8766C137.131 60.7609 137.363 60.4141 137.536 60.4141C137.767 60.4141 137.941 60.5875 138.114 60.7031C138.172 60.7609 138.288 60.8188 138.345 60.8766C138.403 60.9344 138.577 60.9922 138.577 61.1078C138.577 61.2234 138.403 61.3391 138.345 61.4547C138.056 61.7438 137.825 62.1484 137.825 62.5531C137.825 63.3047 138.403 63.7094 139.039 63.6516C139.906 63.5938 140.08 62.8422 140.195 62.2062C140.6 61.3969 140.831 60.4141 141.872 60.0094ZM139.559 46.8281C139.617 46.9437 139.675 47.1172 139.733 47.2906C139.791 47.4062 139.906 47.6375 139.848 47.6953C139.791 47.8109 139.502 47.8688 139.328 47.9266C138.923 48.1 138.577 48.2156 138.172 48.3312C137.998 48.3891 137.709 48.5047 137.652 48.6203C137.594 48.7359 137.709 48.9672 137.767 49.0828C137.883 49.4297 137.998 49.7766 138.172 50.0656C138.23 50.2969 138.287 50.4703 138.403 50.5281C138.519 50.5859 138.75 50.4703 138.923 50.3547C139.386 50.1812 139.617 50.0656 140.08 49.95C140.253 49.8922 140.484 49.7766 140.6 49.8344C140.716 49.8922 140.773 50.1234 140.831 50.3547C140.889 50.5281 141.005 50.7594 140.947 50.875C140.889 51.0484 140.484 51.1063 140.311 51.1641C138.808 51.7422 137.478 52.2625 135.975 52.8406C135.744 52.8984 135.397 53.1297 135.281 53.0141C135.166 52.9562 135.108 52.725 135.05 52.5516C134.992 52.3203 134.877 52.1469 134.934 52.0312C134.992 51.9156 135.339 51.8 135.512 51.7422C135.917 51.5687 136.38 51.3953 136.784 51.2797C136.958 51.2219 137.305 51.1062 137.363 50.9906C137.42 50.875 137.305 50.6437 137.247 50.5281C137.131 50.1813 137.016 49.8922 136.842 49.4875C136.784 49.3719 136.727 49.0828 136.611 49.025C136.495 48.9672 136.206 49.0828 135.975 49.1984C135.512 49.3719 135.108 49.5453 134.703 49.7188C134.53 49.7766 134.241 49.95 134.067 49.8922C133.952 49.8344 133.894 49.6031 133.836 49.3719C133.778 49.1984 133.663 48.9672 133.72 48.8516C133.778 48.7359 134.183 48.6203 134.356 48.5625C135.917 47.9844 137.42 47.4062 139.039 46.7703C139.386 46.7125 139.502 46.6547 139.559 46.8281ZM136.148 41.9719C136.033 41.7984 135.917 41.5672 135.975 41.4516C136.033 41.3359 136.611 40.9891 136.784 41.0469C136.842 41.0469 136.9 41.1047 136.958 41.1625C137.073 41.3359 137.247 41.6828 137.363 41.9719C137.594 42.4922 137.883 43.0125 138.114 43.5328C138.23 43.7641 138.461 44.1688 138.403 44.2844C138.345 44.4 138.172 44.4578 137.998 44.5734C137.825 44.6312 137.652 44.7469 137.536 44.7469C137.42 44.6891 137.305 44.4 137.247 44.2844C137.189 44.1109 137.073 43.8219 136.958 43.8219C136.842 43.7641 136.611 43.9375 136.38 44.0531C135.223 44.6312 134.125 45.1516 132.911 45.7297C132.738 45.8453 132.448 45.9609 132.391 45.9609C132.275 45.9031 132.217 45.7297 132.102 45.4984C131.986 45.325 131.87 45.0938 131.928 44.9781C131.986 44.8625 132.217 44.7469 132.448 44.6891C133.605 44.1109 134.703 43.5906 135.859 43.0125C136.033 42.8969 136.322 42.7812 136.38 42.6656C136.38 42.3766 136.264 42.2031 136.148 41.9719ZM130.83 34.3406C131.639 33.8203 132.333 33.7625 132.969 33.8203C133.258 33.8781 133.605 33.9937 133.894 34.1672C134.183 34.3406 134.53 34.6297 134.761 34.9766C135.455 35.9016 135.512 36.9422 135.166 37.8094C134.992 38.2141 134.703 38.6188 134.241 38.9656C133.836 39.3125 133.258 39.4859 132.738 39.6016C131.812 39.775 130.945 39.7172 130.02 39.7172C129.384 39.7172 128.691 39.6594 127.997 39.6594C127.823 39.6594 127.419 39.6594 127.361 39.5438C127.303 39.4281 127.303 39.3125 127.303 39.1969C127.303 39.0813 127.303 38.9656 127.303 38.85C127.303 38.6766 127.245 38.3297 127.419 38.2141C127.534 38.0984 127.939 38.1562 128.055 38.1562C128.633 38.1562 129.095 38.2141 129.673 38.2719C129.789 38.2719 129.962 38.2719 130.02 38.2141C130.078 38.1562 129.962 37.9828 129.905 37.925C129.384 37.2313 129.384 36.5953 129.5 36.0172C129.673 35.4969 130.078 34.8609 130.83 34.3406ZM123.198 32.2016C124.528 31.1031 125.8 30.0625 127.13 28.9062C127.303 28.7328 127.65 28.5016 127.708 28.3281C127.766 28.0969 127.188 27.6922 127.245 27.4609C127.245 27.3453 127.477 27.1719 127.708 26.9984C127.997 26.7672 128.17 26.5359 128.402 26.7094C128.748 26.9984 129.211 27.6922 129.616 28.0969C129.731 28.2703 129.905 28.4438 129.905 28.5594C129.905 28.7328 129.384 29.0797 129.211 29.2531C127.592 30.5828 126.089 31.8547 124.47 33.1844C124.239 33.3578 123.834 33.7625 123.719 33.7625C123.603 33.7625 123.372 33.4734 123.198 33.2422C123.025 33.0687 122.794 32.7797 122.794 32.6641C122.678 32.6063 123.025 32.375 123.198 32.2016ZM115.856 15.3781C116.203 15.5516 116.55 15.8984 116.897 16.1875C117.244 16.4766 117.591 16.7078 117.88 16.9969C118.458 17.5172 118.747 18.1531 118.92 18.6734C119.209 19.7719 119.094 21.1594 118.053 22.4312C117.012 23.6453 115.798 24.1078 114.584 23.9922C114.006 23.9344 113.312 23.7609 112.677 23.2984C112.156 22.9516 111.694 22.5469 111.173 22.1422C111 22.0266 110.827 21.8531 110.769 21.7375C110.769 21.5641 111.116 21.1594 111.289 20.9281C112.677 19.1359 113.948 17.4594 115.336 15.6672C115.509 15.4359 115.625 15.2047 115.856 15.3781ZM104.178 16.5344C105.219 14.7422 106.202 13.0078 107.242 11.2156C107.416 10.9844 107.589 10.4641 107.762 10.4062C107.936 10.3484 108.283 10.5797 108.572 10.7531C108.745 10.8688 108.977 10.9844 109.092 11.1C109.15 11.2156 109.092 11.4469 109.092 11.6781C108.919 12.8344 108.745 13.9906 108.63 15.1469C108.63 15.3203 108.572 15.5516 108.688 15.725C108.803 15.6672 108.919 15.4938 108.977 15.3781C109.439 14.6266 109.844 13.875 110.306 13.0656C110.422 12.8344 110.653 12.3141 110.884 12.2563C111.058 12.1984 111.347 12.4297 111.578 12.5453C111.809 12.6609 112.156 12.8344 112.214 13.0078C112.272 13.1812 111.925 13.6438 111.809 13.875C110.769 15.6672 109.786 17.4016 108.688 19.1938C108.514 19.425 108.341 19.9453 108.167 20.0031C107.994 20.0609 107.762 19.8297 107.531 19.7141C107.3 19.5984 107.011 19.4828 106.953 19.3094C106.838 19.1938 106.895 18.9625 106.953 18.7313C107.127 17.5172 107.3 16.3609 107.473 15.1469C107.531 14.9734 107.589 14.7422 107.473 14.5688C107.3 14.6266 107.242 14.8 107.184 14.9734C106.606 15.8984 106.086 16.8234 105.508 17.8062C105.392 17.9797 105.334 18.2109 105.219 18.2109C105.045 18.2109 104.814 18.0375 104.525 17.8641C104.294 17.7484 103.947 17.575 103.889 17.4594C103.716 17.2281 104.005 16.8234 104.178 16.5344ZM96.4891 13.5859C97.9344 11.6781 99.3797 9.65469 100.767 7.74687C100.941 7.51562 100.998 7.28438 101.287 7.4C101.461 7.45781 101.75 7.57344 101.981 7.68906C102.212 7.80469 102.502 7.8625 102.559 7.97813C102.675 8.15156 102.559 8.67188 102.502 9.01875C102.097 11.2734 101.75 13.4703 101.403 15.725C101.403 15.8984 101.345 16.1297 101.23 16.1875C101.056 16.3031 100.767 16.0719 100.536 15.9563C100.247 15.8406 99.9 15.725 99.7844 15.6094C99.7266 15.4937 99.7844 15.2047 99.8422 14.9734C99.9 14.7422 99.9578 14.4531 99.9 14.2797C99.7844 14.1063 99.4953 14.0484 99.2641 13.9328C98.975 13.8172 98.7438 13.6438 98.5703 13.7016C98.3969 13.7016 98.2234 13.9906 98.1078 14.1641C97.9344 14.3953 97.8187 14.6266 97.6453 14.6844C97.4719 14.6844 97.1828 14.5688 96.9516 14.4531C96.7203 14.3375 96.3734 14.2219 96.3156 14.1062C96.2578 13.9328 96.4312 13.7594 96.4891 13.5859ZM85.1578 9.25C85.5047 7.63125 85.8516 6.0125 86.1984 4.39375C86.2563 4.1625 86.2563 4.04688 86.4875 4.04688C86.6609 4.04688 86.7766 4.10469 87.0078 4.1625C87.1234 4.22031 87.3547 4.22031 87.4125 4.33594C87.4703 4.45156 87.4125 4.74062 87.3547 4.85625C87.2391 5.31875 87.1813 5.60781 87.1234 6.0125C87.0656 6.18594 87.0078 6.475 87.0656 6.59062C87.1234 6.70625 87.3547 6.70625 87.5281 6.76406C87.875 6.82188 88.2219 6.9375 88.5687 6.99531C88.8 7.05313 88.9734 7.11094 89.0891 7.05312C89.2047 6.99531 89.2047 6.70625 89.2625 6.53281C89.3781 6.07031 89.4359 5.78125 89.4938 5.37656C89.5516 5.20312 89.5516 4.91406 89.6672 4.85625C89.7828 4.79844 90.0141 4.85625 90.1875 4.91406C90.3609 4.97188 90.65 4.97188 90.7078 5.0875C90.8234 5.20312 90.65 5.60781 90.5922 5.78125C90.2453 7.34219 89.9563 8.7875 89.6672 10.2906C89.6094 10.5219 89.5516 10.9266 89.4359 10.9844C89.3203 11.0422 89.0891 10.9844 88.9156 10.9266C88.6844 10.8687 88.4531 10.8688 88.3953 10.7531C88.3375 10.6375 88.4531 10.2906 88.4531 10.1172C88.5687 9.65469 88.6266 9.19219 88.7422 8.7875C88.8 8.61406 88.9156 8.26719 88.8 8.15156C88.7422 8.03594 88.5109 8.03594 88.3375 7.97813C87.9906 7.92031 87.6437 7.8625 87.2391 7.74687C87.1234 7.74687 86.8344 7.63125 86.7188 7.68906C86.6031 7.74688 86.5453 8.09375 86.5453 8.26719C86.4297 8.72969 86.3719 9.19219 86.2562 9.65469C86.1984 9.82812 86.1984 10.175 86.0828 10.2328C85.9672 10.2906 85.7359 10.2328 85.5047 10.175C85.3312 10.1172 85.0422 10.1172 84.9844 10.0016C84.9844 9.82812 85.1 9.42344 85.1578 9.25ZM80.0703 3.29531C80.1281 3.2375 80.1859 3.2375 80.2438 3.2375C80.475 3.2375 80.8219 3.29531 81.1109 3.35313C81.6891 3.41094 82.2672 3.46875 82.8453 3.52656C83.0766 3.52656 83.5391 3.58438 83.6547 3.7C83.7125 3.81562 83.6547 3.98906 83.6547 4.1625C83.6547 4.33594 83.6547 4.56719 83.5391 4.625C83.4234 4.68281 83.1344 4.625 82.9609 4.625C82.7875 4.625 82.4984 4.50938 82.3828 4.625C82.2672 4.68281 82.2672 4.97188 82.2672 5.20312C82.0938 6.53281 81.9781 7.68906 81.8625 9.01875C81.8625 9.25 81.8047 9.53906 81.7469 9.59688C81.6312 9.65469 81.4578 9.59688 81.1687 9.59688C80.9375 9.59688 80.7063 9.59688 80.6484 9.48125C80.5906 9.36562 80.6484 9.07656 80.6484 8.90312C80.8219 7.57344 80.9375 6.41719 81.0531 5.0875C81.0531 4.91406 81.1109 4.56719 81.0531 4.45156C80.9375 4.33594 80.7062 4.33594 80.475 4.33594C80.2438 4.33594 80.0125 4.33594 79.9547 4.22031C79.8969 4.10469 79.9547 3.41094 80.0703 3.29531ZM71.3984 7.45781C71.5141 6.76406 71.8609 6.30156 72.3234 6.0125C72.3812 5.95469 72.4969 5.89687 72.4969 5.78125C72.4969 5.66563 72.15 5.37656 72.0922 5.31875C71.6875 4.79844 71.5141 3.98906 71.8031 3.17969C71.9766 2.775 72.2078 2.37031 72.5547 2.13906C72.9016 1.90781 73.3641 1.73438 73.9422 1.67656C74.6937 1.61875 75.3875 1.90781 75.7922 2.3125C76.1969 2.71719 76.4859 3.29531 76.4859 4.04688C76.4859 4.68281 76.1969 5.14531 75.9078 5.49219C75.7922 5.60781 75.5609 5.72344 75.5609 5.83906C75.5609 5.95469 75.7344 6.0125 75.7922 6.07031C76.0813 6.30156 76.2547 6.53281 76.4281 6.87969C76.6016 7.34219 76.7172 7.97813 76.5437 8.55625C76.2547 9.53906 75.4453 10.175 74.2891 10.2906C73.075 10.4062 72.0344 9.82812 71.6297 9.01875C71.4563 8.67188 71.3406 8.09375 71.3984 7.45781ZM63.4781 2.65937C63.9406 2.54375 64.75 2.48594 65.3281 2.42812C65.5594 2.42812 65.7906 2.37031 65.8484 2.42812C66.0219 2.54375 66.0219 3.12188 66.0219 3.41094C66.3109 5.49219 66.5422 7.45781 66.7734 9.53906C66.8313 9.82812 66.9469 10.3484 66.8312 10.4641C66.7156 10.5797 66.3688 10.5797 66.1375 10.6375C65.9062 10.6953 65.5594 10.7531 65.3859 10.6375C65.2703 10.5219 65.2703 10.1172 65.2125 9.88594C64.9813 8.15156 64.8078 6.53281 64.5766 4.79844C64.5187 4.56719 64.5188 4.10469 64.4031 3.98906C64.2297 3.81562 63.5938 4.10469 63.4203 3.93125C63.3047 3.87344 63.3047 3.52656 63.3047 3.29531C63.3047 3.00625 63.1891 2.71719 63.4781 2.65937ZM45.9031 7.16875C46.0187 7.11094 46.4812 6.9375 46.6547 6.87969C46.8859 6.87969 47.2328 7.11094 47.4062 7.28438C49.025 8.325 50.5281 9.36563 52.1469 10.4062C52.3781 10.5219 52.6672 10.6953 52.5516 10.2906C52.4359 10.0016 52.3203 9.65469 52.2047 9.36563C51.8 8.325 51.4531 7.34219 51.0484 6.24375C50.9906 6.0125 50.875 5.78125 50.9328 5.60781C50.9906 5.43437 51.3953 5.37656 51.5687 5.26094C51.8 5.14531 52.1469 4.97188 52.3203 5.0875C52.4938 5.20312 52.6094 5.72344 52.725 6.0125C53.4187 7.97812 54.1703 9.88594 54.8641 11.9094C54.9797 12.1984 55.2109 12.6609 55.1531 12.8344C55.0953 13.0078 54.4594 13.2391 54.2281 13.2391C53.9969 13.2391 53.65 12.95 53.4766 12.8344C51.8578 11.7938 50.3547 10.8109 48.7359 9.77031C48.6203 9.7125 48.4469 9.53906 48.3312 9.65469C48.2156 9.7125 48.3891 10.0594 48.4469 10.2328C48.9094 11.5625 49.3719 12.7188 49.8344 14.0484C49.8922 14.2797 50.0078 14.5109 49.95 14.6844C49.8922 14.8 49.4875 14.9156 49.3141 14.9734C49.0828 15.0312 48.7938 15.2047 48.6203 15.1469C48.4469 15.0891 48.3312 14.5688 48.2156 14.2797C47.4641 12.2563 46.7703 10.3484 46.0766 8.325C45.9609 8.03594 45.7297 7.57344 45.7875 7.4C45.7297 7.28438 45.7297 7.28437 45.9031 7.16875ZM38.4453 11.1C38.6766 10.9266 39.0234 10.7531 39.3703 10.6375C40.1219 10.2328 40.8156 9.88594 41.5672 9.48125C41.7406 9.42344 41.9141 9.30781 42.0297 9.36563C42.1453 9.42344 42.2609 9.7125 42.3766 9.88594C42.4922 10.0594 42.6656 10.3484 42.6078 10.4641C42.55 10.5797 42.3188 10.6953 42.0875 10.8109C41.6828 11.0422 41.3359 11.2156 40.9313 11.4469C40.7 11.5625 40.4688 11.6781 40.4688 11.7937C40.4109 11.9672 40.6422 12.2563 40.7578 12.5453C40.8734 12.7766 41.0469 13.1812 41.2203 13.2391C41.3359 13.2969 41.5672 13.1234 41.7406 13.0656C42.1453 12.8344 42.4922 12.6609 42.8969 12.4875C43.1281 12.3719 43.3016 12.2562 43.4172 12.3141C43.5906 12.3719 44.0531 13.2391 43.9953 13.4125C43.9375 13.5281 43.7063 13.6437 43.5328 13.7594C43.1859 13.9328 42.7812 14.1641 42.4344 14.3375C42.2031 14.4531 41.9719 14.5687 41.9719 14.6844C41.9141 14.8578 42.2031 15.3203 42.3766 15.6094C42.4922 15.8406 42.7234 16.4188 42.9547 16.4766C43.0703 16.5344 43.3016 16.3609 43.5328 16.2453C43.9375 16.0141 44.2844 15.8406 44.6891 15.6094C44.9203 15.4937 45.0938 15.3781 45.2094 15.3781C45.3828 15.4359 45.4406 15.6672 45.5563 15.8984C45.6719 16.1297 45.8453 16.3609 45.7875 16.5344C45.6719 16.7078 45.2094 16.9391 44.9203 17.0547C44.2844 17.4016 43.6484 17.6906 43.0703 18.0375C42.8391 18.1531 42.3188 18.5 42.1453 18.4422C41.9719 18.3844 41.7984 17.9219 41.625 17.6328C40.6422 15.7828 39.7172 14.0484 38.7344 12.1984C38.5609 11.7937 38.1562 11.2734 38.4453 11.1ZM31.5078 15.5516C31.6812 15.3781 32.0859 15.1469 32.375 14.9734C33.0687 14.5109 33.7047 14.0484 34.3984 13.5859C34.5719 13.4703 34.6875 13.3547 34.8031 13.4125C34.9188 13.4703 35.0922 13.7016 35.2078 13.875C35.3234 14.0484 35.5547 14.2797 35.4969 14.4531C35.4391 14.5688 35.2078 14.7422 35.0344 14.8578C34.6875 15.0891 34.3406 15.3203 33.9359 15.6094C33.7047 15.725 33.5312 15.8406 33.4734 16.0141C33.4156 16.1875 33.7047 16.4766 33.8781 16.7078C33.9937 16.9391 34.225 17.3438 34.3984 17.3438C34.5141 17.3438 34.7453 17.1703 34.9188 17.1125C35.3234 16.8234 35.6125 16.65 35.9594 16.4187C36.1906 16.3031 36.3062 16.1297 36.4797 16.1875C36.6531 16.1875 37.2313 17.0547 37.1734 17.2281C37.1734 17.3438 36.9422 17.4594 36.7687 17.6328C36.4797 17.8641 36.075 18.0953 35.7281 18.3266C35.5547 18.4422 35.3234 18.5578 35.2656 18.7313C35.2078 18.9047 35.6125 19.3672 35.7859 19.5984C35.9594 19.8297 36.2484 20.4078 36.4219 20.4078C36.5953 20.4078 36.7687 20.2922 36.9422 20.1187C37.3469 19.8297 37.6359 19.6562 38.0406 19.3672C38.2141 19.2516 38.4453 19.0781 38.5609 19.0781C38.7344 19.1359 38.85 19.3672 38.9656 19.5406C39.0812 19.7719 39.3125 20.0031 39.2547 20.1187C39.1969 20.35 38.7344 20.5813 38.4453 20.7547C37.8672 21.1594 37.2891 21.5641 36.7109 21.9688C36.4797 22.1422 36.0172 22.4891 35.8438 22.4891C35.6703 22.4313 35.4391 22.0266 35.2656 21.7375C34.0516 20.0031 32.9531 18.3844 31.7969 16.65C31.6812 16.2453 31.2188 15.7828 31.5078 15.5516ZM22.2578 23.4141C22.3734 23.2406 22.6047 23.125 22.7781 22.9516C22.9516 22.8359 23.125 22.6047 23.2406 22.6047C23.3563 22.6047 23.5875 22.7781 23.7031 22.8937C24.6859 23.6453 25.6688 24.3391 26.5938 25.1484C26.7672 25.2641 26.8828 25.4375 27.0562 25.4375C27.0562 25.2641 26.9406 25.0906 26.825 24.9172C26.1891 23.8766 25.5531 22.8359 24.975 21.7375C24.8594 21.5641 24.6859 21.3328 24.7437 21.2172C24.8016 21.1016 24.975 20.9281 25.1484 20.8125C25.3219 20.6391 25.4375 20.5234 25.6109 20.4656C25.7844 20.4656 25.9578 20.6391 26.1313 20.7547C27.1719 21.5641 28.1547 22.3156 29.1953 23.0672C29.3687 23.1828 29.4844 23.3563 29.7156 23.3563C29.7156 23.1828 29.5422 23.0094 29.4266 22.8359C28.675 21.7953 28.0391 20.6969 27.3453 19.6562C27.2297 19.425 27.0562 19.2516 27.0562 19.0781C27.1141 18.9047 27.4031 18.6734 27.5766 18.5C27.75 18.3266 28.0391 18.0375 28.2125 18.0375C28.3281 18.0375 28.4438 18.2687 28.5594 18.4422C29.7156 20.4078 30.8719 22.2578 32.0281 24.2812C32.2016 24.5125 32.5484 24.975 32.4328 25.2062C32.375 25.3797 31.6812 26.0156 31.5078 26.0156C31.3344 26.0734 31.1609 25.9 30.9297 25.7266C29.8312 24.9172 28.7328 24.1656 27.6344 23.2984C27.4609 23.1828 27.2875 23.0094 27.0562 22.9516C27.0562 23.1828 27.2297 23.3563 27.3453 23.5297C28.0391 24.6859 28.7328 25.8422 29.4266 27.0562C29.5422 27.2297 29.7156 27.5187 29.6578 27.6344C29.6 27.8078 29.4266 27.9234 29.2531 28.0969C29.0797 28.2703 28.9062 28.4438 28.7328 28.5016C28.5016 28.5594 28.0969 28.2125 27.9234 28.0391C26.0734 26.7094 24.3391 25.3797 22.4891 24.05C22.3156 23.8187 22.0266 23.6453 22.2578 23.4141ZM16.9969 29.4844C17.1703 29.1953 17.5172 28.8484 17.7484 28.5594C18.2109 27.9813 18.7312 27.4031 19.2516 26.7672C19.425 26.5359 19.8297 26.0156 20.0031 26.0156C20.1766 26.0156 20.35 26.1891 20.5234 26.3625C20.6969 26.4781 20.9281 26.6516 20.9281 26.825C20.9281 26.9984 20.6391 27.2875 20.5234 27.4609C20.35 27.6344 20.0609 27.9234 20.1187 28.0969C20.1187 28.2703 20.4656 28.5016 20.6969 28.675C22.0266 29.7734 23.2406 30.8141 24.6281 31.9703C24.8594 32.1437 25.1484 32.375 25.1484 32.5484C25.1484 32.7219 24.9172 32.8953 24.7437 33.1844C24.5703 33.4156 24.3969 33.7047 24.2234 33.7047C24.05 33.7047 23.8188 33.4156 23.5875 33.2422C22.2578 32.0859 20.9859 31.1031 19.6562 29.9469C19.4828 29.7734 19.1359 29.4844 18.9625 29.4844C18.7891 29.5422 18.6156 29.7734 18.4422 30.0047C18.2687 30.2359 18.0953 30.525 17.9219 30.525C17.7484 30.525 17.0547 29.9469 16.9969 29.7734C16.8813 29.6578 16.9391 29.6 16.9969 29.4844ZM12.6031 35.7281C12.7188 35.4969 12.95 35.15 13.1812 34.8609C13.6437 34.1672 14.1063 33.5312 14.5688 32.7797C14.6844 32.6063 14.7422 32.4906 14.9156 32.4328C15.0891 32.4328 15.2625 32.6063 15.4937 32.7219C15.6672 32.8375 15.9563 33.0109 15.9563 33.1266C15.9563 33.2422 15.7828 33.4734 15.6672 33.6469C15.4359 33.9938 15.2047 34.3406 14.9156 34.7453C14.8 34.9766 14.6266 35.15 14.6844 35.2656C14.7422 35.4391 15.0891 35.6125 15.3203 35.7859C15.5516 35.9016 15.8984 36.2484 16.0719 36.1906C16.1875 36.1906 16.3609 35.9016 16.4766 35.7859C16.7656 35.3813 16.9391 35.0922 17.1703 34.7453C17.2859 34.5141 17.4016 34.3406 17.5172 34.3406C17.6906 34.2828 18.5 34.8609 18.5578 35.0344C18.5578 35.15 18.4422 35.3812 18.3266 35.5547C18.0953 35.8438 17.8641 36.2484 17.6328 36.5953C17.5172 36.7687 17.3438 37 17.3438 37.1156C17.4016 37.2891 17.8641 37.5781 18.1531 37.7516C18.3844 37.925 18.8469 38.3297 19.0781 38.2719C19.1938 38.2141 19.3672 38.0406 19.4828 37.8094C19.7719 37.4047 19.9453 37.1156 20.2344 36.7109C20.35 36.5375 20.5234 36.3063 20.6391 36.2484C20.8125 36.1906 20.9859 36.4219 21.2172 36.5375C21.4484 36.6531 21.6797 36.8266 21.6797 36.9422C21.6797 37.1734 21.3328 37.5781 21.1594 37.8094C20.7547 38.4453 20.4078 38.9656 20.0031 39.5438C19.8297 39.775 19.5984 40.2953 19.3672 40.3531C19.1938 40.4109 18.7891 40.0641 18.5 39.8906C16.7656 38.7344 15.1469 37.6359 13.3547 36.4797C13.0078 36.3062 12.4297 36.075 12.6031 35.7281ZM8.325 43.5906C8.44063 43.3594 8.61406 43.0125 8.72969 42.7234C8.90312 42.4344 9.01875 42.1453 9.13438 41.8563C9.77031 40.7578 10.5219 40.2953 11.5625 40.6422C12.1984 40.8156 12.8344 41.2781 13.0656 41.7984C13.1234 41.8563 13.1234 41.9719 13.2391 42.0297C13.3547 42.0875 13.5859 41.9141 13.7016 41.7984C14.3375 41.4516 15.4359 41.5672 16.2453 42.2609C17.1125 42.9547 17.1703 43.9375 16.65 45.1516C16.4187 45.6719 16.0719 46.3656 15.725 46.9437C15.6094 47.1172 15.4938 47.4062 15.3781 47.4641C15.2047 47.5219 14.7422 47.2328 14.5109 47.1172C13.0078 46.3656 11.4469 45.5563 9.94375 44.8047C9.65469 44.6312 9.01875 44.3422 8.55625 44.1109C8.38281 43.9375 8.20937 43.8219 8.325 43.5906ZM3.46875 57.4656C3.58437 57.0609 3.7 56.5984 3.81562 56.2516C4.10469 55.5 4.50938 54.9797 4.97188 54.6328C5.83906 53.9391 7.16875 53.4766 8.7875 53.9391C10.2906 54.4016 11.2156 55.3266 11.5625 56.4828C11.7359 57.0609 11.8516 57.6969 11.6781 58.5062C11.5625 59.0844 11.3891 59.7203 11.2156 60.3563C11.1578 60.5875 11.1 60.8188 10.9844 60.8766C10.8109 60.9344 10.3484 60.8187 10.0594 60.7031C7.8625 60.125 5.83906 59.6047 3.64219 59.0844C3.35313 59.0266 3.12188 58.9688 3.17969 58.6797C3.2375 58.3906 3.41094 57.8703 3.46875 57.4656ZM2.08125 65.9062C2.08125 65.5594 2.19688 64.9234 2.25469 64.4031C2.3125 64.1719 2.3125 63.8828 2.37031 63.6516C2.42812 63.4203 2.42813 63.0734 2.54375 63.0156C2.65937 62.9 3.00625 63.0156 3.2375 63.0156C3.46875 63.0156 3.81563 63.0734 3.93125 63.1891C4.04688 63.3047 3.93125 63.6516 3.87344 63.9406C3.81562 64.1719 3.75781 64.5766 3.87344 64.6922C4.04688 64.8078 4.33594 64.8078 4.68281 64.8656C4.91406 64.9234 5.37656 64.9813 5.49219 64.9234C5.72344 64.75 5.60781 63.825 5.83906 63.6516C5.95469 63.5359 6.35938 63.6516 6.53281 63.6516C6.76406 63.6516 7.11094 63.7094 7.16875 63.825C7.34219 64.0563 6.99531 64.8656 7.11094 65.0969C7.22656 65.2703 7.68906 65.2703 7.92031 65.2703C8.15156 65.3281 8.67188 65.4437 8.7875 65.2703C8.96094 65.0391 8.84531 63.9984 9.13438 63.7672C9.25 63.6516 9.59688 63.7672 9.82812 63.825C10.0594 63.8828 10.4062 63.8828 10.4641 63.9984C10.5797 64.1141 10.4641 64.5188 10.4641 64.75C10.4062 65.3859 10.3484 65.7906 10.2328 66.3688C10.175 66.6 10.175 67.0047 10.0594 67.1203C9.94375 67.2359 9.42344 67.1203 9.13438 67.0625C8.03594 66.8891 7.16875 66.8313 6.07031 66.6578C4.97188 66.4844 4.10469 66.4266 3.00625 66.2531C2.775 66.1953 2.19688 66.1953 2.02344 66.0797C2.08125 66.0797 2.08125 65.9641 2.08125 65.9062ZM1.56094 74.2891C1.50313 74 1.56094 73.4797 1.56094 73.1328C1.56094 72.3812 1.61875 71.6297 1.61875 70.8203C1.61875 70.5312 1.56094 69.8953 1.73438 69.7219C1.85 69.6062 2.13906 69.6641 2.37031 69.6641C2.60156 69.6641 2.89062 69.6641 3.00625 69.7797C3.12187 69.8953 3.06406 70.3 3.06406 70.5312C3.06406 70.7625 3.00625 71.1672 3.12188 71.2828C3.2375 71.3984 3.64219 71.3984 3.93125 71.3984C5.66563 71.4563 7.28438 71.5141 9.01875 71.5141C9.30781 71.5141 9.7125 71.5141 9.77031 71.6297C9.88594 71.7453 9.82812 72.0344 9.82812 72.3812C9.82812 72.6703 9.82812 73.0172 9.7125 73.1328C9.59687 73.2484 9.19219 73.1906 8.96094 73.1906C7.22656 73.1328 5.60781 73.075 3.87344 73.075C3.58437 73.075 3.17969 73.0172 3.06406 73.1328C2.94844 73.2484 3.00625 73.5953 3.00625 73.8844C3.00625 74.1734 3.00625 74.5203 2.89062 74.6359C2.775 74.7516 1.85 74.7516 1.67656 74.6359C1.61875 74.4625 1.56094 74.4047 1.56094 74.2891ZM1.96563 80.9953C1.90781 80.8219 1.90781 80.5328 1.90781 80.2438C1.90781 80.0125 1.79219 79.7234 1.90781 79.55C2.02344 79.3766 2.54375 79.2609 2.83281 79.1453C4.97188 78.4516 7.11094 77.7 9.30781 77.0062C9.48125 76.9484 9.7125 76.8906 9.82812 76.9484C10.0016 77.0063 9.94375 77.4109 10.0016 77.7C10.0016 78.0469 10.1172 78.3938 10.0016 78.5094C9.88594 78.625 9.59688 78.6828 9.36563 78.7984C9.13438 78.8563 8.84531 78.9141 8.72969 79.0875C8.67188 79.2609 8.72969 79.55 8.72969 79.7812C8.72969 80.0703 8.72969 80.3594 8.84531 80.5328C8.96094 80.7063 9.30781 80.7063 9.48125 80.7063C9.77031 80.7641 10.0594 80.7641 10.175 80.8797C10.2906 81.0531 10.2906 81.3422 10.2906 81.6312C10.2906 81.8625 10.3484 82.2672 10.2906 82.325C10.175 82.3828 9.94375 82.325 9.77031 82.325C7.4 81.9781 4.97187 81.6313 2.60156 81.2844C2.19688 81.2266 2.02344 81.2844 1.96563 80.9953ZM3.2375 89.6094C3.06406 89.3203 2.94844 89.0312 2.83281 88.6844C2.71719 88.3375 2.65937 87.9328 2.71719 87.5281C2.71719 87.2391 2.71719 86.7766 2.94844 86.6031C3.12188 86.4875 3.52656 86.4297 3.75781 86.3719C3.93125 86.3141 4.45156 86.1406 4.56719 86.3141C4.625 86.4297 4.50938 86.5453 4.45156 86.6609C4.33594 87.0078 4.22031 87.2969 4.22031 87.7016C4.22031 88.3375 4.50938 88.8 4.79844 89.1469C5.37656 89.7828 6.30156 90.1297 7.51562 89.8984C8.15156 89.7828 8.55625 89.5516 8.90312 89.2047C9.25 88.9156 9.53906 88.5109 9.65469 88.1062C9.77031 87.7016 9.82812 87.0656 9.59688 86.5453C9.42344 86.1984 9.19219 85.9094 8.96094 85.6781C8.90312 85.6203 8.72969 85.5047 8.72969 85.3891C8.72969 85.2156 9.30781 85.1578 9.48125 85.1C9.82812 85.0422 10.1172 84.9266 10.2906 84.9844C10.5219 85.0422 10.6953 85.4469 10.8687 85.6781C11.0422 85.9672 11.1578 86.3141 11.2156 86.6609C11.3891 87.4125 11.2734 88.0484 11.1578 88.5687C10.8687 89.6672 10.0594 90.5344 8.96094 91.1125C7.63125 91.7484 6.12812 91.6906 5.14531 91.2281C4.39375 90.9391 3.7 90.4187 3.2375 89.6094ZM8.38281 101.981C7.68906 101.75 7.05312 101.345 6.53281 100.652C6.35938 100.42 6.18594 100.131 6.07031 99.8422C5.49219 98.5703 5.60781 97.4141 6.0125 96.5469C6.41719 95.6797 7.16875 94.8703 8.38281 94.35C9.65469 93.8297 10.8109 93.8297 11.7359 94.1188C12.6609 94.4656 13.5281 95.1016 13.9906 96.2578C14.5109 97.5297 14.4531 98.6281 14.0484 99.5531C13.6437 100.478 12.8922 101.23 11.6781 101.75C10.4641 102.328 9.25 102.27 8.38281 101.981ZM17.1703 106.144C15.2047 107.184 13.2969 108.225 11.2734 109.266C10.9844 109.439 10.8687 109.497 10.6953 109.266C10.6375 109.15 10.5219 108.919 10.3484 108.688C10.2328 108.514 10.1172 108.283 10.1172 108.109C10.175 107.936 10.5219 107.82 10.7531 107.647C12.2563 106.838 13.7016 106.086 15.2625 105.219C15.4937 105.103 15.8406 104.93 15.8984 104.814C15.9563 104.583 15.6094 104.12 15.4937 103.831C15.3781 103.658 15.3203 103.484 15.2047 103.311C15.0891 103.137 15.0312 102.964 15.0312 102.848C15.0891 102.733 15.3781 102.559 15.5516 102.502C15.7828 102.386 15.9563 102.212 16.1297 102.27C16.3031 102.328 16.4766 102.791 16.65 103.022C16.9969 103.658 17.2281 104.12 17.575 104.756C17.6906 104.987 17.9797 105.392 17.9219 105.566C17.9219 105.797 17.4594 106.028 17.1703 106.144ZM30.8719 123.025C30.7563 122.852 30.525 122.505 30.2359 122.389C30.0625 122.331 29.8313 122.331 29.7156 122.389C29.1953 122.678 29.1375 123.256 29.1953 123.661C29.3109 124.528 29.7156 125.395 29.2531 126.378C29.0797 126.725 28.7328 127.13 28.3859 127.419C27.6922 127.939 26.9406 128.113 26.2469 127.881C25.9 127.766 25.4953 127.534 25.1484 127.13C24.9172 126.898 24.5703 126.378 24.6859 126.089C24.7437 125.916 24.975 125.742 25.1484 125.569C25.2641 125.395 25.4953 125.106 25.6688 125.164C25.7844 125.222 25.9 125.511 25.9578 125.627C26.0156 125.742 26.1313 125.973 26.3047 126.089C26.6516 126.378 26.9984 126.436 27.2875 126.32C27.5188 126.205 27.75 125.973 27.8078 125.742C27.8656 125.453 27.8078 125.106 27.75 124.817C27.5187 123.95 27.2875 123.025 27.8656 122.1C28.2703 121.406 28.9641 120.944 29.5422 120.828C30.1203 120.713 30.7563 120.77 31.3922 121.291C31.5656 121.406 31.7969 121.695 31.9125 121.927C32.0281 122.158 32.2016 122.389 32.1437 122.562C32.0859 122.736 31.9125 122.909 31.6812 123.141C31.5656 123.256 31.3344 123.603 31.1609 123.545C30.9875 123.487 30.9297 123.141 30.8719 123.025ZM35.8438 127.881C34.8031 129.327 33.8781 130.598 32.8953 132.044C32.7219 132.275 32.5484 132.622 32.375 132.622C32.2016 132.622 31.9703 132.448 31.7391 132.275C31.5078 132.102 31.2188 131.928 31.1609 131.812C31.1609 131.639 31.3922 131.35 31.5656 131.119C32.6063 129.673 33.5312 128.402 34.5141 126.956C34.6875 126.725 34.9766 126.378 34.9188 126.262C34.8609 126.089 34.5719 125.916 34.3406 125.8C34.1094 125.627 33.8203 125.453 33.7625 125.28C33.7625 125.106 34.225 124.355 34.4562 124.297C34.5141 124.239 34.6297 124.297 34.6875 124.355C34.9766 124.528 35.3234 124.817 35.6703 125.048C36.3063 125.511 36.9422 125.916 37.5781 126.378C37.8094 126.552 38.3875 126.841 38.3875 127.072C38.3875 127.245 38.2141 127.419 38.0984 127.65C37.9828 127.823 37.8094 128.113 37.6937 128.113C37.5203 128.17 37.2313 127.881 37.0578 127.766C36.8844 127.65 36.5953 127.361 36.4219 127.419C36.1906 127.303 36.0172 127.65 35.8438 127.881ZM43.9375 132.738C43.475 133.72 42.6656 134.241 41.8563 134.241C41.6828 134.241 41.4516 134.183 41.3359 134.298C41.2203 134.414 41.2781 134.645 41.3359 134.819C41.3937 135.802 41.5094 136.669 41.5672 137.709C41.5672 137.825 41.625 138.114 41.5094 138.172C41.3938 138.288 40.9891 137.998 40.7578 137.883C40.4688 137.709 40.1219 137.536 40.0062 137.42C39.8906 137.247 39.8906 136.784 39.8906 136.553C39.8906 135.802 39.8328 135.108 39.775 134.298C39.775 134.183 39.775 133.894 39.6594 133.894C39.5438 133.836 39.3703 134.241 39.2547 134.414C38.9656 134.934 38.7922 135.281 38.5031 135.744C38.3875 135.975 38.2719 136.264 38.0984 136.322C37.925 136.38 37.6359 136.148 37.4047 136.033C37.1734 135.917 36.8266 135.744 36.8266 135.628C36.7687 135.455 37.1156 134.992 37.2313 134.761C37.7516 133.778 38.1562 133.027 38.7344 132.044C39.3703 130.887 39.8328 130.02 40.4688 128.922C40.6422 128.633 40.7 128.459 40.9891 128.575C41.3937 128.748 41.7984 129.038 42.2031 129.211C42.6078 129.442 43.0125 129.673 43.3016 129.905C44.1688 130.598 44.4578 131.523 43.9375 132.738ZM51.4531 137.883C50.9906 139.039 50.4703 139.848 49.7766 140.369C49.0828 140.889 48.2156 141.178 47.2328 140.831C46.25 140.484 45.7297 139.617 45.6141 138.808C45.3828 137.594 45.9031 135.744 46.7703 134.414C47.2906 133.605 47.9844 133.027 48.8516 132.795C49.2562 132.68 49.7766 132.68 50.2969 132.911C51.3375 133.316 51.8 134.125 51.9156 134.934C52.0312 135.744 51.8578 136.842 51.4531 137.883ZM60.2984 137.189C59.7781 139.213 59.3156 141.12 58.7953 143.144C58.7375 143.433 58.6219 143.953 58.5062 144.069C58.3328 144.184 58.1016 144.011 57.8125 143.953C57.5812 143.895 57.2922 143.838 57.1188 143.722C57.0031 143.606 57.0031 143.375 56.9453 143.202C56.7719 141.988 56.6562 140.831 56.425 139.617C56.425 139.444 56.425 139.213 56.2516 139.097C56.1359 139.213 56.1359 139.386 56.0781 139.559C55.7891 140.6 55.5578 141.641 55.2687 142.739C55.2109 142.912 55.2109 143.144 55.0953 143.202C54.9219 143.259 54.6328 143.144 54.3438 143.086C54.1125 143.028 53.7078 142.97 53.65 142.855C53.5922 142.681 53.7656 142.219 53.8234 141.93C54.3438 139.964 54.8062 137.998 55.3266 135.975C55.3844 135.686 55.4422 135.166 55.6156 135.05C55.7891 134.934 56.1937 135.108 56.4828 135.166C56.6562 135.223 56.9453 135.281 57.0609 135.339C57.1766 135.455 57.1766 135.686 57.2344 135.859C57.4078 137.016 57.5812 138.172 57.7547 139.328C57.8125 139.502 57.8125 139.733 57.9281 139.848C58.0437 139.733 58.0438 139.559 58.1016 139.386C58.3328 138.519 58.5062 137.652 58.7375 136.784C58.7953 136.495 58.8531 135.975 59.0266 135.859C59.1422 135.744 59.5469 135.917 59.7781 135.975C60.0094 136.033 60.4141 136.091 60.4719 136.206C60.5297 136.38 60.3563 136.9 60.2984 137.189ZM70.2422 142.103C69.8953 143.722 69.0859 144.82 67.9297 145.283C67.4094 145.514 66.7156 145.572 65.9641 145.456C64.75 145.283 63.9984 144.705 63.4781 143.953C63.0156 143.375 62.7844 142.623 62.6688 141.814C62.5531 140.889 62.7844 139.848 63.1312 139.155C63.7094 137.941 64.75 137.016 66.1953 136.842C66.4266 136.784 66.6578 136.842 66.8891 136.842C68.3922 136.9 69.375 137.652 69.8953 138.577C69.9531 138.692 70.0687 138.866 70.0687 139.039C70.0109 139.27 69.6641 139.328 69.4328 139.386C69.3172 139.444 69.2016 139.502 69.0859 139.502C68.9703 139.559 68.8547 139.617 68.7391 139.617C68.6234 139.617 68.5078 139.444 68.5078 139.328C68.2188 138.808 67.6984 138.23 66.8891 138.23C65.9062 138.172 65.2703 138.692 64.8656 139.386C64.5766 139.848 64.3453 140.427 64.3453 141.12C64.2875 141.814 64.4031 142.334 64.6344 142.797C64.9234 143.433 65.5594 144.127 66.6578 144.011C67.2359 143.953 67.6406 143.664 67.9875 143.259C68.1031 143.144 68.3922 142.681 68.2766 142.45C68.1609 142.277 67.7562 142.277 67.4672 142.277C67.1781 142.219 66.7734 142.277 66.6578 142.103C66.6 141.988 66.6 141.756 66.6578 141.525C66.6578 141.352 66.6578 141.062 66.7734 140.947C66.8891 140.831 67.3516 140.947 67.5828 140.947C68.2188 141.005 68.7391 141.062 69.3172 141.12C69.6063 141.178 70.0687 141.178 70.1266 141.294C70.3578 141.525 70.3 141.872 70.2422 142.103ZM83.25 143.202C83.1922 144.069 82.7875 144.705 82.1516 145.109C81.8047 145.283 81.4 145.398 80.8797 145.398C80.5328 145.398 79.9547 145.341 79.7812 145.052C79.7234 144.878 79.7234 144.647 79.6656 144.358C79.6656 144.127 79.55 143.78 79.7234 143.722C79.8391 143.664 80.1281 143.78 80.2438 143.838C80.4172 143.895 80.5906 143.895 80.8219 143.895C81.2844 143.837 81.5156 143.606 81.6891 143.317C81.7469 143.086 81.7469 142.739 81.5734 142.508C81.4 142.277 81.1109 142.103 80.8797 141.93C80.0703 141.525 79.2609 141.062 78.9719 140.022C78.7406 139.27 78.8562 138.461 79.1453 137.941C79.4344 137.42 79.9547 137.016 80.7063 136.9C80.9375 136.9 81.2844 136.9 81.5156 136.9C81.7469 136.958 82.0359 137.016 82.1516 137.189C82.2672 137.305 82.2672 137.594 82.2672 137.883C82.2672 138.056 82.3828 138.461 82.2672 138.519C82.1516 138.577 81.8625 138.403 81.6891 138.345C81.4578 138.288 81.0531 138.287 80.7641 138.403C80.5906 138.461 80.475 138.692 80.4172 138.808C80.3016 139.386 80.7063 139.848 80.9953 140.022C81.6891 140.542 82.6141 140.831 83.0766 141.756C83.1922 142.277 83.25 142.739 83.25 143.202ZM90.7078 139.848C90.3609 140.369 89.8406 140.658 89.0312 140.889C88.8 140.947 88.3953 140.947 88.2797 141.12C88.2219 141.236 88.2797 141.583 88.3375 141.814C88.4531 142.334 88.5687 142.739 88.6844 143.317C88.7422 143.548 88.8578 143.895 88.7422 144.011C88.6266 144.184 88.3375 144.184 88.0484 144.242C87.8172 144.3 87.4703 144.416 87.2969 144.3C87.1813 144.184 87.0656 143.664 87.0078 143.375C86.7766 142.334 86.6031 141.525 86.3141 140.369C86.025 139.155 85.7937 138.114 85.5047 136.842C85.4469 136.495 85.3891 136.38 85.6781 136.264C85.9094 136.206 86.2563 136.148 86.4875 136.091C87.2969 135.917 88.1641 135.686 88.8 135.744C89.725 135.802 90.3609 136.264 90.7078 137.131C91.2281 138.23 91.1125 139.212 90.7078 139.848ZM97.125 141.698C97.0672 141.872 96.7203 141.93 96.4313 141.988C96.2 142.045 95.8531 142.219 95.6797 142.161C95.5062 142.103 95.3906 141.525 95.3328 141.294C94.8125 139.675 94.2344 138.056 93.7141 136.438C93.5984 136.033 93.3672 135.455 93.2516 134.992C93.1359 134.703 93.0781 134.53 93.3094 134.414C93.425 134.356 93.7141 134.298 93.9453 134.183C94.1766 134.125 94.4078 134.009 94.5234 134.067C94.6969 134.125 94.8125 134.703 94.8703 134.934C95.2172 135.917 95.5641 136.958 95.8531 137.883C96.1422 138.808 96.4891 139.791 96.8359 140.773C96.9516 141.062 97.1828 141.525 97.125 141.698ZM105.161 138.461C104.814 138.634 104.467 138.808 104.294 138.808C104.062 138.808 103.716 138.519 103.542 138.403C102.906 137.941 102.328 137.594 101.692 137.131C101.577 137.073 101.403 136.9 101.287 136.958C101.172 137.073 101.403 137.42 101.461 137.594C101.692 138.114 101.866 138.519 102.097 138.981C102.213 139.212 102.328 139.502 102.328 139.617C102.27 139.791 101.923 139.906 101.692 139.964C101.461 140.08 101.114 140.253 100.998 140.195C100.825 140.137 100.652 139.617 100.536 139.386C100.073 138.403 99.7266 137.594 99.2641 136.553C98.7438 135.339 98.3391 134.472 97.8187 133.258C97.6453 132.911 97.5875 132.795 97.8766 132.68C98.2234 132.448 98.7438 132.275 99.1484 132.102C99.5531 131.928 100.016 131.697 100.363 131.639C101.519 131.35 102.444 131.697 103.022 132.853C103.542 133.836 103.427 134.761 102.964 135.397C102.848 135.512 102.675 135.686 102.675 135.802C102.733 135.975 102.964 136.033 103.08 136.148C103.889 136.669 104.641 137.131 105.508 137.652C105.623 137.709 105.855 137.825 105.855 137.941C105.913 138.23 105.392 138.345 105.161 138.461ZM109.728 136.033C109.497 136.148 109.208 136.38 109.034 136.322C108.861 136.264 108.63 135.802 108.514 135.512C107.647 134.009 106.78 132.564 105.97 131.061C105.739 130.714 105.45 130.136 105.219 129.731C105.045 129.442 104.987 129.327 105.161 129.153C105.219 129.095 105.508 128.922 105.739 128.806C105.912 128.691 106.144 128.517 106.317 128.575C106.491 128.633 106.722 129.095 106.838 129.384C107.358 130.252 107.878 131.234 108.398 132.044C108.861 132.911 109.381 133.778 109.959 134.703C110.133 134.934 110.422 135.397 110.364 135.57C110.306 135.802 110.017 135.859 109.728 136.033ZM115.336 132.448C115.105 132.622 114.873 132.853 114.7 132.795C114.527 132.795 114.353 132.448 114.18 132.217C113.139 130.772 112.214 129.5 111.231 128.055C111.058 127.823 110.827 127.477 110.711 127.419C110.537 127.419 110.306 127.65 110.075 127.823C109.844 127.997 109.613 128.228 109.439 128.17C109.266 128.17 108.745 127.419 108.688 127.188C108.688 127.072 108.745 127.072 108.803 126.956C109.034 126.725 109.439 126.494 109.786 126.262C110.422 125.8 111.058 125.395 111.694 124.933C111.925 124.759 112.445 124.355 112.619 124.355C112.792 124.355 112.908 124.644 113.023 124.817C113.139 124.991 113.37 125.222 113.312 125.395C113.255 125.569 112.966 125.742 112.734 125.916C112.561 126.031 112.214 126.205 112.156 126.436C112.156 126.609 112.387 126.898 112.561 127.13C113.544 128.575 114.527 129.847 115.509 131.292C115.683 131.523 115.914 131.812 115.914 131.986C115.856 132.102 115.625 132.217 115.336 132.448ZM121.927 127.072C121.753 127.419 121.522 127.766 121.059 128.055C120.77 128.228 120.25 128.575 119.961 128.402C119.787 128.344 119.672 128.113 119.498 127.881C119.383 127.708 119.094 127.477 119.152 127.361C119.209 127.245 119.498 127.188 119.614 127.13C119.787 127.072 119.961 127.014 120.134 126.841C120.481 126.552 120.539 126.205 120.481 125.916C120.423 125.684 120.192 125.395 119.961 125.338C119.672 125.222 119.383 125.222 119.036 125.28C118.111 125.395 117.244 125.511 116.377 124.817C115.741 124.297 115.394 123.603 115.336 123.025C115.278 122.389 115.452 121.811 116.03 121.291C116.203 121.175 116.492 120.944 116.723 120.828C116.955 120.713 117.244 120.597 117.417 120.713C117.591 120.77 117.706 121.002 117.938 121.233C118.053 121.348 118.342 121.638 118.284 121.753C118.227 121.927 117.88 121.869 117.706 121.927C117.475 121.984 117.128 122.216 117.012 122.505C116.955 122.678 116.897 122.909 116.955 123.025C117.186 123.545 117.764 123.719 118.111 123.719C118.978 123.719 119.903 123.43 120.828 123.95C121.175 124.181 121.522 124.528 121.753 124.933C122.158 125.627 122.216 126.436 121.927 127.072ZM74 135.917C39.775 135.917 12.0828 108.167 12.0828 74C12.0828 39.775 39.8328 12.0828 74 12.0828C108.167 12.0828 135.917 39.8328 135.917 74C135.917 108.225 108.225 135.917 74 135.917ZM136.669 110.017C136.38 110.653 135.744 111.173 135.281 111.405C135.108 111.52 134.877 111.636 134.703 111.578C134.53 111.52 134.472 111.231 134.356 111.058C134.298 110.942 134.067 110.653 134.183 110.537C134.241 110.364 134.53 110.364 134.703 110.248C134.877 110.133 135.166 109.902 135.281 109.555C135.397 109.208 135.339 108.861 135.223 108.63C135.108 108.514 134.934 108.341 134.703 108.283C134.241 108.167 133.778 108.572 133.373 108.861C132.564 109.497 131.755 110.017 130.598 109.613C129.384 109.15 128.748 108.167 128.691 107.242C128.633 106.722 128.748 106.202 129.095 105.681C129.558 104.872 130.252 104.525 130.945 104.352C131.119 104.294 131.523 104.236 131.697 104.352C131.87 104.467 131.87 104.756 131.928 104.93C131.928 105.045 131.986 105.103 131.986 105.219C131.986 105.277 132.102 105.45 131.986 105.566C131.928 105.681 131.697 105.681 131.581 105.681C131.177 105.681 130.714 105.855 130.425 106.202C129.905 106.78 130.136 107.473 130.656 107.82C131.408 108.341 131.986 107.878 132.448 107.473C133.2 106.895 134.009 106.317 135.108 106.664C135.917 106.953 136.38 107.531 136.611 108.109C136.727 108.398 136.784 108.688 136.784 109.034C136.9 109.323 136.842 109.67 136.669 110.017ZM141.005 100.594C140.947 100.883 140.716 101.345 140.542 101.692C140.253 102.386 139.964 103.08 139.617 103.831C139.502 104.12 139.328 104.698 139.097 104.814C138.981 104.872 138.692 104.756 138.461 104.641C138.288 104.583 137.998 104.467 137.941 104.352C137.883 104.178 138.056 103.831 138.172 103.658C138.288 103.484 138.461 103.08 138.403 102.964C138.345 102.791 137.941 102.675 137.709 102.559C136.091 101.866 134.645 101.23 133.027 100.536C132.795 100.42 132.391 100.305 132.333 100.131C132.275 100.016 132.448 99.7266 132.564 99.4375C132.68 99.2063 132.738 98.8594 132.911 98.8016C133.027 98.7437 133.431 98.9172 133.662 99.0328C135.281 99.7266 136.727 100.363 138.345 101.056C138.577 101.172 138.981 101.345 139.097 101.287C139.27 101.172 139.328 100.883 139.444 100.594C139.559 100.363 139.675 100.016 139.791 99.9578C139.906 99.9 140.773 100.247 140.889 100.42C141.062 100.362 141.062 100.478 141.005 100.594ZM143.433 93.3094C143.375 93.5984 143.259 93.9453 143.144 94.2922C142.913 95.1016 142.681 95.8531 142.45 96.6625C142.392 96.8359 142.334 97.0094 142.219 97.0672C142.103 97.125 141.814 97.0094 141.583 96.9516C141.409 96.8937 141.062 96.8359 141.005 96.6625C140.947 96.5469 141.062 96.3156 141.12 96.0844C141.236 95.6797 141.352 95.275 141.525 94.8125C141.583 94.5813 141.698 94.35 141.641 94.2344C141.525 94.0609 141.178 94.0031 140.889 93.9453C140.658 93.8875 140.253 93.7141 140.08 93.7719C139.964 93.8297 139.906 94.1188 139.848 94.2922C139.733 94.7547 139.617 95.1016 139.502 95.5062C139.444 95.7375 139.386 95.9688 139.27 96.0266C139.097 96.1422 138.172 95.8531 138.056 95.6797C137.998 95.5641 138.056 95.3328 138.172 95.1016C138.288 94.7547 138.403 94.2922 138.519 93.8875C138.577 93.6562 138.692 93.425 138.634 93.3094C138.519 93.1359 137.998 93.0203 137.709 92.9625C137.42 92.9047 136.842 92.6156 136.669 92.7312C136.553 92.7891 136.495 93.0781 136.438 93.2516C136.322 93.7141 136.206 94.0609 136.033 94.5234C135.975 94.7547 135.917 94.9859 135.802 95.0437C135.628 95.1016 135.397 94.9859 135.166 94.9281C134.934 94.8703 134.645 94.8125 134.588 94.6391C134.53 94.4078 134.703 93.9453 134.819 93.6562C135.05 92.9625 135.223 92.3266 135.455 91.6328C135.512 91.4016 135.628 90.7656 135.802 90.7078C135.975 90.65 136.438 90.8234 136.727 90.9391C138.75 91.575 140.6 92.0953 142.623 92.7312C142.855 92.8469 143.548 92.9625 143.433 93.3094ZM145.167 85.2734C145.167 85.5047 145.052 85.9094 144.994 86.2562C144.82 87.0656 144.705 87.875 144.531 88.6844C144.473 88.8578 144.473 89.0312 144.358 89.0891C144.242 89.1469 143.953 89.0891 143.722 89.0312C143.491 88.9734 143.202 88.9734 143.086 88.8578C143.028 88.7422 143.086 88.4531 143.144 88.2797C143.202 87.8172 143.317 87.4703 143.375 87.0078C143.433 86.7766 143.491 86.5453 143.375 86.4297C143.259 86.2562 142.913 86.2563 142.566 86.1984C142.334 86.1406 141.872 86.025 141.698 86.1406C141.583 86.1984 141.583 86.4875 141.525 86.6609C141.467 87.1234 141.352 87.4703 141.294 87.9328C141.236 88.1641 141.236 88.3953 141.12 88.4531C141.005 88.5687 139.964 88.3953 139.906 88.2219C139.848 88.1063 139.906 87.875 139.906 87.6438C139.964 87.2969 140.08 86.8344 140.137 86.4297C140.195 86.1984 140.253 85.9672 140.195 85.8516C140.08 85.6781 139.559 85.6781 139.213 85.6203C138.923 85.5625 138.345 85.3891 138.172 85.5047C138.056 85.6203 138.056 85.8516 137.998 86.0828C137.941 86.5453 137.825 86.95 137.767 87.4125C137.709 87.6437 137.709 87.875 137.594 87.9906C137.478 88.1062 137.189 87.9906 136.958 87.9328C136.727 87.875 136.38 87.875 136.322 87.7594C136.206 87.5859 136.38 87.0656 136.438 86.7766C136.553 86.0828 136.669 85.3891 136.842 84.6953C136.9 84.4641 136.958 83.8281 137.073 83.7125C137.247 83.5969 137.709 83.7703 138.056 83.8281C140.137 84.175 142.045 84.5797 144.127 84.9266C144.531 84.8687 145.225 84.8688 145.167 85.2734C145.167 85.2156 145.167 85.2156 145.167 85.2734ZM145.919 77.6422C145.919 78.1047 145.861 78.5672 145.803 78.9719C145.514 80.1281 144.762 80.7641 143.491 80.7641C142.392 80.7641 141.583 80.2438 141.236 79.4922C141.178 79.3766 141.12 79.0875 141.005 79.0875C140.831 79.0297 140.658 79.2031 140.542 79.2609C139.675 79.7234 138.923 80.1859 138.056 80.7063C137.941 80.7641 137.709 80.9375 137.594 80.8797C137.42 80.8219 137.478 80.3016 137.536 80.0703C137.536 79.7234 137.536 79.3187 137.652 79.1453C137.767 78.9719 138.172 78.7984 138.403 78.6828C139.097 78.3359 139.675 77.9891 140.369 77.6422C140.484 77.5844 140.716 77.4688 140.716 77.3531C140.716 77.2375 140.253 77.2375 140.022 77.2375C139.444 77.1797 139.039 77.1797 138.461 77.1219C138.23 77.1219 137.883 77.1219 137.767 77.0062C137.652 76.8906 137.709 76.5437 137.709 76.2547C137.709 75.9656 137.709 75.6188 137.825 75.5031C137.941 75.3875 138.519 75.4453 138.75 75.5031C139.848 75.5609 140.716 75.6187 141.814 75.6766C143.144 75.7344 144.069 75.7922 145.398 75.9078C145.745 75.9078 145.919 75.9656 145.919 76.1969C146.034 76.7172 145.919 77.2375 145.919 77.6422Z" fill="#BB7043"/>
</svg>
